<?xml version="1.0" standalone="no"?>
<!DOCTYPE svg PUBLIC "-//W3C//DTD SVG 20010904//EN"
 "http://www.w3.org/TR/2001/REC-SVG-20010904/DTD/svg10.dtd">
<svg version="1.0" xmlns="http://www.w3.org/2000/svg"
 width="5209.000000pt" height="5210.000000pt" viewBox="0 0 5209.000000 5210.000000"
 preserveAspectRatio="xMidYMid meet">

<g transform="translate(0.000000,5210.000000) scale(0.100000,-0.100000)"
fill="#000000" stroke="none">
<path d="M19550 45075 c-1485 -279 -2876 -816 -4140 -1598 -241 -149 -579
-377 -591 -398 -13 -25 12 -69 39 -69 9 0 129 74 265 165 1384 917 2885 1521
4511 1815 93 16 170 31 171 33 15 19 21 46 14 65 -11 30 -51 29 -269 -13z"/>
<path d="M32800 44984 c-318 -73 -331 -77 -345 -98 -11 -18 10 -135 155 -856
92 -459 182 -907 198 -995 17 -88 51 -266 76 -395 152 -791 205 -1111 213
-1275 6 -137 -4 -414 -16 -433 -4 -7 -81 -22 -172 -35 l-164 -24 -135 65
c-522 250 -933 426 -1413 606 -1411 529 -2950 869 -4432 980 -529 40 -845 49
-1410 43 -275 -4 -518 -8 -540 -11 -22 -3 -96 -7 -165 -11 -308 -14 -854 -65
-1135 -105 -524 -75 -688 -102 -1050 -175 -1584 -316 -3135 -888 -4555 -1678
-1000 -556 -1986 -1252 -2811 -1983 l-115 -102 -635 -62 c-611 -59 -641 -61
-817 -55 -173 7 -184 6 -205 -12 -19 -17 -57 -23 -262 -42 -230 -22 -481 -46
-945 -92 -118 -12 -223 -25 -232 -31 -16 -7 -18 -24 -18 -119 l0 -111 -83 6
c-45 3 -307 8 -582 12 -275 3 -501 7 -502 8 -1 1 -3 162 -5 358 -2 275 -6 360
-16 370 -8 8 -86 18 -230 29 -216 17 -217 17 -246 -4 -18 -12 -74 -29 -148
-42 -65 -13 -125 -28 -133 -35 -12 -10 -15 -67 -17 -369 l-3 -356 -265 -27
c-146 -14 -301 -30 -345 -33 -44 -4 -90 -13 -102 -21 l-23 -14 0 -340 0 -340
-37 0 c-21 0 -67 -3 -103 -5 -36 -3 -249 -12 -475 -21 -342 -13 -413 -18 -427
-31 -16 -15 -18 -43 -18 -324 0 -401 15 -505 101 -718 99 -243 293 -483 534
-662 294 -218 735 -403 1116 -469 149 -25 215 -27 1307 -44 452 -7 824 -15
827 -18 3 -3 -39 -81 -94 -175 -309 -531 -619 -1149 -868 -1733 -213 -499
-405 -1026 -573 -1570 -83 -270 -117 -392 -284 -1020 -136 -510 -154 -588
-143 -620 6 -18 -1 -82 -27 -220 -159 -873 -240 -1694 -262 -2660 -6 -281 7
-872 26 -1145 5 -77 12 -180 16 -230 20 -323 75 -814 130 -1184 350 -2336
1198 -4535 2517 -6525 87 -131 155 -242 150 -246 -4 -4 -111 -19 -238 -34
-126 -15 -246 -29 -265 -32 -19 -2 -127 -15 -240 -29 -113 -13 -297 -36 -410
-49 -113 -14 -281 -34 -375 -45 -93 -12 -264 -32 -380 -46 -115 -14 -230 -28
-255 -30 -25 -3 -58 -8 -75 -10 -16 -2 -147 -18 -290 -35 -143 -17 -271 -32
-285 -35 -14 -2 -70 -9 -125 -15 -55 -6 -152 -17 -215 -25 -118 -15 -342 -42
-1159 -140 -256 -31 -473 -61 -483 -66 -17 -9 -18 -122 -18 -2897 0 -2233 3
-2891 12 -2900 9 -9 70 -12 215 -12 l203 0 0 -589 c0 -522 2 -590 16 -602 13
-11 171 -25 325 -28 25 -1 26 -3 37 -104 56 -477 225 -743 417 -658 42 19 66
21 217 21 189 0 202 3 260 68 l35 39 23 -44 c30 -57 93 -121 135 -139 45 -18
97 -18 143 2 28 12 72 15 187 15 186 -1 216 6 271 60 24 24 45 41 47 38 2 -2
14 -26 28 -53 31 -63 100 -139 143 -160 43 -20 106 -21 153 -1 27 12 79 15
221 15 205 0 223 5 275 73 82 108 161 360 182 582 3 39 9 83 12 98 l5 29 71
-6 c40 -3 137 -8 217 -11 132 -5 397 -17 670 -30 58 -2 179 -7 270 -11 91 -3
179 -7 195 -9 17 -2 48 -4 70 -4 l41 -1 22 -120 c41 -223 107 -392 185 -477
73 -80 85 -83 376 -83 238 0 258 1 298 21 50 24 99 78 140 154 l29 55 18 -88
c78 -375 241 -579 416 -518 35 12 90 16 248 16 261 0 281 7 363 134 47 71 89
179 123 311 33 135 64 346 65 448 l1 48 88 -5 c48 -3 197 -10 332 -16 135 -6
277 -12 315 -15 39 -2 105 -4 148 -5 l79 0 -6 -37 c-3 -21 -8 -119 -11 -218
-7 -195 -3 -219 43 -269 49 -52 72 -56 305 -56 l213 0 36 -143 c19 -78 50
-177 68 -221 85 -204 210 -310 324 -275 25 8 132 15 276 18 261 7 268 8 331
78 72 80 138 232 180 413 10 47 21 95 24 108 l5 22 1468 0 1467 0 23 -103 c26
-110 78 -255 120 -327 37 -64 111 -140 157 -161 56 -26 112 -24 171 6 47 24
55 25 252 25 181 0 207 2 241 19 95 49 178 202 237 436 l26 105 262 0 c295 0
331 6 409 65 32 25 55 55 79 102 l33 68 3 662 3 663 6764 0 6765 0 1 -202 c0
-112 2 -219 4 -238 2 -19 6 -159 10 -310 4 -151 8 -287 9 -302 1 -16 3 -48 4
-72 3 -62 20 -76 94 -76 l60 0 -7 -353 c-4 -193 -8 -390 -10 -437 -2 -47 -4
-122 -5 -166 l0 -82 -60 5 c-126 10 -262 -28 -457 -128 -348 -180 -611 -359
-806 -549 -179 -173 -266 -328 -267 -472 0 -78 2 -79 95 -96 363 -66 1122 -79
1865 -32 242 15 571 41 615 49 63 10 67 27 71 295 4 315 -19 517 -81 702 -52
153 -104 230 -150 218 -20 -5 -25 -2 -25 12 0 11 25 242 55 514 30 272 55 495
55 496 0 1 19 -1 43 -3 80 -9 72 -34 191 592 59 308 110 576 114 595 l8 35
1437 3 c790 1 1437 0 1437 -3 0 -2 13 -82 29 -177 53 -313 94 -621 106 -798
10 -145 13 -172 24 -183 6 -6 48 -15 93 -21 l82 -11 49 -340 c36 -254 46 -344
38 -357 -10 -16 -24 -151 -101 -938 -11 -113 -27 -274 -36 -358 -14 -141 -14
-157 1 -210 24 -80 97 -153 180 -179 87 -26 649 -27 835 0 167 24 218 39 268
83 57 48 84 104 89 184 4 57 -2 86 -51 246 -137 449 -281 790 -430 1019 -72
110 -120 159 -147 152 l-22 -6 6 257 c4 141 7 303 7 358 l0 101 43 7 c53 8
135 35 142 46 11 18 54 484 90 985 25 343 24 338 54 375 49 61 78 113 105 189
28 78 39 176 126 1146 16 187 37 408 45 490 7 83 17 182 20 220 3 39 7 90 10
115 2 25 9 97 15 160 6 63 13 138 15 165 6 63 142 1541 155 1690 18 206 21
230 25 275 3 25 28 293 55 595 27 303 52 573 55 600 3 28 12 127 20 220 8 94
17 193 20 220 2 28 9 100 15 160 5 61 12 135 15 165 3 30 7 78 10 105 3 28 7
75 10 105 10 107 87 947 180 1970 52 569 97 1060 100 1090 3 30 16 176 30 324
24 250 28 277 60 361 58 156 66 259 29 395 -14 51 -13 77 10 330 14 151 28
307 31 345 3 39 8 86 10 105 4 31 14 138 30 330 3 30 14 147 25 260 84 874
120 1300 114 1355 -23 213 -154 400 -346 495 -143 70 -137 70 -932 70 l-708 0
-117 108 c-325 303 -453 394 -671 480 -190 75 -341 97 -750 108 -209 5 -251 9
-375 36 -159 34 -187 44 -233 83 -68 57 -75 82 -151 499 l-71 389 41 35 c140
120 239 370 226 571 -7 110 -25 159 -92 249 -72 97 -95 161 -95 260 0 42 7
102 15 132 20 74 18 146 -4 195 -36 80 -136 146 -271 181 l-65 17 -48 147
c-26 80 -54 156 -63 168 -20 29 -59 28 -78 -1 -14 -20 -12 -30 19 -112 18 -50
40 -114 49 -142 l15 -53 -78 0 c-120 0 -188 -25 -294 -109 -140 -111 -248
-143 -426 -123 -59 7 -127 12 -152 12 -51 0 -135 -23 -191 -51 -44 -22 -33
-43 -83 171 -110 480 -269 943 -441 1290 -187 376 -380 616 -599 745 -153 90
-239 162 -309 257 l-27 37 78 -24 c89 -28 176 -58 315 -109 95 -35 97 -35 120
-17 19 16 21 23 13 47 -9 23 -26 33 -125 71 -63 24 -187 66 -275 94 -215 68
-198 58 -223 126 -85 233 -102 533 -57 1003 37 392 45 631 24 760 -14 89 -99
340 -155 459 l-46 98 47 119 c101 254 179 513 206 687 19 123 6 403 -25 554
-66 315 -197 597 -386 834 -300 377 -747 642 -1206 716 l-100 16 -35 56 c-51
83 -192 221 -292 286 -233 151 -575 253 -967 290 -106 10 -116 44 -33 106 179
133 386 204 624 216 506 24 1059 -230 1704 -783 83 -71 344 -323 580 -560 556
-557 789 -771 1062 -976 373 -280 576 -289 632 -28 18 82 34 573 21 636 -15
69 -84 188 -175 298 -42 50 -117 141 -168 203 -150 181 -238 348 -274 517 -17
86 -19 261 -3 390 20 157 8 486 -24 671 -34 191 -76 361 -131 533 -24 75 -43
138 -41 139 2 2 81 -77 177 -175 931 -952 1738 -2013 2424 -3187 436 -747 857
-1631 1146 -2409 l30 -80 -118 115 c-137 133 -279 246 -359 285 -106 52 -201
28 -243 -60 -29 -60 -27 -118 15 -324 29 -141 35 -193 32 -257 -5 -89 -17
-118 -85 -210 -207 -276 -165 -520 153 -900 100 -119 205 -262 270 -367 274
-443 410 -912 349 -1201 -8 -38 -42 -156 -75 -262 -101 -322 -114 -389 -114
-600 0 -162 3 -189 26 -275 37 -137 79 -240 149 -365 106 -189 157 -329 193
-530 23 -128 27 -179 27 -375 0 -239 -20 -416 -72 -637 -23 -102 -82 -284
-114 -358 -14 -31 -25 -58 -25 -60 0 -3 23 -5 51 -5 l50 0 23 53 c55 124 119
361 150 552 28 176 37 296 35 470 -3 375 -66 636 -220 916 -132 241 -179 400
-179 616 0 145 22 269 80 458 126 407 135 453 127 610 -22 419 -264 952 -633
1395 -121 146 -180 232 -224 325 -86 182 -74 304 47 472 132 183 140 260 64
613 -11 52 -21 118 -21 147 0 44 4 55 27 72 29 23 43 22 108 -11 103 -51 333
-257 515 -459 l78 -86 90 -274 c375 -1134 619 -2281 732 -3444 6 -60 12 -130
15 -155 2 -25 7 -79 10 -120 3 -41 8 -100 10 -130 25 -293 47 -1077 40 -1360
-3 -107 -8 -277 -11 -377 l-6 -183 -312 0 c-323 0 -335 -1 -349 -41 -3 -9 1
-26 9 -38 l15 -21 1497 0 c1659 0 1570 3 1712 -66 142 -71 268 -229 305 -385
25 -106 27 -74 -75 -1232 -11 -125 -29 -332 -40 -460 -31 -362 -40 -464 -50
-577 -6 -58 -19 -211 -30 -340 -11 -129 -22 -260 -25 -290 -3 -30 -9 -109 -15
-175 -57 -657 -74 -854 -90 -1035 -6 -58 -19 -211 -30 -340 -11 -129 -22 -260
-25 -290 -3 -30 -9 -109 -15 -175 -57 -657 -74 -854 -90 -1035 -6 -58 -19
-211 -30 -340 -11 -129 -22 -260 -25 -290 -3 -30 -9 -109 -15 -175 -57 -657
-74 -854 -90 -1035 -6 -58 -19 -211 -30 -340 -11 -129 -22 -260 -25 -290 -3
-30 -9 -109 -15 -175 -57 -657 -74 -854 -90 -1035 -6 -58 -19 -211 -30 -340
-11 -129 -22 -260 -25 -290 -3 -30 -9 -109 -15 -175 -57 -657 -74 -854 -90
-1035 -6 -58 -19 -211 -30 -340 -11 -129 -22 -260 -25 -290 -3 -30 -9 -109
-15 -175 -57 -657 -74 -854 -90 -1035 -6 -58 -19 -211 -30 -340 -11 -129 -22
-260 -25 -290 -6 -64 -16 -186 -50 -585 -40 -463 -42 -482 -77 -557 -36 -79
-107 -152 -186 -192 l-51 -26 -268 0 c-227 0 -272 -2 -291 -16 -26 -18 -28
-46 -6 -68 23 -23 556 -24 611 -1 29 12 89 15 313 15 243 0 286 2 354 20 255
65 450 284 480 540 5 40 67 730 81 900 3 36 8 85 10 110 6 50 90 982 160 1760
52 581 53 593 65 720 5 52 12 131 15 175 3 44 7 96 10 115 2 19 7 67 10 105 3
39 10 113 15 165 5 52 12 129 15 170 3 41 8 91 10 110 2 19 6 64 9 100 4 36
15 162 26 280 11 118 22 242 25 275 3 33 32 357 65 720 32 363 62 687 65 720
3 33 23 260 45 505 22 245 42 468 45 495 9 90 33 368 40 450 3 44 8 98 11 120
6 53 101 1109 109 1205 3 41 7 91 10 110 2 19 7 71 10 115 3 44 8 96 10 115 3
19 23 238 45 485 22 248 42 475 45 505 3 30 14 156 25 280 11 124 22 248 25
275 5 46 27 297 41 455 3 36 7 81 9 100 3 19 11 114 20 210 20 231 83 939 90
1015 3 33 8 80 10 105 3 25 30 322 60 660 30 338 57 635 59 660 34 321 32 404
-10 521 -78 216 -252 367 -477 413 -59 12 -140 16 -356 16 l-280 0 -63 34
c-35 19 -94 45 -133 58 l-70 23 -1163 3 -1163 3 8 152 c12 233 9 1134 -5 1392
-20 353 -53 764 -82 1010 -5 44 -12 105 -16 135 -3 30 -23 181 -45 335 -433
3076 -1786 5999 -3881 8385 -229 261 -636 692 -990 1048 -220 222 -825 732
-1247 1052 -72 54 -82 65 -65 71 10 5 208 35 439 69 1509 219 3256 489 3790
585 905 163 1410 384 1557 682 30 61 33 76 33 158 0 81 -3 95 -30 144 -59 107
-186 215 -409 347 -72 43 -191 113 -265 157 -231 137 -404 206 -635 252 -285
56 -508 54 -956 -9 -332 -47 -557 -78 -1390 -192 -261 -36 -572 -78 -690 -95
-118 -16 -330 -45 -470 -64 -256 -35 -581 -80 -806 -111 -66 -10 -127 -15
-135 -12 -21 8 -182 269 -172 278 4 4 174 26 376 49 203 24 390 50 415 59 94
31 179 146 220 294 25 92 22 296 -7 402 -61 228 -206 390 -359 403 -33 3 -140
-6 -252 -21 -107 -14 -289 -37 -405 -52 -224 -27 -351 -54 -513 -108 l-100
-34 -769 1241 c-422 682 -774 1247 -781 1254 -17 17 -27 16 -152 -13z m1240
-1929 c1051 -1698 1137 -1841 1117 -1847 -12 -4 -94 -16 -182 -28 -152 -20
-531 -72 -916 -125 -97 -14 -182 -25 -190 -25 -12 0 -14 44 -15 258 -2 290
-14 429 -50 582 -61 260 -524 1574 -987 2801 l-74 197 66 15 c36 8 72 15 79
14 7 -1 525 -830 1152 -1842z m-1280 1490 c442 -1182 837 -2298 930 -2623 17
-61 37 -160 45 -219 17 -123 32 -575 21 -644 l-7 -46 -127 -18 c-70 -9 -187
-26 -260 -36 -73 -11 -142 -19 -153 -19 -18 0 -19 7 -13 223 7 241 3 291 -57
637 -31 184 -39 225 -144 785 -63 334 -431 2192 -441 2226 -4 13 6 19 43 26
26 5 49 9 49 9 1 -1 52 -136 114 -301z m2800 -1992 c-53 -86 -72 -156 -77
-294 -4 -98 -2 -144 12 -204 9 -42 15 -78 13 -79 -4 -3 -599 -77 -619 -76 -9
0 -77 100 -172 254 -86 139 -157 256 -157 259 0 8 200 71 290 92 76 17 635 92
702 94 l37 1 -29 -47z m-9075 -177 c22 -2 90 -7 150 -10 117 -7 347 -23 430
-31 1071 -101 1918 -255 2900 -526 792 -219 1746 -574 2460 -915 l100 -48 -80
-12 c-44 -7 -183 -26 -310 -43 -126 -18 -327 -45 -445 -61 -118 -17 -298 -41
-400 -55 -102 -14 -230 -32 -285 -40 -55 -8 -167 -23 -250 -34 -230 -31 -844
-116 -1462 -201 l-303 -42 -222 88 c-123 48 -226 90 -230 93 -9 8 -11 39 -44
606 -9 154 -20 288 -25 298 -6 9 -21 17 -35 17 -32 0 -382 -68 -410 -80 -16
-6 -50 -75 -134 -273 l-112 -265 -62 23 c-33 13 -407 161 -831 330 -1352 539
-1242 498 -1305 491 -140 -16 -832 -135 -845 -146 -8 -7 -15 -24 -15 -39 0
-23 36 -53 283 -236 155 -115 709 -526 1231 -914 l948 -704 -216 -75 c-134
-46 -220 -81 -226 -91 -5 -11 -3 -56 7 -119 9 -56 14 -105 11 -108 -5 -4 -406
-184 -1286 -577 -169 -75 -278 -129 -284 -141 -7 -12 -7 -26 0 -42 12 -25 32
-29 177 -39 128 -9 217 -16 260 -20 22 -2 81 -7 131 -11 l92 -6 853 287 c716
242 861 288 903 286 28 -1 587 -37 1241 -81 1522 -102 1569 -104 2139 -97 257
3 464 1 460 -3 -17 -16 -382 -248 -514 -327 -74 -44 -283 -163 -465 -263 -280
-156 -864 -486 -987 -559 l-36 -22 -26 51 c-97 193 -300 350 -580 449 -196 69
-368 101 -545 102 -240 1 -397 -52 -437 -147 -38 -90 -9 -204 129 -504 146
-320 185 -443 193 -600 l5 -95 -523 -312 -523 -311 -70 -7 c-466 -44 -622 -78
-802 -175 -228 -123 -359 -308 -443 -624 -58 -220 -84 -417 -125 -961 -29
-379 -48 -562 -76 -725 -76 -448 -219 -746 -394 -826 -49 -23 -67 -26 -138
-23 -68 3 -94 10 -147 36 -147 73 -287 228 -385 428 -124 252 -153 489 -91
740 38 157 49 263 43 425 -12 316 -109 573 -353 936 -69 104 -137 210 -150
236 -76 150 -72 353 11 523 101 208 302 386 655 581 220 122 353 212 459 310
187 174 281 357 281 546 0 109 -19 167 -126 380 -311 622 -573 932 -827 979
-112 20 -244 -37 -328 -143 -23 -29 -49 -69 -57 -88 -19 -43 -21 -196 -8 -495
12 -251 13 -598 3 -711 -34 -385 -140 -546 -325 -491 -28 8 -80 31 -116 51
l-65 37 46 72 c290 447 1 761 -783 851 -137 15 -120 2 -241 191 -154 241 -267
487 -314 683 -25 104 -27 280 -4 366 56 212 227 345 540 421 473 115 832 294
1067 532 180 181 273 355 319 594 28 148 24 379 -10 539 -53 249 -173 545
-312 770 -16 25 -25 48 -21 51 11 10 554 63 762 74 52 3 115 8 140 10 25 3
119 8 210 11 91 4 167 8 170 11 6 5 1303 -5 1355 -11z m-2777 -30 c-9 -22 -2
-39 69 -158 222 -370 331 -703 334 -1021 1 -212 -30 -353 -116 -514 -115 -217
-306 -392 -585 -536 -198 -103 -385 -167 -735 -253 -38 -10 -114 -40 -168 -67
-218 -109 -345 -300 -360 -542 -16 -265 114 -624 363 -1000 26 -38 49 -74 52
-80 4 -7 -136 -10 -410 -11 -367 0 -585 -8 -879 -30 l-83 -7 0 321 c0 368 4
351 -88 354 -31 1 -66 2 -77 3 -11 1 -103 5 -205 9 -102 4 -210 9 -240 11 -30
2 -134 7 -230 10 -96 3 -204 8 -240 10 -36 2 -144 7 -240 10 -225 7 -251 11
-258 39 -24 93 -156 291 -258 387 -347 326 -901 349 -1569 64 -298 -127 -876
-428 -1228 -638 l-118 -70 -497 -49 c-348 -35 -535 -49 -622 -48 -69 1 -127 3
-128 5 -13 13 542 470 888 732 2153 1628 4662 2675 7290 3042 179 25 305 44
342 50 4 0 3 -10 -4 -23z m11813 -508 c7 -18 35 -60 61 -94 l47 -62 -37 -6
c-47 -8 -513 -66 -528 -66 -12 0 -110 153 -116 180 -2 12 41 20 242 46 325 42
314 42 331 2z m4087 -202 c105 -14 131 -31 183 -121 32 -56 37 -109 13 -143
-51 -74 -267 -143 -571 -183 -51 -6 -93 -16 -93 -21 0 -5 26 -72 57 -149 l57
-140 41 6 c123 19 397 79 505 110 160 46 314 120 363 174 34 38 37 46 37 100
0 66 -19 128 -56 184 -13 20 -22 37 -19 37 15 0 121 -59 210 -118 125 -82 280
-234 314 -309 24 -51 24 -52 4 -85 -38 -66 -172 -136 -369 -193 -82 -24 -339
-78 -664 -139 -1243 -235 -2362 -424 -3450 -585 -432 -64 -547 -80 -955 -135
-143 -20 -294 -40 -335 -46 -224 -31 -1419 -173 -1655 -196 -27 -2 -68 -7 -90
-9 -74 -9 -585 -59 -805 -80 -169 -16 -548 -47 -775 -65 -143 -11 -287 -22
-320 -25 -113 -10 -895 -58 -1135 -70 -63 -3 -146 -8 -185 -10 -38 -2 -151 -7
-250 -11 -99 -3 -200 -7 -225 -9 -184 -10 -871 -20 -1345 -20 -745 0 -1255 14
-1255 34 0 4 114 45 253 93 l252 86 210 26 c116 15 228 29 250 31 22 3 114 14
205 25 91 11 185 23 210 26 25 2 59 7 75 9 17 2 163 20 325 40 162 20 303 38
313 41 23 7 37 44 26 66 -5 9 -42 32 -82 51 -39 19 -173 83 -297 142 -320 152
-345 164 -1385 660 -517 246 -1016 484 -1110 529 -93 45 -279 133 -412 196
-133 63 -239 118 -235 122 4 3 48 11 97 18 l90 12 355 -142 c195 -78 949 -378
1675 -667 l1320 -526 120 17 c66 9 203 28 305 41 102 14 298 41 435 60 138 19
482 66 765 105 283 39 659 91 835 115 176 24 354 49 395 55 117 15 642 88 880
121 264 36 412 56 510 69 41 6 172 24 290 40 118 16 413 57 655 90 242 33 485
67 540 75 55 7 154 21 220 30 66 9 134 18 150 21 17 2 377 51 800 109 424 58
815 112 870 120 55 8 168 23 250 34 83 11 231 32 330 45 99 14 446 62 770 106
325 44 669 92 765 106 96 14 218 29 270 34 116 10 352 4 478 -14z m-14082
-235 c148 -70 307 -146 354 -169 117 -55 482 -229 740 -352 118 -56 271 -130
340 -162 69 -33 215 -103 325 -155 110 -53 252 -120 315 -151 63 -30 156 -74
205 -97 50 -23 144 -68 210 -100 66 -31 152 -72 190 -90 39 -18 156 -74 260
-125 105 -50 207 -99 228 -107 21 -9 35 -18 32 -21 -3 -3 -322 -44 -709 -92
l-705 -86 -185 136 c-101 74 -564 414 -1027 755 -464 341 -923 679 -1021 750
-98 72 -178 132 -178 135 0 6 286 57 331 59 15 0 143 -55 295 -128z m2858 -78
c3 -16 8 -84 11 -153 4 -69 13 -228 20 -355 8 -126 13 -230 12 -231 -2 -2
-550 216 -555 221 -2 2 151 370 192 460 13 29 18 31 147 57 171 34 166 34 173
1z m12497 -310 c105 -99 126 -161 94 -270 -74 -249 -524 -471 -1260 -623 -267
-55 -991 -174 -1920 -316 -1186 -181 -2916 -436 -2922 -431 -2 2 119 63 269
134 235 112 274 134 283 158 8 23 6 30 -14 46 -16 13 -33 18 -50 15 -14 -3
-735 -94 -1601 -202 l-1575 -196 -185 -132 c-102 -73 -226 -161 -277 -196
l-92 -63 -123 -10 c-68 -6 -384 -11 -703 -11 l-580 0 -1145 77 c-630 42 -1170
80 -1200 83 l-55 7 114 38 c62 21 119 43 127 50 19 16 18 53 -2 70 -19 16 6
15 -669 24 -286 4 -523 9 -527 12 -5 2 -8 11 -8 20 0 14 10 15 68 10 227 -22
1409 -29 2067 -14 193 5 368 10 390 12 22 2 126 6 230 9 179 6 657 29 845 41
350 22 572 36 610 40 25 2 86 7 135 10 143 9 611 46 945 75 421 36 1412 139
1845 191 1342 162 2458 322 3724 535 811 136 1660 290 2279 413 613 122 847
274 742 481 l-21 42 46 -32 c26 -18 78 -62 116 -97z m-5832 -1437 c-2 -2
-1633 -780 -3624 -1729 l-3620 -1725 -80 -6 c-44 -4 -105 -9 -135 -12 l-55 -6
30 17 c17 9 84 45 150 80 66 34 559 294 1095 578 536 283 1058 558 1160 612
102 54 226 119 275 145 50 26 295 156 545 288 250 132 550 290 665 352 116 61
307 159 425 217 730 357 833 410 1110 571 275 159 450 281 551 385 l57 59 694
88 c644 82 768 96 757 86z m-16190 -148 c216 -44 391 -154 527 -329 47 -62
124 -196 124 -218 0 -11 -16 -12 -77 -8 -43 4 -152 9 -243 12 -91 3 -193 8
-227 11 -53 5 -64 3 -82 -15 -17 -17 -49 -23 -228 -41 -114 -11 -228 -22 -253
-25 -25 -3 -119 -12 -210 -20 -91 -8 -208 -20 -260 -25 -504 -53 -637 -62
-806 -55 -162 6 -172 6 -185 -12 -12 -16 -36 -22 -133 -31 -66 -6 -121 -10
-123 -8 -9 9 388 222 767 412 440 219 679 309 930 349 58 9 112 18 120 19 58
11 276 2 359 -16z m14561 -69 c-195 -169 -823 -522 -1495 -838 -77 -37 -203
-100 -280 -140 -77 -41 -295 -156 -485 -256 -190 -100 -552 -292 -805 -425
-253 -134 -487 -257 -520 -275 -33 -18 -195 -104 -360 -190 -165 -87 -415
-218 -555 -293 -140 -74 -304 -160 -365 -192 -60 -32 -371 -196 -689 -364
-319 -168 -586 -312 -595 -320 -14 -13 -337 -54 -346 -44 -7 7 1251 762 2040
1225 665 390 1454 839 1760 1003 263 141 851 521 1288 834 l208 148 107 14
c59 8 130 17 157 20 36 5 920 117 965 123 3 0 -11 -13 -30 -30z m1787 -141
c530 -401 1330 -1100 1376 -1202 36 -80 135 -384 170 -521 38 -148 69 -311 88
-460 13 -111 13 -406 0 -500 -15 -102 -13 -290 4 -388 35 -199 135 -394 306
-597 283 -335 320 -395 320 -514 -1 -121 -21 -504 -29 -536 -19 -76 -45 -100
-106 -100 -47 0 -104 23 -206 84 -258 155 -632 489 -1275 1138 -436 440 -621
605 -917 815 -795 565 -1548 657 -2074 252 -61 -47 -79 -78 -78 -136 2 -86 58
-127 189 -137 466 -37 878 -198 1087 -425 94 -101 98 -96 -66 -97 -822 -8
-1555 -541 -1825 -1326 -72 -210 -115 -490 -105 -681 27 -501 422 -1392 1158
-2607 278 -461 722 -1142 756 -1160 21 -11 70 -13 96 -3 34 13 558 825 863
1336 259 436 574 1023 703 1311 l35 79 33 -79 c50 -121 100 -271 116 -353 23
-117 18 -348 -13 -671 -34 -359 -38 -745 -9 -900 67 -363 222 -585 536 -766
127 -73 271 -221 388 -398 249 -376 492 -1018 634 -1678 l32 -148 -26 -27
c-39 -42 -112 -156 -162 -252 -107 -209 -120 -342 -46 -499 56 -119 196 -230
336 -266 l49 -12 7 -85 c12 -138 16 -545 7 -684 -8 -118 -32 -317 -46 -372 -5
-22 -2 -23 45 -23 59 0 55 -10 79 182 12 100 17 218 17 473 1 187 -1 378 -4
425 -4 77 -3 85 14 85 14 0 28 -31 71 -160 100 -305 199 -512 310 -646 l22
-27 -17 -129 c-27 -203 -73 -266 -225 -311 -152 -45 -238 -62 -419 -82 -431
-49 -634 -143 -983 -459 l-123 -111 -7383 0 c-5289 0 -7400 -3 -7443 -11 -239
-44 -430 -213 -498 -439 -11 -34 -35 -257 -66 -595 -27 -297 -52 -565 -54
-595 -3 -30 -10 -107 -16 -170 -6 -63 -12 -137 -15 -165 -2 -27 -9 -95 -14
-150 -13 -128 -13 -138 -61 -665 -22 -245 -42 -467 -45 -495 -3 -27 -28 -295
-56 -595 -27 -300 -74 -813 -104 -1140 -30 -327 -75 -820 -100 -1095 -25 -275
-52 -567 -60 -649 -8 -82 -15 -155 -15 -162 0 -12 -375 -14 -2346 -14 l-2346
0 -241 -30 c-133 -16 -411 -50 -617 -75 -206 -25 -393 -47 -415 -50 -82 -10
-619 -75 -870 -105 -143 -17 -386 -47 -539 -65 -153 -19 -283 -32 -287 -29
-15 9 -357 530 -491 749 -1074 1749 -1790 3643 -2137 5655 -111 643 -169 1181
-216 2015 -10 185 -13 968 -4 1210 22 612 78 1226 170 1845 31 209 86 533 95
560 9 25 152 -217 277 -465 133 -267 227 -529 278 -778 29 -143 37 -233 44
-462 8 -306 20 -509 41 -735 65 -696 219 -1292 488 -1895 135 -300 298 -605
755 -1410 223 -392 294 -489 536 -730 226 -227 467 -420 792 -636 l168 -111
58 -89 c37 -58 63 -89 75 -89 21 0 46 18 58 42 8 14 16 12 69 -19 134 -79 422
-232 644 -342 890 -441 1974 -825 2686 -952 378 -67 645 13 726 218 32 81 32
234 1 350 -38 141 -111 313 -204 478 -232 412 -439 659 -856 1021 l-33 29 119
200 c571 960 921 1712 1027 2207 76 351 19 759 -154 1123 -103 216 -219 382
-380 543 -206 208 -451 366 -718 463 -51 19 -93 37 -93 42 0 4 21 56 46 115
65 152 129 349 155 477 24 116 27 220 20 560 -7 340 58 595 245 967 163 325
406 707 762 1195 264 362 345 498 370 618 22 105 -19 204 -198 480 -266 410
-317 562 -410 1230 -86 615 -166 798 -377 868 -120 39 -202 50 -337 44 -237
-10 -424 -88 -626 -261 -184 -157 -377 -445 -520 -776 -56 -130 -185 -393
-245 -501 -137 -245 -254 -389 -367 -450 -59 -32 -69 -34 -158 -34 -106 1
-164 17 -305 88 -178 89 -293 267 -363 562 -24 101 -26 127 -26 325 0 184 3
230 22 317 71 330 231 617 463 838 91 86 156 136 324 248 110 73 209 147 391
292 l31 25 2889 -45 c1589 -25 2931 -45 2982 -45 l93 0 87 135 c427 662 727
1124 753 1156 44 55 177 167 489 410 370 288 491 390 648 546 73 73 134 133
137 133 2 0 30 -16 62 -35 128 -77 267 -99 357 -56 91 45 159 151 201 316 47
184 59 457 40 915 -5 135 -10 304 -10 375 l0 130 32 46 c63 91 130 132 218
133 94 1 176 -44 296 -163 161 -161 300 -376 492 -759 l112 -223 0 -117 c-1
-103 -4 -124 -26 -178 -80 -188 -270 -375 -530 -519 -341 -189 -454 -265 -588
-391 -255 -240 -359 -521 -292 -786 26 -100 55 -156 166 -318 275 -403 374
-668 376 -1001 0 -127 -10 -202 -48 -364 -34 -140 -37 -332 -9 -465 79 -371
313 -697 581 -810 51 -21 75 -25 165 -25 99 0 110 2 171 33 232 113 395 482
468 1055 27 212 28 223 56 592 27 357 28 369 51 555 55 452 166 722 357 866
145 109 373 184 642 210 33 3 66 7 73 9 39 13 -4 -19 -118 -89 -137 -82 -161
-104 -153 -137 9 -32 35 -36 161 -22 64 7 227 24 362 38 135 14 332 34 439 46
106 11 207 26 225 33 17 7 321 151 675 320 354 169 644 306 646 304 2 -2 -3
-34 -11 -73 -16 -84 -18 -212 -4 -286 39 -205 263 -387 549 -444 122 -25 263
-16 486 29 264 54 378 48 477 -27 114 -86 118 -245 12 -447 -138 -261 -413
-488 -727 -599 -133 -47 -263 -69 -462 -80 -282 -16 -430 -56 -569 -155 -87
-62 -143 -126 -241 -274 -122 -187 -171 -222 -301 -222 -129 0 -266 47 -563
194 -247 121 -309 141 -446 141 -104 0 -114 -2 -177 -33 -124 -61 -245 -219
-374 -487 -59 -125 -92 -210 -260 -670 -137 -377 -218 -542 -464 -945 -62
-102 -157 -275 -210 -385 -228 -463 -309 -821 -251 -1102 38 -183 125 -311
418 -614 300 -312 395 -422 511 -594 72 -108 139 -228 188 -339 207 -467 324
-683 500 -919 297 -400 611 -623 989 -702 110 -24 320 -24 450 -1 228 41 493
154 735 313 161 107 281 201 495 393 281 250 495 414 720 551 445 270 807 337
1090 201 139 -68 241 -168 335 -332 86 -151 117 -200 298 -475 392 -596 664
-959 890 -1189 141 -143 197 -182 334 -237 406 -162 730 -439 933 -798 52 -92
140 -290 132 -297 -2 -2 -3167 -5 -7033 -6 l-7029 -3 -80 -27 c-112 -39 -198
-92 -280 -173 -147 -147 -186 -254 -215 -587 -43 -499 -60 -704 -85 -1003 -14
-170 -28 -332 -30 -360 -16 -162 -25 -273 -25 -291 0 -17 -18 -27 -97 -59
-137 -53 -359 -168 -481 -249 -203 -136 -374 -296 -510 -479 -144 -194 -183
-279 -190 -424 -6 -132 15 -195 123 -361 289 -444 557 -1132 647 -1661 30
-178 30 -422 1 -541 -49 -195 -55 -400 -18 -575 32 -155 171 -520 175 -460 1
11 5 54 9 94 7 71 5 81 -35 200 -61 182 -78 292 -72 460 4 90 13 163 26 216
94 361 8 877 -259 1550 -84 212 -283 607 -380 755 -103 157 -119 197 -119 300
0 98 21 163 87 268 180 289 473 546 823 722 75 38 242 110 255 110 3 0 3 -19
0 -42 -3 -24 -14 -153 -25 -288 -11 -135 -22 -267 -25 -295 -2 -27 -11 -133
-20 -235 -8 -102 -17 -207 -20 -235 -2 -27 -11 -135 -20 -240 -8 -104 -20
-239 -25 -300 -13 -136 -40 -463 -86 -1010 -3 -38 -7 -86 -9 -105 -2 -19 -8
-96 -14 -170 -6 -74 -13 -155 -16 -180 -4 -41 -35 -417 -51 -612 -6 -74 -5
-77 19 -93 31 -20 64 -7 72 28 2 12 36 398 75 857 38 459 74 887 80 950 6 63
26 302 45 530 19 228 42 492 50 585 8 94 33 386 55 650 22 264 42 505 45 535
3 30 30 348 60 705 86 1018 82 976 108 1048 35 96 73 155 147 228 78 77 175
130 282 154 67 14 701 15 7123 12 3878 -2 7055 -4 7060 -4 132 -3 1073 14
1081 19 19 13 23 46 7 67 -14 21 -20 21 -556 21 l-542 0 -35 96 c-44 122 -137
298 -220 416 -84 122 -317 354 -437 438 -132 91 -260 163 -387 215 -61 25
-130 55 -154 67 -159 79 -479 460 -890 1059 -171 250 -396 599 -455 704 -221
400 -516 556 -927 490 -371 -60 -871 -352 -1359 -794 -476 -431 -791 -622
-1166 -709 -142 -32 -354 -36 -485 -8 -421 90 -783 400 -1103 947 -70 120
-191 361 -247 494 -107 255 -228 462 -386 660 -86 107 -170 199 -409 445 -171
176 -281 313 -324 403 -131 275 -46 721 243 1272 77 147 112 207 243 420 187
306 272 495 460 1020 201 563 361 842 528 917 67 30 174 29 265 -1 36 -12 166
-71 290 -131 314 -152 439 -191 600 -187 152 4 216 50 348 251 104 156 163
222 245 274 126 79 274 115 522 127 280 12 513 79 733 210 364 217 616 571
600 845 -8 127 -58 210 -163 270 -130 73 -239 78 -525 20 -311 -63 -446 -54
-637 40 -128 63 -201 128 -245 218 -29 58 -33 77 -36 166 -4 108 25 287 50
312 7 8 480 236 1051 508 l1038 495 66 -50 c153 -117 417 -208 798 -276 121
-22 487 -23 905 -5 264 12 265 12 327 42 102 50 173 152 215 309 29 107 29
294 -1 406 -45 170 -136 301 -247 355 -44 22 -61 24 -174 22 -69 -1 -147 -4
-175 -8 -27 -3 -48 -4 -45 -1 3 2 341 165 751 360 l746 356 264 39 c145 22
272 40 281 41 9 0 65 -36 125 -81z m-7650 -56 l172 -7 -946 -319 -946 -318
-86 6 c-200 15 -303 24 -306 28 -4 4 49 28 862 390 l521 233 279 -3 c153 -2
355 -6 450 -10z m-8357 -376 c91 -4 208 -9 260 -11 52 -3 154 -7 225 -10 215
-9 345 -15 445 -20 52 -3 167 -7 255 -10 88 -3 185 -8 215 -10 30 -3 141 -7
245 -10 105 -3 202 -8 218 -11 l27 -6 0 -288 0 -289 -32 -5 c-18 -3 -89 -10
-158 -16 -470 -40 -1622 -188 -1912 -246 l-28 -6 0 475 0 474 38 -2 c20 -2
111 -6 202 -9z m-340 -488 l0 -463 -348 -58 c-191 -32 -513 -90 -715 -128
-203 -38 -373 -69 -378 -69 -5 0 -9 204 -9 519 l0 519 48 6 c26 3 97 11 157
16 61 6 128 13 150 15 22 3 139 14 260 25 121 11 263 25 315 31 52 5 127 12
165 16 39 3 122 11 185 18 63 7 127 13 143 14 l27 1 0 -462z m-8307 355 l47
-6 0 -321 0 -321 -97 0 c-54 0 -124 -3 -155 -8 l-58 -7 0 341 0 342 108 -7
c59 -4 128 -9 155 -13z m-363 -342 l0 -328 -61 -7 c-34 -3 -75 -6 -90 -6 l-29
0 0 318 0 319 83 15 c45 8 85 16 90 17 4 0 7 -147 7 -328z m7058 299 l62 0 0
-576 0 -576 -122 -179 c-98 -145 -126 -179 -142 -177 -12 2 -20 6 -18 11 1 4
2 345 2 758 l0 751 78 -5 c42 -4 105 -6 140 -7z m-318 -770 c0 -407 -1 -740
-2 -740 -34 -4 -1365 -90 -1396 -90 -16 0 -17 56 -17 720 0 473 3 720 10 720
11 0 369 34 925 89 212 21 406 39 433 40 l47 1 0 -740z m-1602 601 l92 -1 0
-724 0 -723 -82 -6 c-46 -4 -102 -7 -125 -7 l-43 0 0 734 0 734 33 -4 c17 -1
74 -3 125 -3z m-255 -744 l-2 -712 -88 -6 c-290 -20 -1215 -79 -1239 -79 l-24
0 0 690 0 689 33 5 c17 3 185 19 372 36 187 17 351 33 365 35 14 2 61 6 105
10 44 4 87 8 95 10 8 2 56 6 105 10 50 4 119 10 155 15 36 4 79 8 95 9 l30 1
-2 -713z m18068 661 c-76 -100 -111 -235 -106 -408 2 -63 7 -125 10 -136 7
-21 3 -22 -92 -28 -54 -4 -125 -9 -158 -11 -207 -13 -458 -16 -535 -6 -148 20
-480 109 -480 129 0 4 230 117 512 250 l511 244 126 7 c69 3 154 8 189 9 l63
3 -40 -53z m-19523 -781 l2 -707 -69 0 c-38 0 -83 -3 -100 -6 l-31 -6 0 717 0
717 98 -4 97 -5 3 -706z m-300 -19 l-3 -703 -645 -42 c-355 -23 -657 -41 -673
-40 l-27 2 0 675 0 675 57 6 c32 4 162 16 288 28 228 22 983 97 998 100 4 0 6
-315 5 -701z m15019 581 c245 -4 548 -99 754 -235 90 -60 197 -175 233 -252
16 -34 28 -63 25 -65 -2 -2 -139 -82 -304 -179 -165 -96 -403 -236 -530 -310
-126 -75 -231 -135 -232 -135 -1 1 -4 29 -8 62 -17 158 -69 315 -197 595 -109
237 -138 318 -138 385 0 62 19 83 98 109 44 15 180 35 193 30 3 -2 50 -4 106
-5z m-5932 -79 c236 -9 432 -27 572 -51 l62 -11 -77 -86 c-219 -246 -504 -634
-651 -889 l-53 -93 -112 0 c-61 -1 -165 -3 -231 -5 -362 -15 -620 -26 -702
-30 -142 -8 -267 -14 -383 -20 -182 -9 -472 -25 -545 -30 -38 -3 -124 -7 -190
-10 -66 -3 -210 -10 -320 -15 -110 -6 -249 -12 -310 -15 -60 -3 -146 -7 -190
-10 -44 -3 -138 -7 -210 -10 -71 -3 -161 -7 -200 -10 -38 -3 -122 -7 -185 -10
-384 -18 -747 -35 -825 -40 -49 -2 -139 -7 -200 -10 -60 -3 -159 -8 -220 -10
-60 -3 -148 -8 -195 -10 -115 -6 -234 -12 -725 -35 -231 -11 -458 -22 -505
-25 -47 -2 -139 -7 -205 -10 -66 -3 -163 -8 -215 -10 -90 -5 -141 -7 -405 -20
-107 -5 -423 -20 -635 -30 -58 -3 -145 -7 -195 -10 -49 -3 -146 -7 -215 -10
-69 -3 -163 -7 -210 -10 -47 -3 -137 -7 -200 -10 -63 -3 -158 -8 -210 -10 -52
-3 -243 -12 -425 -20 -181 -8 -373 -17 -425 -20 -103 -5 -236 -12 -425 -20
-66 -3 -163 -7 -215 -10 -187 -9 -321 -16 -755 -35 -242 -11 -480 -22 -530
-25 -49 -2 -146 -7 -215 -10 -209 -9 -570 -25 -665 -30 -49 -2 -162 -7 -250
-10 -88 -3 -187 -7 -220 -10 -33 -2 -150 -7 -260 -11 -110 -3 -207 -8 -215 -9
-8 -2 -130 -6 -270 -9 -140 -4 -287 -9 -327 -12 -70 -5 -72 -5 -78 18 -2 13
-10 43 -16 68 -6 26 -13 178 -16 356 l-5 312 123 6 c68 4 309 13 534 21 226 8
466 17 535 20 69 2 193 7 275 10 83 3 206 7 275 10 107 4 506 19 774 27 l79 3
86 -254 c54 -160 92 -258 103 -265 20 -12 6115 379 6133 394 5 5 80 112 165
238 l155 230 55 11 c141 29 788 146 1085 195 1364 228 2545 361 3375 379 63 2
133 4 155 5 22 1 153 -3 290 -8z m879 -131 c236 -85 357 -225 328 -381 -32
-172 -206 -394 -525 -669 l-137 -119 -38 24 c-61 41 -209 84 -378 111 -87 14
-159 27 -160 28 -4 4 124 211 193 313 138 205 344 468 506 646 90 100 74 96
211 47z m-12834 -359 l0 -340 -87 -1 c-49 0 -99 -2 -113 -4 -14 -1 -115 -6
-225 -10 -110 -4 -218 -9 -240 -10 -22 -2 -134 -6 -250 -10 -115 -4 -222 -8
-237 -9 l-28 -2 0 302 0 303 33 5 c37 6 101 13 202 22 39 4 259 26 490 49 231
24 428 43 438 44 16 1 17 -21 17 -339z m795 325 c275 -3 528 -8 563 -11 l62
-6 0 -559 c0 -500 -2 -559 -16 -559 -8 0 -191 -12 -406 -26 -214 -14 -392 -24
-393 -22 -2 2 -42 117 -89 257 -48 140 -91 261 -98 268 -10 12 -37 13 -160 8
l-148 -8 0 335 0 335 93 -3 c50 -1 317 -5 592 -9z m20509 -95 c140 -53 342
-105 486 -126 110 -16 249 -16 505 1 33 2 110 7 172 10 l112 6 26 -56 c15 -31
42 -76 61 -101 23 -30 30 -46 22 -48 -32 -10 -598 -28 -700 -23 -324 18 -793
153 -931 268 l-32 26 80 41 c44 23 83 41 86 42 4 0 54 -18 113 -40z m-9680
-1216 c-141 -275 -314 -640 -314 -664 0 -24 21 -40 51 -40 34 0 33 0 104 155
81 179 254 526 332 668 74 135 56 127 232 102 183 -27 391 -90 376 -115 -3 -5
-124 -102 -268 -214 -370 -288 -404 -322 -549 -538 -118 -178 -119 -179 -151
-173 -144 24 -200 26 -602 21 -236 -3 -767 -8 -1180 -11 -412 -3 -988 -7
-1280 -10 -291 -3 -849 -7 -1240 -10 -390 -3 -964 -7 -1275 -10 -311 -3 -860
-7 -1220 -10 -1243 -10 -1927 -15 -2500 -20 -316 -3 -1189 -10 -1940 -15 -751
-5 -1519 -12 -1708 -15 l-343 -5 -47 51 c-77 83 -161 207 -212 314 -27 55 -51
110 -55 123 l-6 22 158 1 c87 0 165 2 173 3 8 2 107 6 220 10 113 4 243 9 290
11 47 2 150 7 230 10 80 3 190 8 245 10 55 2 152 7 215 10 63 3 174 7 245 10
72 3 171 7 220 10 50 3 144 7 210 10 329 14 579 25 665 30 52 2 149 7 215 10
66 3 163 7 215 10 52 3 147 7 210 10 235 11 337 16 425 20 50 3 149 7 220 10
72 3 168 8 215 10 47 3 139 7 205 10 246 11 964 45 1060 50 241 13 308 16 620
30 182 8 368 17 415 20 47 2 137 7 200 10 63 3 255 12 425 20 368 18 489 24
610 30 157 8 530 26 1240 60 176 8 356 17 400 20 44 2 134 7 200 10 66 3 161
7 210 10 50 3 140 7 200 10 157 8 307 15 405 20 47 2 141 7 210 10 69 3 157 8
195 10 39 2 124 7 190 10 560 26 752 35 825 40 308 18 420 24 650 35 113 6
239 12 280 15 73 4 207 10 550 24 91 4 231 8 313 9 l147 3 -126 -247z m-242
-909 l27 -10 -262 -408 -262 -408 -265 5 c-146 4 -2634 42 -5530 86 -2896 44
-5344 84 -5440 90 -313 18 -614 101 -937 259 -166 81 -249 131 -366 220 l-89
66 44 6 c23 4 536 9 1138 13 602 3 1199 8 1325 11 127 2 408 5 625 5 217 1
847 5 1400 10 553 5 1338 11 1745 14 407 3 994 8 1305 11 1212 11 1787 15
3180 25 795 6 1461 12 1480 13 120 7 859 0 882 -8z m-8436 -804 l391 -6 -139
-195 c-185 -258 -406 -553 -500 -665 -403 -483 -970 -897 -1653 -1205 -132
-59 -498 -210 -502 -206 -5 5 173 426 279 661 229 505 491 1009 790 1519 l70
118 436 -7 c241 -4 613 -10 828 -14z m1774 -30 l95 -6 -85 -66 c-47 -36 -159
-117 -250 -179 -198 -135 -274 -196 -371 -298 -235 -245 -376 -523 -446 -877
-25 -127 -25 -462 1 -590 54 -272 179 -514 319 -616 104 -76 303 -154 423
-165 128 -12 249 34 358 137 148 138 307 403 509 850 136 301 200 416 317 574
227 306 505 467 808 466 166 0 316 -44 372 -108 92 -105 136 -263 205 -743 99
-686 155 -847 452 -1295 41 -60 93 -148 116 -194 85 -171 57 -236 -331 -769
-534 -732 -819 -1232 -937 -1641 -64 -225 -70 -278 -71 -666 0 -295 -3 -363
-17 -430 -35 -157 -105 -361 -182 -529 -31 -67 -15 -64 -185 -31 -120 24 -440
29 -585 9 -352 -47 -710 -202 -980 -424 -87 -72 -257 -246 -317 -325 -311
-411 -466 -975 -387 -1410 120 -664 731 -1858 1704 -3331 187 -282 201 -296
268 -278 27 8 53 40 180 229 126 187 314 480 481 747 l42 68 130 -113 c313
-275 515 -526 724 -899 243 -433 284 -721 121 -845 -140 -108 -380 -104 -856
12 -954 232 -2156 724 -3037 1242 l-177 105 -80 131 c-114 190 -127 207 -154
207 -58 0 -60 -43 -8 -130 22 -36 38 -67 36 -68 -5 -6 -146 92 -294 203 -333
251 -623 540 -790 789 -53 79 -491 846 -651 1140 -480 882 -693 1551 -775
2431 -3 33 -7 83 -10 110 -14 150 -22 308 -30 605 -8 253 -19 369 -51 530 -79
386 -262 807 -545 1253 -38 60 -69 117 -69 126 0 59 160 748 230 992 65 226
221 686 340 1004 113 301 274 703 287 716 5 4 67 31 138 59 739 294 1256 602
1715 1021 259 237 460 483 880 1073 l155 218 585 -7 c322 -4 628 -10 680 -14z
m19085 -38 c201 -57 353 -156 476 -311 277 -347 258 -851 -45 -1169 -155 -165
-336 -256 -557 -283 -456 -55 -886 258 -980 715 -60 289 29 588 236 800 143
146 297 228 505 269 61 11 296 -2 365 -21z m4253 -7462 c61 -45 141 -174 173
-280 15 -50 49 -73 77 -53 9 7 36 22 59 34 35 18 46 20 67 10 53 -24 97 -125
82 -187 -10 -38 -73 -103 -128 -131 -26 -13 -48 -28 -48 -32 -1 -4 -3 -63 -5
-132 -6 -217 -69 -383 -190 -504 -119 -119 -259 -165 -354 -116 -168 85 -352
451 -485 960 -20 74 -32 137 -28 141 4 3 36 16 72 29 157 55 287 121 504 254
80 48 143 50 204 7z m411 -806 c10 -61 45 -254 76 -430 64 -362 81 -413 161
-484 66 -58 111 -76 289 -116 88 -19 168 -39 178 -43 13 -5 -19 -34 -150 -133
-93 -70 -332 -251 -532 -403 -201 -152 -368 -275 -373 -274 -13 5 -938 711
-935 714 2 2 64 19 137 39 74 20 153 45 176 55 53 26 129 102 155 157 21 43
48 171 49 231 0 17 2 32 4 32 2 0 28 -11 58 -25 102 -48 217 -29 349 56 210
136 324 381 328 708 1 54 8 33 30 -84z m-22761 65 c307 -74 552 -305 646 -610
144 -466 -110 -957 -576 -1116 -212 -72 -481 -53 -681 47 -89 45 -142 84 -221
158 -116 112 -187 227 -242 391 -26 79 -28 96 -28 250 0 179 9 232 64 362 145
341 496 561 865 542 50 -2 127 -13 173 -24z m20011 -1869 c-19 -22 -80 -92
-137 -158 -247 -283 -571 -752 -782 -1130 l-23 -42 -206 -6 c-113 -3 -932 -8
-1819 -10 -1424 -5 -1616 -3 -1642 10 -37 19 -74 19 -90 0 -11 -13 -607 -15
-5256 -15 -2884 0 -5244 3 -5244 8 1 80 93 971 104 1007 58 187 235 335 436
364 30 5 3348 9 7374 10 l7319 1 -34 -39z m6671 23 c211 -45 372 -205 415
-412 15 -70 14 -91 -20 -465 -19 -216 -38 -416 -41 -444 l-6 -53 -308 0 -309
0 -52 88 c-233 388 -563 813 -901 1158 -70 72 -128 134 -128 137 0 4 289 7
643 6 506 -1 656 -4 707 -15z m-2748 -1048 c45 -21 92 -62 218 -190 l162 -164
301 -173 c753 -431 1330 -779 1630 -984 141 -97 351 -268 465 -379 78 -76 148
-173 176 -244 54 -140 21 -307 -99 -511 -81 -137 -137 -206 -190 -231 -40 -19
-58 -22 -133 -17 -102 5 -163 24 -289 88 -276 140 -586 392 -1044 849 -351
350 -659 687 -974 1068 l-109 132 -56 0 c-215 0 -384 144 -466 397 -15 43 -34
85 -45 94 -14 13 -52 17 -201 22 -189 5 -308 22 -403 58 -29 11 -58 26 -64 33
-12 15 -30 11 554 115 182 33 341 62 355 64 59 12 155 0 212 -27z m-1207 -430
c22 -14 49 -39 58 -58 15 -29 138 -517 683 -2718 92 -369 134 -556 130 -578
-8 -51 -43 -99 -90 -121 l-42 -21 -1993 0 c-1816 0 -1996 1 -2027 16 -71 34
-73 39 -197 538 -65 256 -117 470 -117 475 0 6 55 37 123 70 549 269 814 566
755 845 -21 100 -98 216 -143 216 -12 0 -128 -50 -256 -111 -616 -293 -652
-310 -655 -306 -11 11 -394 1586 -394 1618 0 63 41 124 100 148 16 6 721 10
2024 10 l1999 1 42 -24z m-7219 -36 c151 -70 354 -142 380 -136 33 9 43 52 18
75 -11 10 -55 31 -99 46 -44 16 -93 34 -110 41 -25 11 222 13 1388 14 l1418 0
-17 -31 c-37 -72 -32 -116 51 -453 l77 -315 -78 -188 c-85 -207 -186 -472
-228 -600 -17 -52 -33 -83 -42 -83 -29 0 -52 -37 -59 -96 l-6 -59 -267 -1
c-278 -1 -439 -12 -605 -44 -109 -21 -173 -47 -281 -114 -158 -99 -328 -158
-622 -216 -230 -45 -344 -60 -471 -60 -242 0 -370 50 -583 228 -122 102 -181
129 -315 147 -130 16 -314 12 -403 -9 -174 -43 -320 -122 -628 -341 -241 -171
-354 -275 -354 -325 0 -69 23 -84 188 -125 97 -24 127 -27 205 -22 165 10 310
59 461 157 82 53 101 61 128 56 42 -8 58 -23 58 -54 0 -60 -187 -191 -295
-208 -30 -4 -68 -1 -110 10 -97 24 -171 21 -234 -10 -59 -30 -88 -68 -121
-156 -14 -38 -34 -68 -58 -89 -34 -28 -40 -30 -87 -23 -141 21 -187 2 -312
-130 -71 -74 -90 -103 -146 -220 -36 -74 -71 -137 -76 -141 -6 -3 -46 6 -88
20 -101 35 -149 29 -203 -25 -57 -57 -83 -135 -78 -236 5 -97 36 -159 100
-202 35 -22 52 -27 107 -27 87 0 141 26 301 145 148 110 219 145 320 160 41 6
137 29 214 51 76 21 147 39 157 39 23 0 26 -15 34 -150 9 -144 30 -234 65
-273 24 -27 36 -32 73 -32 80 0 106 40 139 207 11 62 25 117 28 121 4 5 50
-43 103 -105 171 -206 200 -220 580 -276 109 -17 141 -26 220 -64 153 -74 188
-117 153 -187 -17 -33 -147 -157 -173 -165 -113 -35 -570 -59 -698 -37 -94 17
-165 45 -214 87 -49 42 -76 92 -102 187 -35 125 -68 170 -150 206 -130 58
-646 53 -903 -8 -331 -79 -549 -236 -674 -486 -68 -137 -169 -474 -193 -644
-16 -111 -6 -267 21 -351 66 -201 271 -405 475 -472 145 -48 278 -54 545 -26
58 6 150 11 205 12 122 1 142 -9 184 -92 37 -74 48 -135 56 -312 16 -377 144
-1000 294 -1435 138 -398 290 -642 446 -716 185 -88 546 24 760 235 70 70 372
518 441 656 55 109 86 223 86 314 0 55 -9 99 -40 196 -53 164 -57 196 -38 264
31 107 155 212 445 377 279 159 333 231 287 383 -29 96 -98 152 -251 202 -102
34 -125 46 -211 109 -150 111 -289 281 -313 382 -18 76 25 268 68 307 33 30
50 -7 77 -166 26 -150 35 -174 122 -322 84 -140 181 -216 276 -216 46 1 127
38 248 113 131 81 177 105 239 123 86 26 144 110 170 248 37 195 -37 327 -207
366 -85 20 -103 31 -139 85 -40 61 -43 75 -15 75 44 0 98 -33 148 -90 65 -74
143 -113 267 -136 239 -43 425 -121 576 -242 149 -119 185 -181 314 -537 102
-279 192 -388 300 -361 59 15 85 65 140 276 53 203 89 284 151 341 65 60 298
241 334 259 63 32 94 27 152 -27 28 -27 114 -122 191 -213 170 -200 294 -324
371 -369 82 -49 225 -100 315 -113 69 -10 84 -10 126 6 121 47 112 172 -33
415 -149 249 -160 297 -74 321 51 14 110 13 281 -5 204 -22 292 -8 364 54 147
130 108 505 -80 750 -26 35 -62 82 -80 104 -48 63 -66 144 -43 188 25 46 92 5
267 -163 70 -68 148 -139 172 -159 l43 -36 -36 -279 c-67 -526 -137 -1122
-211 -1804 -26 -248 -86 -859 -105 -1070 -16 -186 -10 -174 -72 -139 -106 58
-172 74 -303 74 -105 0 -129 -4 -193 -27 -179 -65 -316 -187 -430 -385 -47
-80 -97 -128 -188 -179 -172 -97 -375 -151 -961 -259 -468 -87 -554 -116 -652
-220 -174 -187 -230 -557 -156 -1047 16 -111 38 -161 89 -205 56 -50 124 -66
226 -51 167 23 421 35 750 35 367 0 508 -10 566 -40 74 -38 141 -127 302 -401
129 -221 227 -305 342 -294 65 7 204 74 345 169 61 41 115 77 122 82 9 5 11
-8 7 -50 -9 -120 -24 -580 -30 -893 -3 -179 -8 -334 -9 -345 -2 -11 -4 -163
-4 -337 l-1 -318 -6765 0 -6765 0 -1 478 c0 660 -11 942 -50 1332 -42 431 -78
653 -329 2050 -34 189 -152 852 -180 1015 -52 295 -60 330 -76 342 -12 8 -93
12 -287 13 -149 0 -273 3 -276 5 -6 6 -28 120 -196 1013 -51 271 -66 320 -123
396 -87 114 -231 174 -424 176 l-38 0 0 200 c0 187 -1 200 -19 210 -12 6 -95
10 -200 10 -114 0 -181 4 -181 10 0 6 11 133 25 283 14 149 27 301 31 337 3
36 7 81 9 100 3 19 25 262 50 540 25 278 47 523 49 545 3 22 12 119 21 215 8
96 17 198 20 225 12 128 92 998 160 1740 41 451 77 845 79 875 3 30 12 132 21
225 8 94 18 189 21 213 l6 42 5308 0 5308 0 88 -40z m11514 32 c0 -5 -4 -55
-10 -113 -5 -57 -23 -252 -40 -434 -16 -181 -32 -350 -34 -375 -3 -25 -10
-101 -17 -170 -6 -69 -12 -126 -14 -128 -2 -2 -6 21 -10 50 -12 90 -83 359
-134 510 -59 172 -152 392 -229 543 -32 60 -58 113 -60 117 -2 5 120 8 272 8
152 0 276 -4 276 -8z m-7133 -1494 c22 -44 27 -66 27 -129 1 -68 -3 -84 -37
-151 -86 -175 -297 -343 -659 -525 -119 -59 -162 -76 -207 -80 -54 -5 -60 -3
-93 26 -68 59 -99 178 -99 376 0 208 1 245 9 245 5 0 15 -19 22 -42 21 -72 38
-98 64 -98 13 0 99 36 192 81 93 45 201 96 239 114 39 18 129 61 200 95 72 34
166 79 210 100 44 21 86 39 92 39 7 1 25 -23 40 -51z m-1151 -150 c-23 -111
-23 -420 -1 -537 27 -141 82 -238 158 -277 15 -8 53 -18 84 -22 l57 -7 28
-110 c15 -60 28 -116 28 -122 0 -18 -92 -17 -164 2 -343 90 -566 326 -619 656
-15 93 -14 286 2 302 8 8 396 133 424 136 4 1 5 -9 3 -21z m-540 -278 c1 0 4
-35 8 -77 15 -181 81 -358 183 -491 140 -183 411 -326 641 -339 84 -5 93 -8
97 -27 47 -205 141 -561 156 -593 12 -24 39 -59 62 -78 75 -64 82 -65 668 -65
l527 0 4 -22 c2 -13 5 -106 7 -208 1 -102 4 -186 6 -188 1 -2 26 11 55 28 59
35 145 72 243 106 60 21 67 21 67 6 -1 -51 -31 -215 -48 -268 -16 -46 -22 -90
-23 -180 -3 -191 6 -189 -144 -43 -156 151 -220 202 -279 224 -117 45 -210
-48 -191 -190 9 -72 33 -119 111 -217 143 -179 214 -390 184 -543 -31 -156
-84 -178 -362 -150 -193 20 -271 16 -336 -17 -121 -62 -114 -167 27 -402 73
-121 131 -246 131 -283 0 -27 -5 -34 -26 -39 -58 -15 -207 25 -326 88 -84 44
-159 117 -352 342 -237 276 -284 316 -369 316 -87 0 -200 -74 -458 -300 -87
-76 -129 -165 -195 -415 -43 -164 -52 -185 -75 -185 -45 0 -104 115 -213 411
-40 108 -88 223 -107 255 -45 75 -176 207 -265 266 -155 103 -311 165 -503
199 -154 27 -193 46 -271 128 -74 76 -145 111 -228 111 -122 0 -141 -91 -47
-230 50 -74 91 -102 175 -119 65 -13 112 -40 136 -76 25 -38 29 -139 10 -214
-24 -93 -49 -128 -99 -142 -56 -14 -130 -53 -257 -133 -58 -36 -124 -73 -147
-82 -94 -36 -157 9 -262 189 -61 106 -64 113 -87 246 -27 162 -33 177 -74 225
-56 63 -128 56 -184 -17 -55 -72 -102 -272 -85 -362 38 -206 322 -491 573
-575 159 -53 216 -104 216 -196 0 -32 -7 -45 -48 -83 -26 -25 -110 -82 -187
-126 -210 -120 -313 -190 -391 -269 -141 -142 -158 -244 -80 -486 46 -141 49
-164 31 -256 -22 -118 -84 -234 -281 -530 -189 -284 -219 -318 -358 -404 -135
-84 -338 -141 -435 -124 -129 24 -252 177 -377 468 -174 408 -343 1130 -369
1576 -15 271 -21 302 -73 403 -40 78 -76 112 -135 128 -53 15 -214 13 -377 -5
-237 -26 -418 -8 -545 55 -138 68 -290 232 -335 361 -27 81 -36 220 -21 329
25 177 124 502 191 628 125 235 359 378 715 437 88 15 164 19 380 19 379 -1
391 -5 446 -185 56 -187 128 -258 316 -312 72 -21 97 -23 318 -22 198 0 263 4
374 22 74 12 145 29 159 38 57 37 173 159 197 207 60 122 12 208 -167 298
-124 62 -178 78 -349 99 -255 33 -303 55 -421 197 -141 170 -187 204 -245 182
-37 -14 -60 -64 -81 -178 -23 -119 -38 -165 -51 -157 -14 9 -29 90 -36 191
-12 184 -22 219 -71 245 -41 22 -107 17 -225 -19 -59 -18 -156 -41 -215 -51
-137 -24 -213 -61 -365 -176 -122 -92 -197 -134 -242 -134 -41 0 -84 26 -104
63 -24 47 -21 142 6 195 33 64 54 70 152 38 139 -45 162 -31 255 159 69 141
130 223 214 286 58 43 60 44 141 27 115 -24 205 37 262 177 49 120 97 139 255
100 63 -15 83 -16 135 -7 138 25 327 154 363 247 31 81 0 156 -79 194 -80 39
-121 29 -246 -56 -36 -25 -91 -57 -121 -71 -82 -36 -236 -72 -312 -73 -75 -1
-258 39 -258 57 0 32 522 405 677 482 120 61 232 92 348 99 121 7 305 -12 360
-36 22 -10 93 -60 158 -112 145 -118 204 -154 309 -190 204 -70 406 -67 803
12 314 62 521 134 660 229 131 90 257 120 589 140 93 6 491 6 512 0z m7547
-284 c130 -101 293 -204 412 -262 297 -143 474 -127 619 56 l28 35 -6 -65 c-8
-99 -65 -718 -71 -775 -5 -52 -58 -626 -145 -1585 -27 -305 -52 -575 -55 -600
-3 -25 -27 -292 -55 -595 -27 -302 -52 -572 -55 -600 -2 -27 -9 -102 -15 -165
-6 -63 -12 -137 -15 -165 -3 -27 -23 -248 -45 -490 -22 -242 -42 -462 -45
-490 -5 -52 -101 -1099 -111 -1215 -3 -36 -7 -81 -9 -100 -2 -19 -11 -114 -20
-210 -8 -96 -17 -195 -20 -220 -3 -38 -52 -568 -70 -775 -6 -63 -12 -131 -20
-205 -2 -25 -7 -79 -10 -120 -3 -41 -8 -91 -10 -110 -4 -32 -18 -184 -30 -320
-3 -30 -7 -77 -10 -105 -11 -117 -16 -172 -35 -385 -11 -124 -22 -252 -26
-285 -14 -159 -27 -231 -49 -288 l-25 -62 5 75 c6 95 13 214 20 360 3 63 8
147 10 185 2 39 7 142 10 230 3 88 8 194 10 235 2 41 7 192 10 335 3 143 8
289 10 325 9 151 13 1374 5 1720 -8 391 -17 676 -25 795 -3 39 -7 133 -10 210
-3 77 -8 160 -10 185 -3 25 -7 88 -10 140 -3 52 -8 120 -10 150 -3 30 -9 118
-15 195 -78 1028 -235 1895 -515 2842 -35 120 -63 218 -62 219 1 0 51 17 111
38 308 105 529 271 566 424 26 110 -46 502 -223 1210 -40 160 -71 292 -69 292
2 0 40 -29 85 -64z m-3348 -1526 c440 -27 873 -99 1216 -201 57 -17 190 -59
294 -94 105 -35 242 -75 306 -89 301 -66 604 -73 925 -21 l40 7 16 -54 c8 -29
45 -156 82 -283 77 -263 200 -759 245 -980 78 -389 130 -740 196 -1320 13
-115 49 -546 60 -730 3 -44 7 -111 10 -150 15 -218 33 -657 42 -1005 14 -555
6 -2037 -12 -2350 -3 -41 -9 -203 -15 -360 -6 -157 -12 -314 -15 -350 -2 -36
-7 -114 -10 -175 -10 -202 -35 -608 -50 -820 -22 -312 -26 -356 -30 -405 -5
-51 -32 -370 -40 -475 -7 -86 -15 -147 -21 -156 -8 -13 -146 -31 -283 -38
-132 -6 -525 3 -567 14 -19 4 -22 14 -28 97 -59 806 -445 2642 -1082 5143
-254 997 -527 2020 -545 2041 -18 22 -57 17 -74 -10 -58 -89 -221 -544 -329
-921 -305 -1064 -752 -3056 -1170 -5210 -78 -404 -144 -745 -181 -940 -19
-104 -38 -202 -41 -217 -5 -26 -7 -26 -67 -23 -34 2 -192 6 -352 9 -257 6
-567 16 -572 20 -8 6 -18 712 -18 1241 0 914 17 1577 60 2300 3 44 9 163 15
265 22 404 94 1405 130 1795 6 61 12 135 15 165 46 539 129 1349 220 2145 36
315 149 1225 185 1480 11 77 31 226 45 330 14 105 27 199 30 211 4 17 19 24
82 37 174 37 440 71 628 80 149 8 514 6 660 -3z m-17785 -1870 l0 -160 -2062
-3 c-1954 -2 -2066 -4 -2123 -21 -160 -48 -293 -150 -359 -276 -35 -66 -49
-122 -167 -678 -71 -334 -134 -616 -141 -627 -9 -15 -13 -139 -15 -480 -2
-391 -13 -3759 -13 -4062 l0 -103 -90 0 -90 0 0 3285 0 3285 2530 0 2530 0 0
-160z m-5160 -3119 l0 -3269 -182 -6 c-101 -3 -1621 -8 -3378 -11 -1757 -3
-3417 -7 -3688 -8 l-492 -2 -1 2790 c0 1535 -2 2797 -4 2806 -1 9 0 21 4 26 3
6 143 27 311 47 168 21 415 51 550 67 372 45 559 67 740 89 91 12 183 23 205
25 22 3 132 16 245 30 113 13 338 40 500 60 162 19 349 42 415 50 66 8 197 24
290 35 213 25 222 26 325 39 47 6 200 25 340 42 595 70 847 101 1035 124 110
14 427 52 705 85 278 33 613 74 745 90 132 16 449 55 705 85 256 31 492 60
525 64 33 5 70 9 83 10 l22 1 0 -3269z m5523 2816 c58 -29 87 -51 116 -88 46
-57 62 -103 91 -259 12 -63 63 -333 113 -600 l93 -485 -2755 -3 c-1515 -1
-2755 -1 -2757 0 -1 2 11 64 27 138 16 74 72 338 125 585 107 502 114 525 210
615 64 61 177 117 259 129 33 5 1031 8 2231 7 l2170 -1 77 -38z m18231 -1212
c565 -2117 1026 -4048 1261 -5278 19 -100 35 -183 35 -184 0 -2 -637 -3 -1415
-3 -1213 0 -1415 2 -1415 14 0 8 54 284 121 613 432 2144 802 3751 1068 4638
65 219 168 523 202 601 l22 49 8 -30 c5 -16 56 -205 113 -420z m-21551 -351
c16 -5 17 -173 17 -3340 l0 -3334 -127 0 c-71 0 -185 3 -255 7 l-128 6 0 116
c0 64 -5 190 -10 281 -42 680 -167 1208 -332 1395 -68 77 -155 106 -229 77
-98 -39 -194 -200 -268 -450 -56 -189 -118 -554 -136 -807 -4 -49 -9 -106 -11
-125 -2 -19 -7 -140 -11 -267 l-6 -233 -42 0 c-31 0 -47 6 -65 25 -22 24 -23
26 -16 192 4 92 9 211 12 263 2 52 13 304 24 560 11 256 23 531 26 611 6 125
4 153 -11 200 -26 80 -62 125 -164 208 l-91 75 6 2255 c3 1241 7 2267 10 2280
l5 23 892 -7 c491 -3 900 -9 910 -11z m4359 -139 c15 -82 49 -278 77 -435 28
-157 116 -654 196 -1105 210 -1182 235 -1346 269 -1790 9 -110 19 -225 22
-255 3 -30 8 -668 11 -1417 l5 -1363 -25 -54 c-18 -39 -37 -63 -68 -83 l-43
-28 -2328 -3 -2328 -2 0 3345 0 3345 2092 -2 2093 -3 27 -150z m14213 -319
c55 -14 143 -56 188 -90 l29 -21 -7 -95 c-3 -52 -8 -111 -10 -130 -3 -19 -16
-179 -30 -355 -13 -176 -27 -347 -30 -380 -9 -117 -54 -792 -60 -910 -3 -66
-8 -136 -10 -155 -2 -19 -7 -107 -11 -196 -3 -88 -8 -176 -9 -195 -2 -19 -4
-39 -4 -45 -2 -23 -271 -206 -386 -261 -155 -74 -203 -41 -387 271 -119 200
-134 222 -207 299 -68 71 -128 103 -218 118 -92 15 -718 21 -928 9 -93 -6
-219 -17 -280 -25 -151 -20 -204 -3 -234 78 -19 49 -42 258 -46 417 -8 311 43
514 161 640 78 84 148 105 634 195 397 74 546 108 705 160 276 90 396 176 495
357 20 37 70 98 120 148 128 129 237 178 395 179 44 1 103 -5 130 -13z
m-20591 -4181 l169 -6 73 -61 c54 -44 81 -75 100 -115 l27 -54 -7 -182 c-3
-100 -8 -209 -11 -242 -2 -33 -7 -132 -10 -220 -3 -88 -10 -245 -15 -350 -6
-104 -10 -198 -10 -209 0 -18 -9 -18 -212 -11 -117 3 -226 8 -243 10 -16 2
-115 6 -220 10 -104 3 -208 8 -231 11 l-40 6 -12 196 c-27 450 -129 791 -270
899 l-37 28 -210 5 c-204 6 -211 7 -259 33 -62 34 -108 34 -175 1 -175 -88
-299 -458 -327 -974 -3 -69 -8 -128 -10 -131 -2 -4 -18 -5 -36 -3 -18 1 -150
8 -293 14 -143 5 -303 13 -355 15 -52 3 -198 9 -325 15 -126 5 -284 12 -350
15 -66 3 -172 8 -235 10 -63 3 -158 8 -210 10 -52 3 -156 7 -230 10 -269 11
-492 23 -494 27 -2 1 -6 86 -9 188 -12 404 -112 737 -248 827 -42 27 -46 28
-213 32 -163 3 -173 4 -215 29 -100 58 -208 16 -288 -112 -14 -23 -27 -43 -29
-45 -2 -2 -26 22 -54 52 -64 71 -86 77 -264 77 -135 0 -141 1 -178 27 -89 61
-197 35 -273 -66 l-39 -53 -16 23 c-32 49 -76 92 -107 105 -22 10 -80 14 -186
14 -128 0 -157 3 -168 16 -33 40 -113 59 -174 41 -175 -51 -312 -463 -314
-951 l-1 -88 -72 5 c-40 4 -99 6 -130 7 l-58 0 0 555 0 555 683 0 c1137 0
6312 13 6315 15 4 3 260 -2 496 -10z m-6795 -222 c78 -81 141 -265 175 -508
20 -147 16 -538 -8 -675 -41 -233 -103 -398 -176 -464 -49 -44 -78 -46 -125
-5 -74 66 -143 255 -182 501 -25 158 -24 519 1 673 45 274 116 455 200 506 46
28 65 24 115 -28z m805 -48 c170 -170 246 -785 155 -1261 -48 -253 -139 -424
-224 -424 -96 0 -201 228 -247 535 -20 138 -17 542 5 677 38 228 111 426 178
482 45 38 89 35 133 -9z m802 16 c62 -38 130 -175 173 -351 123 -507 43 -1240
-156 -1424 -131 -122 -286 184 -332 654 -12 131 -6 422 13 561 37 274 123 503
209 558 40 26 54 26 93 2z m6290 -35 c33 -36 104 -158 104 -180 0 -3 -6 -6
-13 -6 -29 0 -106 -63 -145 -118 -105 -150 -182 -426 -213 -762 -11 -130 -7
-504 7 -627 l7 -53 -113 0 -113 0 7 248 c3 136 8 263 11 282 2 19 9 89 15 155
42 473 161 927 276 1055 66 73 105 75 170 6z m-2552 -56 c110 -67 205 -334
248 -690 16 -135 16 -505 0 -640 -42 -351 -140 -624 -248 -691 -40 -24 -68
-24 -109 1 -99 61 -189 290 -236 600 -33 212 -33 612 0 819 50 317 132 530
230 597 43 29 73 30 115 4z m2715 -292 c93 -315 160 -856 161 -1298 0 -85 4
-161 9 -169 5 -7 29 -16 55 -18 25 -3 46 -11 46 -17 0 -20 -40 -180 -62 -246
-47 -144 -124 -264 -188 -290 -95 -39 -209 109 -279 365 -58 212 -81 410 -81
695 0 415 72 764 197 957 32 48 84 92 109 93 6 0 21 -33 33 -72z m-3894 -792
c66 -3 251 -11 411 -17 l292 -13 6 -35 c12 -73 6 -168 -15 -232 -33 -102 -78
-188 -120 -230 l-39 -39 -252 0 -252 0 -46 48 c-32 33 -57 74 -80 128 -34 83
-83 264 -94 350 l-6 51 37 -3 c21 -1 92 -5 158 -8z m28435 -460 c0 -67 -3
-225 -7 -353 l-6 -232 -26 13 c-14 8 -78 19 -143 25 -119 11 -154 7 -188 -24
-14 -13 -21 23 -63 323 -26 185 -48 343 -47 349 0 10 56 13 228 15 125 2 233
3 240 4 9 0 12 -30 12 -120z m-4515 99 c143 -3 261 -8 262 -9 2 -2 -15 -169
-37 -372 -60 -544 -78 -695 -82 -698 -6 -5 -324 -116 -331 -116 -4 0 -7 16 -7
35 0 73 -51 125 -123 125 -19 0 -55 3 -81 6 l-48 7 7 336 c4 185 8 370 10 411
2 41 4 123 5 182 l0 106 83 -3 c45 -2 199 -6 342 -10z m-15599 -383 c-12 -78
-58 -218 -97 -297 -102 -206 -202 -229 -308 -71 -53 80 -141 321 -141 389 0
16 20 17 276 17 l277 0 -7 -38z m19978 -368 c54 -7 59 -11 118 -108 49 -79 70
-96 95 -80 19 12 27 25 46 74 l14 35 52 -80 c128 -195 277 -553 401 -962 68
-222 65 -277 -14 -338 -61 -46 -329 -78 -651 -77 -346 2 -411 17 -455 108 -19
38 -21 56 -16 107 3 34 17 175 31 312 13 138 36 372 50 520 30 311 31 323 48
306 16 -16 42 -14 60 7 9 10 21 51 28 92 18 112 5 106 193 84z m-4753 -379
c19 -2 44 -4 57 -4 21 -1 22 -5 22 -72 0 -82 11 -109 45 -109 14 0 131 38 262
85 131 46 244 85 252 87 21 4 77 -132 105 -255 33 -144 50 -364 44 -573 -3
-96 -7 -176 -9 -178 -12 -12 -636 -52 -1044 -67 -272 -10 -879 -7 -955 5 -14
3 -67 7 -118 10 -51 4 -144 13 -205 21 -62 8 -114 15 -116 15 -2 0 -1 19 1 43
5 43 58 160 84 187 13 13 16 13 25 -2 12 -21 50 -31 184 -52 254 -38 546 -69
830 -86 134 -9 886 -5 940 4 17 2 66 7 110 10 153 12 200 18 223 32 25 16 28
41 9 68 -12 17 -23 17 -237 -2 -190 -17 -292 -20 -660 -17 -446 3 -610 12
-955 55 -167 21 -406 58 -412 64 -10 10 231 224 340 301 293 208 686 418 822
439 29 4 287 -3 356 -9z"/>
<path d="M18272 31784 c-11 -22 -8 -52 7 -67 5 -5 90 -13 188 -18 98 -5 193
-11 213 -14 207 -28 211 -28 232 -7 23 23 18 56 -12 72 -31 17 -258 41 -441
47 -167 6 -177 5 -187 -13z"/>
<path d="M19402 31628 c-16 -16 -15 -53 2 -67 8 -6 105 -36 217 -66 112 -30
240 -65 284 -79 67 -20 83 -22 100 -11 24 15 31 57 13 73 -24 19 -533 162
-580 162 -13 0 -29 -5 -36 -12z"/>
<path d="M20498 31309 c-21 -12 -24 -62 -5 -76 10 -8 166 -67 505 -191 l74
-27 19 24 c24 29 24 36 0 60 -19 19 -78 43 -356 145 -202 74 -215 78 -237 65z"/>
<path d="M21553 30888 c-33 -43 -16 -73 57 -104 25 -10 126 -56 225 -102 273
-126 269 -125 297 -103 19 16 21 23 13 46 -10 28 -113 80 -445 228 -112 50
-132 54 -147 35z"/>
<path d="M34864 30770 c-29 -11 -36 -45 -16 -70 14 -17 40 -23 147 -35 72 -8
205 -27 297 -42 163 -26 168 -26 188 -8 25 23 25 40 2 63 -19 19 -222 56 -447
82 -49 6 -103 12 -120 14 -16 2 -40 0 -51 -4z"/>
<path d="M22576 30394 c-17 -16 -20 -42 -8 -60 4 -7 39 -29 77 -49 39 -21 156
-84 261 -141 105 -57 198 -104 206 -104 8 0 23 9 34 21 33 36 5 62 -166 156
-249 136 -361 193 -375 193 -7 0 -21 -7 -29 -16z"/>
<path d="M23566 29834 c-21 -20 -20 -47 2 -66 35 -30 488 -312 508 -316 25 -4
54 22 54 48 0 11 -15 30 -32 44 -68 51 -483 306 -500 306 -9 0 -24 -7 -32 -16z"/>
<path d="M24514 29205 c-22 -33 -14 -48 48 -92 29 -21 138 -100 243 -175 104
-76 199 -138 211 -138 26 0 44 18 44 46 0 28 -28 51 -289 238 -112 80 -212
146 -222 146 -10 0 -26 -11 -35 -25z"/>
<path d="M25442 28545 c-46 -33 -31 -56 111 -166 72 -57 179 -140 236 -186 59
-47 113 -83 125 -83 29 0 46 18 46 50 0 21 -37 54 -233 207 -129 101 -240 185
-248 188 -8 3 -24 -2 -37 -10z"/>
<path d="M26328 27839 c-11 -6 -18 -22 -18 -38 0 -24 31 -54 227 -221 125
-106 235 -195 245 -198 23 -6 58 24 58 49 0 10 -37 51 -85 93 -183 160 -371
314 -390 319 -11 4 -28 2 -37 -4z"/>
<path d="M27182 27088 c-33 -33 -14 -55 204 -255 119 -109 223 -202 231 -207
26 -15 63 10 63 42 0 31 6 25 -313 315 -127 116 -157 133 -185 105z"/>
<path d="M28018 26319 c-41 -23 -22 -53 125 -196 253 -248 293 -283 315 -283
26 0 53 36 44 61 -11 28 -431 429 -450 429 -9 0 -25 -5 -34 -11z"/>
<path d="M28830 25520 c-11 -11 -20 -26 -20 -32 0 -15 391 -406 432 -432 21
-13 31 -15 47 -7 23 13 36 45 24 63 -23 36 -432 428 -446 428 -9 0 -26 -9 -37
-20z"/>
<path d="M13936 21824 c-9 -8 -16 -23 -16 -31 0 -17 70 -114 254 -351 120
-154 145 -173 178 -132 10 12 18 26 18 30 0 5 -19 33 -42 63 -24 31 -106 138
-182 239 -77 101 -145 186 -150 190 -18 12 -44 9 -60 -8z"/>
<path d="M14640 20931 c-5 -11 -10 -24 -10 -30 0 -14 124 -155 287 -328 125
-133 151 -151 181 -121 28 28 12 59 -75 151 -49 51 -139 150 -202 220 -95 105
-119 127 -142 127 -18 0 -32 -7 -39 -19z"/>
<path d="M19217 38602 c-15 -16 -17 -53 -17 -305 l0 -287 25 -16 c23 -15 27
-15 50 0 l25 16 0 289 c0 266 -1 289 -18 304 -24 22 -45 21 -65 -1z"/>
<path d="M19526 38574 c-14 -13 -16 -52 -16 -269 0 -251 0 -254 22 -269 29
-20 34 -20 58 4 19 19 20 33 20 268 0 228 -2 250 -18 265 -23 21 -46 22 -66 1z"/>
<path d="M19832 38558 c-9 -9 -12 -76 -12 -239 0 -224 0 -228 22 -243 29 -20
34 -20 58 4 19 19 20 33 20 239 0 186 -2 222 -16 235 -18 19 -55 21 -72 4z"/>
<path d="M20146 38544 c-14 -13 -16 -47 -16 -214 0 -191 1 -199 21 -214 12 -8
29 -12 38 -9 38 13 41 32 41 223 0 152 -3 190 -16 208 -18 26 -46 28 -68 6z"/>
<path d="M20457 38547 c-16 -11 -17 -32 -15 -192 l3 -180 29 -10 c24 -8 31 -6
47 14 17 21 19 41 19 180 0 125 -3 161 -16 179 -17 25 -42 28 -67 9z"/>
<path d="M20762 38528 c-8 -8 -12 -59 -12 -163 0 -160 4 -175 46 -175 44 0 54
33 54 175 0 102 -3 135 -16 153 -17 24 -53 29 -72 10z"/>
<path d="M18565 38548 c-13 -20 -15 -64 -15 -309 1 -308 5 -329 54 -329 45 0
46 7 46 330 0 225 -3 309 -12 318 -19 19 -56 14 -73 -10z"/>
<path d="M18259 38523 c-11 -13 -15 -80 -17 -317 -3 -323 1 -348 46 -354 51
-8 52 -4 52 342 0 237 -3 325 -12 334 -17 17 -53 15 -69 -5z"/>
<path d="M17952 38498 c-17 -17 -18 -668 0 -686 19 -19 55 -14 72 10 13 18 15
69 15 327 0 224 -3 313 -12 331 -14 28 -55 38 -75 18z"/>
<path d="M17642 38468 c-9 -9 -12 -100 -12 -349 0 -294 2 -340 16 -353 21 -21
47 -20 67 2 15 17 17 55 17 346 0 206 -4 334 -10 347 -12 22 -59 26 -78 7z"/>
<path d="M16660 38403 c-40 -14 -40 -18 -40 -578 0 -473 2 -543 16 -563 17
-25 56 -29 73 -8 8 9 10 167 9 571 -3 545 -3 558 -23 570 -11 7 -27 10 -35 8z"/>
<path d="M16352 38364 l-22 -15 0 -553 c0 -523 1 -554 18 -569 23 -21 46 -22
66 -1 14 14 16 79 16 569 l0 554 -22 15 c-12 9 -25 16 -28 16 -3 0 -16 -7 -28
-16z"/>
<path d="M16056 38334 c-14 -14 -16 -79 -16 -568 0 -523 1 -554 18 -569 24
-22 38 -21 62 3 20 20 20 33 20 568 0 519 -1 550 -18 565 -23 21 -46 22 -66 1z"/>
<path d="M15762 38308 c-18 -18 -17 -1121 1 -1135 27 -21 48 -22 67 -3 19 19
20 35 20 563 0 475 -2 545 -16 565 -17 24 -53 29 -72 10z"/>
<path d="M14810 38261 c-15 -30 -14 -1113 2 -1129 7 -7 24 -12 38 -12 14 0 31
5 38 12 16 16 17 1099 2 1129 -7 12 -21 19 -40 19 -19 0 -33 -7 -40 -19z"/>
<path d="M14522 38238 c-17 -17 -17 -1119 0 -1136 17 -17 54 -15 72 4 14 14
16 78 16 560 0 357 -4 552 -10 565 -12 22 -59 26 -78 7z"/>
<path d="M14242 38214 l-22 -15 0 -558 c0 -420 3 -560 12 -569 19 -19 55 -14
72 10 14 20 16 90 16 565 0 530 0 543 -20 563 -24 24 -29 24 -58 4z"/>
<path d="M13948 38189 c-17 -9 -18 -47 -18 -574 l0 -564 21 -12 c16 -8 28 -8
45 0 l24 11 0 564 c0 549 -1 566 -19 576 -24 12 -31 12 -53 -1z"/>
<path d="M13042 38128 c-9 -9 -12 -149 -12 -569 0 -557 0 -558 21 -573 23 -16
47 -12 67 12 9 12 12 139 12 557 0 473 -2 543 -16 563 -17 24 -53 29 -72 10z"/>
<path d="M12752 38098 c-17 -17 -17 -1119 0 -1136 19 -19 55 -14 72 10 23 32
23 1080 1 1115 -17 25 -53 31 -73 11z"/>
<path d="M12477 38083 c-10 -3 -22 -16 -28 -29 -15 -41 -12 -1073 4 -1104 14
-29 58 -38 75 -17 9 11 12 157 10 572 -3 545 -3 558 -23 570 -11 6 -28 10 -38
8z"/>
<path d="M12170 38040 c-20 -20 -20 -33 -20 -564 0 -519 1 -545 19 -567 16
-20 23 -22 47 -14 l29 10 3 559 c2 510 1 561 -14 578 -22 23 -39 23 -64 -2z"/>
<path d="M17575 31769 c-209 -26 -411 -62 -427 -76 -23 -21 -23 -46 2 -68 18
-17 24 -17 112 -1 121 21 398 56 446 56 65 0 106 52 70 88 -14 14 -97 14 -203
1z"/>
<path d="M16495 31559 c-177 -48 -439 -130 -452 -141 -21 -17 -15 -56 10 -72
20 -14 31 -13 117 15 52 17 182 55 288 85 106 29 197 56 203 59 13 9 11 59 -3
73 -17 17 -39 14 -163 -19z"/>
<path d="M15375 31171 c-244 -104 -391 -176 -399 -196 -8 -23 19 -65 43 -65
10 0 69 24 132 54 63 29 179 81 259 115 80 34 152 65 160 70 33 18 15 91 -23
91 -7 0 -84 -31 -172 -69z"/>
<path d="M14358 30656 c-255 -155 -368 -234 -368 -260 0 -23 28 -56 47 -56 6
0 58 31 116 69 58 38 174 111 257 162 83 50 154 98 157 106 3 8 1 25 -5 39
-19 41 -56 30 -204 -60z"/>
<path d="M13544 30078 c-57 -44 -281 -248 -351 -321 -40 -41 -73 -84 -73 -94
0 -22 29 -53 49 -53 7 0 74 60 150 133 76 73 177 166 224 207 71 60 87 79 87
101 0 18 -7 32 -19 39 -27 14 -34 13 -67 -12z"/>
<path d="M12772 29250 c-58 -63 -282 -480 -282 -526 0 -28 34 -54 61 -47 13 4
38 45 77 127 32 66 97 186 145 265 48 79 87 149 87 156 0 20 -29 45 -50 45
-11 0 -28 -9 -38 -20z"/>
<path d="M12306 28218 c-19 -30 -67 -225 -106 -423 -33 -169 -32 -197 9 -208
39 -10 58 21 75 123 21 119 51 258 82 377 29 110 30 129 5 143 -30 16 -49 12
-65 -12z"/>
<path d="M12130 27100 c-19 -19 -20 -33 -20 -318 0 -277 1 -300 18 -315 24
-22 45 -21 65 1 13 15 16 59 16 324 1 295 1 308 -18 318 -28 14 -38 13 -61
-10z"/>
<path d="M12170 25959 c-7 -12 -9 -38 -5 -62 21 -149 60 -380 80 -472 15 -76
40 -107 76 -98 33 9 37 40 17 137 -18 88 -59 329 -73 431 -4 28 -11 58 -16 68
-14 25 -65 23 -79 -4z"/>
<path d="M12405 24847 c-17 -27 -7 -65 108 -406 68 -204 84 -228 132 -197 14
9 25 22 25 29 0 6 -22 76 -50 154 -27 78 -68 204 -91 280 -23 76 -46 144 -51
151 -17 20 -56 14 -73 -11z"/>
<path d="M12789 23779 c-14 -27 4 -71 146 -365 106 -220 120 -238 165 -214 11
6 20 21 20 34 0 13 -46 119 -103 237 -57 118 -112 234 -122 259 -26 62 -33 70
-66 70 -19 0 -32 -7 -40 -21z"/>
<path d="M29647 24732 c-10 -10 -17 -26 -17 -34 0 -20 375 -368 448 -416 33
-22 72 -3 72 36 0 24 -17 44 -102 118 -56 49 -158 139 -225 201 -68 62 -132
113 -142 113 -10 0 -25 -8 -34 -18z"/>
<path d="M30512 23998 c-27 -27 -13 -57 49 -106 96 -75 349 -249 406 -279 l53
-28 21 22 c38 38 21 61 -113 148 -67 44 -177 119 -243 167 -118 86 -149 100
-173 76z"/>
<path d="M32543 23029 c-20 -20 -15 -57 10 -73 25 -16 223 -55 444 -87 168
-25 183 -22 183 32 0 37 -15 44 -125 59 -49 6 -164 25 -255 42 -219 40 -242
42 -257 27z"/>
<path d="M34155 22919 c-38 -4 -162 -10 -275 -13 -176 -5 -207 -9 -217 -23
-16 -21 -16 -35 0 -57 16 -22 128 -27 337 -16 212 11 283 20 303 38 22 20 22
45 -1 65 -20 18 -37 19 -147 6z"/>
<path d="M28312 22561 c-146 -50 -215 -211 -150 -352 37 -79 74 -110 196 -159
146 -59 222 -97 255 -128 35 -33 35 -67 1 -289 -55 -362 -32 -534 79 -604 48
-31 229 -22 393 20 342 86 728 246 959 398 184 122 444 350 522 461 75 104 71
187 -9 225 -50 24 -222 37 -478 37 -255 0 -477 13 -597 35 -108 20 -273 78
-474 166 -90 39 -219 95 -286 125 -66 29 -145 60 -174 68 -70 21 -171 20 -237
-3z m360 -151 c763 -332 735 -325 1408 -340 217 -5 405 -12 418 -16 51 -15 11
-84 -119 -209 -95 -91 -284 -247 -368 -304 -286 -195 -870 -412 -1172 -437
-66 -6 -77 -4 -101 16 -67 52 -73 193 -23 515 30 195 30 280 -1 322 -37 50
-114 100 -222 143 -190 77 -206 86 -232 132 -43 77 -24 176 42 217 38 24 117
38 175 30 29 -4 116 -35 195 -69z"/>
<path d="M24384 22170 c-73 -11 -130 -31 -373 -132 -441 -183 -692 -333 -742
-443 -24 -51 -24 -77 0 -124 42 -80 141 -140 276 -166 92 -18 345 -19 490 -2
126 15 227 8 256 -19 35 -31 49 -78 49 -166 0 -94 16 -136 94 -245 56 -79 71
-142 61 -267 -15 -182 -46 -247 -155 -319 -128 -85 -183 -150 -231 -272 -22
-55 -24 -74 -23 -225 3 -464 157 -961 422 -1365 133 -203 267 -359 411 -479
106 -89 152 -116 309 -182 166 -70 204 -104 306 -274 128 -213 245 -367 318
-421 189 -136 322 49 322 451 0 202 -24 321 -129 635 -65 194 -84 306 -68 402
13 73 37 113 75 127 41 15 69 0 144 -72 120 -117 292 -184 396 -153 96 29 140
113 178 341 12 69 27 136 33 149 7 13 64 54 132 96 135 81 223 156 271 231 66
102 130 121 454 133 275 11 367 30 535 110 247 118 299 249 190 477 -52 111
-56 138 -27 221 39 112 54 217 50 341 -3 107 -6 122 -33 171 -102 184 -338
213 -580 70 -115 -67 -238 -127 -284 -138 -59 -13 -84 -1 -116 54 -24 40 -27
53 -23 118 5 92 41 168 120 253 67 71 164 127 248 142 30 6 111 8 180 7 202
-6 320 22 403 95 75 66 100 172 61 256 -27 56 -100 126 -169 160 -52 25 -71
29 -140 28 -74 0 -92 -5 -250 -66 -221 -86 -456 -163 -575 -189 -173 -37 -449
-36 -593 2 -57 15 -103 63 -153 160 -150 291 -383 280 -808 -40 -215 -162
-244 -174 -298 -132 -29 23 -79 115 -103 191 -39 123 -72 165 -191 252 -211
153 -521 247 -720 218z m304 -126 c151 -44 340 -144 430 -228 38 -35 62 -77
87 -156 71 -221 193 -314 330 -251 22 10 94 58 160 108 299 225 442 293 567
269 56 -10 111 -66 161 -163 79 -153 142 -194 335 -220 144 -19 353 -12 492
16 144 29 371 103 649 211 86 33 150 52 177 52 116 0 244 -117 227 -206 -8
-41 -71 -100 -129 -121 -40 -15 -85 -19 -239 -21 -104 -1 -212 -7 -240 -14
-153 -35 -298 -156 -375 -313 -37 -75 -44 -98 -48 -167 -5 -91 9 -140 58 -209
81 -111 197 -98 457 50 153 88 212 109 301 109 82 0 139 -26 186 -84 l31 -38
-1 -151 c0 -143 -2 -157 -32 -248 -45 -136 -43 -169 19 -301 48 -101 51 -113
47 -169 -4 -53 -9 -64 -43 -99 -21 -22 -73 -57 -114 -79 -153 -79 -285 -109
-486 -112 -354 -3 -478 -40 -566 -170 -53 -78 -131 -145 -245 -209 -166 -95
-179 -114 -214 -328 -36 -217 -62 -258 -161 -249 -79 7 -164 53 -257 141 -98
91 -142 108 -225 85 -56 -15 -103 -62 -128 -127 -18 -46 -22 -77 -22 -167 0
-124 8 -164 84 -388 100 -296 132 -502 111 -696 -15 -133 -43 -229 -76 -260
-23 -22 -28 -23 -56 -11 -62 26 -197 201 -336 435 -100 169 -165 223 -374 305
-115 46 -210 112 -327 228 -189 186 -329 383 -459 647 -139 282 -225 586 -255
898 -17 184 -9 289 28 369 39 82 78 126 162 181 142 94 191 181 211 370 16
157 -2 263 -58 344 -98 142 -92 129 -92 212 0 103 -22 176 -68 224 -62 64
-164 80 -362 57 -47 -6 -158 -10 -247 -10 -171 -1 -248 12 -324 50 -40 21 -89
73 -89 96 0 25 69 92 148 142 187 120 756 372 887 393 78 12 207 1 303 -27z"/>
<path d="M26141 16749 c-78 -15 -168 -49 -209 -79 -53 -38 -78 -96 -92 -210
-14 -123 -43 -252 -80 -365 -72 -221 -119 -303 -251 -441 -118 -123 -175 -210
-213 -326 -35 -102 -45 -182 -41 -303 8 -252 142 -540 318 -686 38 -32 126
-84 241 -141 225 -112 266 -141 303 -216 l28 -57 -2 -705 c-3 -953 3 -1027
106 -1337 123 -371 247 -646 336 -741 103 -111 249 -149 320 -82 69 65 61 190
-28 465 -90 276 -100 317 -101 420 -1 118 24 173 126 282 160 168 295 342 438
558 106 163 171 292 199 398 26 95 50 145 97 197 54 59 87 75 224 105 212 46
343 104 375 164 25 50 18 127 -26 282 -45 159 -66 286 -55 339 16 87 82 141
260 214 129 54 178 85 215 140 41 60 54 108 49 189 -5 96 -47 187 -125 269
-96 101 -181 152 -353 213 -279 99 -481 239 -554 383 -29 57 -33 118 -15 199
22 95 -24 174 -132 228 -27 14 -102 44 -167 67 -226 79 -284 118 -386 262
-111 157 -185 213 -361 273 -139 47 -327 65 -444 42z m372 -123 c164 -49 251
-106 332 -221 137 -193 194 -234 450 -325 221 -78 257 -109 234 -202 -47 -198
77 -390 356 -551 73 -42 142 -72 352 -151 201 -76 343 -233 343 -378 0 -113
-41 -158 -205 -223 -212 -85 -300 -168 -321 -301 -9 -62 11 -192 56 -354 22
-80 40 -164 40 -187 0 -36 -4 -44 -32 -61 -53 -32 -167 -69 -298 -97 -71 -15
-139 -35 -164 -50 -93 -54 -171 -166 -205 -295 -28 -103 -58 -169 -133 -293
-124 -207 -300 -440 -470 -624 -211 -228 -222 -333 -78 -778 112 -347 112
-440 2 -404 -66 21 -116 66 -165 147 -111 184 -309 712 -337 900 -24 163 -29
321 -27 1007 2 807 3 787 -62 885 -43 65 -103 106 -318 214 -257 130 -328 196
-424 400 -111 239 -117 482 -15 693 38 79 61 109 158 210 74 78 126 142 150
187 100 182 186 464 207 678 13 129 32 150 174 189 102 27 277 21 400 -15z"/>
<path d="M22911 14326 c-51 -28 -50 -14 -51 -711 0 -632 1 -651 20 -683 27
-44 54 -52 169 -52 125 0 180 18 241 80 82 81 80 67 80 684 0 503 -2 544 -19
581 -22 50 -69 91 -119 105 -55 15 -292 12 -321 -4z m330 -115 l29 -29 0 -537
c0 -594 1 -580 -66 -631 -35 -27 -45 -29 -141 -32 l-103 -4 0 631 0 631 126 0
c125 0 126 0 155 -29z"/>
<path d="M38594 17642 c-17 -11 -23 -50 -10 -66 7 -10 80 -30 206 -56 107 -23
197 -44 201 -48 3 -4 29 -99 58 -212 113 -439 110 -429 153 -430 10 0 24 11
33 23 14 22 10 45 -69 348 -47 178 -87 332 -91 341 -9 22 -3 20 -238 68 -206
42 -225 44 -243 32z"/>
<path d="M14857 17222 c-16 -17 -17 -224 -17 -2775 0 -2492 2 -2757 16 -2771
20 -20 48 -20 68 0 14 14 16 279 16 2773 0 2659 -1 2758 -18 2774 -24 22 -45
21 -65 -1z"/>
<path d="M14046 17128 c-14 -20 -16 -300 -16 -2724 0 -2639 0 -2702 19 -2725
16 -20 23 -22 47 -14 l29 10 3 2724 c1 2005 -1 2727 -9 2737 -17 21 -56 17
-73 -8z"/>
<path d="M13252 17034 l-22 -15 0 -2668 c0 -2061 3 -2670 12 -2679 20 -20 56
-14 73 11 13 21 15 311 13 2681 -3 2618 -3 2658 -22 2672 -25 18 -27 17 -54
-2z"/>
<path d="M12436 16954 c-14 -14 -16 -267 -16 -2639 0 -2372 2 -2625 16 -2639
8 -9 24 -16 34 -16 10 0 26 7 34 16 14 14 16 267 16 2638 0 2528 -1 2623 -18
2639 -23 21 -46 22 -66 1z"/>
<path d="M11626 16824 c-14 -14 -16 -261 -16 -2567 0 -2294 2 -2555 16 -2575
17 -24 53 -29 72 -10 17 17 17 5139 0 5156 -17 17 -54 15 -72 -4z"/>
<path d="M10822 16748 c-17 -17 -17 -5059 0 -5076 19 -19 56 -14 73 10 14 21
15 270 15 2528 0 2239 -2 2508 -16 2528 -17 24 -53 29 -72 10z"/>
<path d="M10021 16644 l-21 -15 0 -2469 c0 -2231 2 -2470 16 -2484 21 -21 47
-20 67 2 16 17 17 204 17 2478 0 1953 -3 2463 -12 2476 -20 24 -44 28 -67 12z"/>
<path d="M9210 16550 c-20 -20 -20 -33 -20 -2433 0 -2167 2 -2415 16 -2435 17
-24 53 -29 72 -10 9 9 12 565 12 2439 0 2194 -2 2429 -16 2443 -21 21 -40 20
-64 -4z"/>
<path d="M8408 16469 c-17 -9 -18 -134 -18 -2398 0 -2071 2 -2390 14 -2401 22
-18 59 -8 73 20 10 20 12 506 10 2393 -2 2332 -2 2369 -21 2383 -23 16 -35 17
-58 3z"/>
<path d="M16638 17199 c-11 -6 -18 -22 -18 -38 0 -26 66 -82 652 -552 358
-287 662 -524 675 -527 54 -10 71 48 26 90 -71 65 -1294 1038 -1305 1038 -7 0
-21 -5 -30 -11z"/>
<path d="M16992 14513 c-67 -33 -112 -109 -112 -190 l0 -33 -59 0 c-115 0
-214 -81 -240 -197 -6 -30 -9 -209 -8 -483 l2 -435 26 -56 c52 -109 148 -175
272 -184 63 -5 68 -7 117 -56 79 -79 131 -97 430 -145 63 -10 150 41 176 103
19 43 21 1483 3 1544 -16 52 -61 103 -112 128 -40 19 -60 21 -253 21 -171 0
-215 -3 -242 -17z m464 -98 c56 -36 54 -11 52 -811 l-3 -737 -27 -20 -26 -19
-147 25 c-92 17 -161 34 -186 48 -21 13 -39 25 -39 28 0 3 18 14 40 23 32 13
45 27 61 62 19 44 20 63 17 614 -3 528 -4 570 -21 595 -29 45 -75 67 -139 67
l-58 0 0 39 c0 53 33 91 84 100 21 3 113 5 203 4 130 -2 170 -6 189 -18z
m-369 -237 c10 -8 13 -127 13 -564 0 -503 -2 -554 -17 -569 -14 -14 -35 -16
-137 -13 -111 3 -125 5 -168 31 -31 18 -57 44 -75 75 l-28 47 0 450 c0 412 2
453 18 482 22 42 59 66 110 73 63 8 270 0 284 -12z"/>
<path d="M18410 14651 c-83 -26 -161 -85 -209 -159 -62 -97 -61 -81 -61 -1017
0 -960 -4 -905 77 -995 25 -28 69 -63 97 -78 l51 -27 1955 0 1955 0 47 24 c61
30 120 89 150 149 42 85 36 136 -120 1022 -78 443 -147 821 -153 840 -28 88
-99 168 -192 218 l-52 27 -1760 2 c-968 1 -1771 -2 -1785 -6z m3554 -115 c52
-26 104 -80 127 -130 10 -23 74 -369 148 -796 73 -415 134 -768 137 -783 l6
-28 -544 3 c-518 4 -546 5 -620 25 -183 51 -321 129 -460 260 -149 141 -267
216 -435 276 -158 57 -154 57 -1159 57 l-924 0 0 448 c0 487 2 505 56 583 27
40 74 75 129 96 23 9 454 11 1765 10 1694 -2 1736 -2 1774 -21z m-1722 -1251
c162 -46 289 -121 441 -263 157 -146 291 -224 471 -276 140 -41 222 -46 750
-46 l499 0 -7 -47 c-8 -60 -49 -121 -102 -150 l-41 -23 -1932 0 -1933 0 -41
22 c-23 13 -55 43 -72 66 l-30 44 -3 354 -3 354 888 2 c488 2 920 0 958 -5 39
-4 109 -18 157 -32z"/>
<path d="M18227 11814 c-15 -8 -32 -26 -37 -40 -14 -36 -13 -343 1 -385 19
-56 59 -100 113 -125 43 -20 67 -24 151 -24 144 0 143 1 240 -211 44 -96 101
-206 128 -246 117 -176 305 -291 527 -323 38 -5 509 -8 1125 -7 l1060 2 79 22
c116 33 227 96 317 181 100 93 133 145 230 355 44 95 90 182 103 195 15 16 41
26 83 32 69 9 107 26 147 66 58 59 61 72 61 276 l0 188 -28 27 -27 28 -2123 2
c-1879 2 -2125 0 -2150 -13z m4233 -236 c0 -207 -8 -219 -155 -247 -108 -20
-122 -39 -277 -366 -31 -66 -76 -143 -100 -172 -60 -72 -151 -142 -233 -180
-139 -63 -101 -62 -1290 -60 l-1080 2 -70 24 c-128 43 -215 99 -299 192 -61
67 -81 103 -167 290 -84 184 -106 218 -162 249 -35 20 -61 25 -157 30 -182 9
-190 19 -190 240 l0 150 2090 0 2090 0 0 -152z"/>
<path d="M21824 10410 c-70 -25 -121 -59 -176 -117 -56 -60 -75 -98 -118 -226
-36 -110 -36 -147 1 -198 40 -57 56 -59 421 -59 204 0 348 4 371 11 47 13 111
69 140 123 20 38 22 58 25 243 2 134 0 208 -8 222 -10 21 -17 21 -308 20 -260
0 -303 -3 -348 -19z m566 -228 c0 -170 -7 -201 -60 -245 l-32 -27 -340 2
c-309 3 -342 5 -352 20 -8 13 -4 38 18 105 35 110 62 158 121 212 85 79 122
86 432 86 l213 0 0 -153z"/>
<path d="M18326 10384 c-14 -13 -16 -47 -16 -220 0 -233 4 -252 73 -322 67
-68 90 -72 464 -72 351 0 370 2 411 55 42 54 44 88 10 194 -17 53 -42 118 -55
145 -56 110 -180 203 -302 226 -29 5 -170 10 -312 10 -221 0 -260 -2 -273 -16z
m636 -111 c60 -27 134 -96 160 -148 12 -22 34 -78 49 -124 27 -78 28 -86 14
-108 l-15 -23 -326 0 c-447 0 -434 -8 -434 265 l0 167 253 -4 c233 -3 255 -5
299 -25z"/>
<path d="M19383 9835 c-41 -18 -68 -59 -67 -104 2 -49 90 -197 148 -248 25
-22 62 -45 84 -51 29 -9 266 -12 888 -12 l849 0 50 24 c64 30 101 70 160 173
53 92 60 138 28 182 -11 14 -35 31 -54 38 -53 19 -2042 17 -2086 -2z m2057
-100 c0 -21 -58 -124 -89 -158 -54 -60 -6 -57 -922 -57 -840 0 -842 0 -878 21
-19 11 -42 30 -51 42 -32 44 -88 152 -84 159 3 4 459 8 1015 8 895 0 1009 -2
1009 -15z"/>
<path d="M41382 7853 c-31 -6 -47 -39 -33 -69 l11 -24 254 0 c273 0 281 2 274
52 -6 42 -37 48 -268 46 -118 0 -225 -3 -238 -5z"/>
<path d="M41131 7363 c-24 -16 -28 -55 -8 -72 45 -37 387 -75 612 -68 165 6
384 35 425 57 43 23 47 74 7 89 -10 4 -56 -1 -101 -10 -238 -52 -618 -48 -873
9 -32 7 -47 6 -62 -5z"/>
<path d="M36482 8159 c-13 -5 -142 -95 -288 -200 -217 -157 -264 -195 -264
-214 0 -29 35 -56 60 -47 40 15 549 388 554 406 6 22 -7 51 -26 59 -7 2 -23 0
-36 -4z"/>
<path d="M22425 44715 c-99 -13 -205 -26 -235 -30 -102 -12 -344 -46 -435 -60
-49 -8 -164 -26 -255 -40 -2207 -349 -4208 -1049 -5602 -1961 -104 -67 -128
-88 -128 -107 0 -29 18 -47 47 -47 12 0 66 28 120 63 1634 1057 3914 1785
6533 2087 102 11 195 25 206 30 28 11 36 43 17 69 -18 26 -34 26 -268 -4z"/>
<path d="M41750 35318 c-249 -39 -428 -299 -376 -549 42 -200 189 -340 387
-371 245 -37 475 142 512 398 45 307 -218 569 -523 522z m206 -119 c75 -28
146 -96 186 -177 30 -61 33 -74 33 -162 0 -82 -4 -103 -27 -152 -37 -80 -105
-149 -181 -184 -53 -25 -75 -29 -147 -29 -98 0 -163 25 -237 89 -53 46 -108
154 -117 230 -23 183 100 361 281 406 51 12 144 3 209 -21z"/>
<path d="M42994 32608 c-59 -90 -109 -173 -112 -186 -6 -30 14 -52 48 -52 24
0 39 19 134 165 59 91 110 173 113 184 6 23 -22 51 -52 51 -19 0 -43 -29 -131
-162z"/>
<path d="M42249 32581 c-43 -35 -20 -61 156 -176 169 -111 208 -125 224 -82 5
12 6 30 2 39 -6 16 -334 238 -351 238 -4 0 -18 -9 -31 -19z"/>
<path d="M42960 32106 c-29 -36 -9 -59 155 -168 88 -58 170 -109 181 -113 27
-7 54 18 54 51 0 21 -26 42 -166 134 -92 61 -177 110 -189 110 -12 0 -28 -7
-35 -14z"/>
<path d="M42636 32048 c-14 -8 -151 -206 -215 -311 -22 -35 -22 -39 -7 -62 10
-15 26 -25 41 -25 21 0 42 26 133 163 60 89 111 169 114 177 14 40 -29 78 -66
58z"/>
<path d="M37032 30134 c-37 -25 -29 -61 21 -89 23 -14 96 -57 162 -96 66 -39
163 -100 217 -136 78 -53 101 -64 122 -59 31 8 45 48 25 73 -28 34 -492 323
-519 323 -3 0 -16 -7 -28 -16z"/>
<path d="M37942 29468 c-25 -25 -9 -52 103 -176 63 -70 148 -172 189 -226 83
-109 92 -118 124 -109 28 7 38 43 21 75 -33 61 -175 234 -321 391 -55 58 -89
72 -116 45z"/>
<path d="M7170 26425 c-135 -37 -267 -135 -332 -246 -126 -214 -99 -485 64
-664 211 -232 554 -241 774 -21 286 287 184 768 -193 913 -86 32 -229 41 -313
18z m313 -128 c97 -46 163 -112 213 -212 68 -137 58 -314 -25 -443 -154 -238
-469 -279 -670 -87 -170 162 -193 423 -53 607 93 123 212 180 367 175 81 -2
99 -7 168 -40z"/>
<path d="M7770 23685 c-109 -164 -124 -201 -96 -225 35 -28 59 -8 149 125 134
197 142 212 129 241 -9 18 -19 24 -42 24 -28 0 -38 -12 -140 -165z"/>
<path d="M7026 23664 c-22 -22 -20 -47 7 -71 48 -45 321 -214 341 -211 22 3
47 43 39 63 -6 18 -335 235 -355 235 -9 0 -24 -7 -32 -16z"/>
<path d="M7748 23199 c-11 -6 -18 -22 -18 -39 0 -27 14 -39 165 -140 163 -109
200 -125 225 -96 30 37 9 58 -164 174 -93 61 -174 112 -180 112 -6 0 -19 -5
-28 -11z"/>
<path d="M7408 23128 c-18 -15 -228 -336 -228 -349 0 -14 38 -49 53 -49 24 0
39 18 142 176 108 165 123 204 86 224 -25 13 -34 13 -53 -2z"/>
<path d="M24161 9761 c-26 -26 -26 -33 -3 -60 l17 -21 1245 -9 c685 -6 1475
-10 1755 -11 281 -1 645 -3 810 -5 165 -2 764 -7 1330 -10 567 -3 1622 -10
2345 -15 723 -5 1881 -12 2572 -16 l1257 -7 12 25 c17 39 -2 66 -54 72 -23 3
-654 8 -1402 11 -748 3 -1522 7 -1720 10 -198 3 -835 7 -1415 10 -580 3 -1316
7 -1635 10 -319 3 -958 7 -1420 10 -1888 11 -2469 15 -3057 21 l-616 6 -21
-21z"/>
</g>
</svg>
