<?xml version="1.0" standalone="no"?>
<!DOCTYPE svg PUBLIC "-//W3C//DTD SVG 20010904//EN"
 "http://www.w3.org/TR/2001/REC-SVG-20010904/DTD/svg10.dtd">
<svg version="1.0" xmlns="http://www.w3.org/2000/svg"
 width="1024.000000pt" height="361.000000pt" viewBox="0 0 1024.000000 361.000000"
 preserveAspectRatio="xMidYMid meet">

<g transform="translate(0.000000,361.000000) scale(0.100000,-0.100000)"
fill="#000000" stroke="none">
<path d="M1007 3573 c-3 -5 7 -35 23 -69 25 -55 26 -62 11 -71 -27 -18 0 -32
64 -35 33 -1 116 5 185 14 69 10 163 20 210 23 47 3 94 7 105 9 11 2 55 7 98
11 42 4 80 11 83 16 3 5 -2 9 -10 9 -9 0 -16 5 -16 10 0 6 -12 10 -27 10 -22
0 -25 -2 -13 -10 12 -7 8 -10 -15 -10 -21 0 -26 3 -16 9 8 5 -16 9 -62 8 -42
0 -74 -4 -72 -8 9 -14 -25 -18 -56 -7 -25 8 -33 8 -40 -3 -6 -11 0 -15 24 -20
23 -4 14 -6 -28 -6 -45 0 -54 2 -35 8 17 6 7 7 -30 4 -30 -3 -66 -5 -79 -5
-16 0 -21 -4 -17 -15 4 -12 -3 -15 -37 -14 -34 1 -37 2 -17 8 22 6 23 8 7 14
-27 10 -37 9 -37 -7 0 -7 -14 -16 -31 -20 -44 -8 -61 -8 -55 3 3 5 -7 13 -22
19 -22 7 -33 23 -52 71 -24 58 -33 70 -43 54z m570 -109 c-3 -3 -12 -4 -19 -1
-8 3 -5 6 6 6 11 1 17 -2 13 -5z m-209 -21 c-10 -2 -28 -2 -40 0 -13 2 -5 4
17 4 22 1 32 -1 23 -4z m-285 -20 c-7 -2 -19 -2 -25 0 -7 3 -2 5 12 5 14 0 19
-2 13 -5z"/>
<path d="M1862 3519 c2 -6 7 -10 11 -10 4 1 16 1 28 1 11 0 17 5 14 10 -8 14
-58 13 -53 -1z"/>
<path d="M1595 3400 c-13 -6 -15 -9 -5 -9 8 0 22 4 30 9 18 12 2 12 -25 0z"/>
<path d="M1454 3374 c-18 -14 -18 -15 4 -4 12 6 22 13 22 15 0 8 -5 6 -26 -11z"/>
<path d="M5442 2819 l-2 -95 -45 -3 -45 -2 0 46 c0 25 -4 45 -9 45 -4 0 -7
-20 -5 -45 l3 -45 -62 2 c-94 2 -136 -2 -113 -11 10 -4 72 -6 137 -5 98 2 119
0 119 -12 0 -11 -10 -14 -40 -11 -22 2 -40 0 -40 -5 0 -5 -9 -6 -20 -3 -17 5
-20 2 -20 -20 0 -15 -4 -24 -10 -20 -6 4 -9 13 -8 20 3 14 1 15 -29 15 -15 0
-15 -2 -4 -9 21 -14 6 -40 -21 -37 -13 1 -29 6 -36 10 -7 4 -12 3 -12 -2 0 -6
-40 -10 -90 -9 -50 0 -93 -3 -97 -7 -3 -3 52 -7 123 -7 71 -1 121 -3 112 -6
-10 -2 -18 -9 -18 -15 0 -6 -6 -6 -15 2 -10 9 -15 9 -15 1 0 -6 -17 -11 -40
-11 -22 0 -40 5 -40 10 0 6 -6 5 -14 -2 -17 -16 -3 -26 30 -20 18 3 24 0 24
-13 0 -11 5 -15 15 -11 9 3 15 0 15 -8 0 -8 -7 -17 -16 -20 -23 -9 -24 -8 -24
12 0 19 -14 21 -55 7 -23 -7 -48 -52 -34 -61 13 -8 1 -24 -17 -24 -10 0 -14 7
-12 20 2 10 0 19 -4 20 -28 1 -30 -1 -18 -15 10 -12 10 -18 0 -30 -7 -8 -8
-15 -3 -15 6 0 10 -18 10 -40 0 -22 -4 -40 -9 -40 -5 0 -6 -6 -1 -12 12 -20
12 -218 -1 -218 -8 0 -8 -2 0 -8 13 -9 15 -172 2 -172 -5 0 -6 -6 -1 -12 13
-21 12 -128 -1 -128 -6 0 -4 -5 4 -10 12 -8 13 -13 2 -30 -7 -11 -8 -20 -4
-20 13 0 10 -164 -2 -172 -8 -6 -8 -8 0 -8 12 0 14 -243 2 -255 -4 -4 -1 -16
5 -26 10 -16 9 -21 -3 -29 -8 -5 -10 -10 -4 -10 6 0 11 -17 11 -40 0 -22 -4
-40 -8 -40 -5 0 -4 -10 3 -21 10 -17 10 -23 1 -26 -7 -3 -13 -11 -13 -19 0 -9
4 -13 8 -10 12 7 8 -95 -4 -117 -8 -15 -15 -16 -36 -8 -21 8 -28 7 -32 -6 -4
-9 -3 -19 3 -22 16 -10 -19 -79 -42 -84 -12 -2 1 -4 28 -4 28 0 40 2 27 4 -31
6 -22 27 13 31 34 4 43 -8 40 -56 -1 -20 -3 -65 -4 -99 l-1 -62 -140 2 c-126
2 -141 0 -146 -15 -4 -13 -16 -18 -40 -18 -28 0 -34 4 -34 22 l0 22 -16 -23
c-9 -13 -16 -33 -16 -46 0 -24 -28 -35 -85 -35 -21 0 -22 3 -13 20 13 24 7 26
-14 4 -26 -25 -19 -34 27 -34 24 0 48 -5 54 -11 7 -7 19 -8 30 -4 10 5 23 7
29 6 7 -1 14 5 18 14 3 9 0 15 -8 15 -15 0 -28 24 -19 34 12 12 81 6 93 -9 7
-8 16 -12 21 -9 5 3 10 -14 11 -38 l1 -43 4 38 c4 34 6 37 37 37 30 0 33 2 28
25 -2 15 0 25 7 25 6 0 11 -11 11 -25 0 -25 1 -25 80 -25 49 0 80 -4 80 -10 0
-6 6 -10 13 -9 23 3 37 -1 37 -10 0 -19 -67 -31 -173 -31 -61 0 -108 -2 -106
-4 2 -3 66 -6 142 -7 109 -2 137 -6 137 -17 0 -7 -6 -12 -12 -10 -18 6 -45
-22 -30 -31 13 -8 19 -117 8 -128 -3 -3 -7 11 -7 33 -1 23 -4 30 -6 16 -4 -22
-23 -32 -23 -12 0 21 -20 9 -43 -25 l-24 -36 -21 36 c-25 42 -34 43 -56 10
-23 -35 -20 -42 5 -10 l22 27 19 -30 c16 -25 18 -46 16 -123 -3 -91 -3 -92
-31 -102 -16 -5 -31 -6 -35 -2 -4 3 -10 50 -13 103 l-6 97 1 -102 1 -101 -50
-6 c-54 -5 -522 -10 -747 -8 l-138 2 0 149 c0 82 4 151 8 153 5 1 3 17 -4 33
-8 18 -13 23 -14 13 0 -10 -4 -18 -10 -18 -5 0 -10 -7 -10 -15 0 -8 5 -15 10
-15 6 0 10 -56 10 -149 l0 -149 -62 -7 c-35 -4 -117 -5 -183 -3 l-120 3 0 40
c0 38 1 40 30 38 19 -1 22 0 10 4 -11 3 -23 10 -27 17 -4 6 -9 108 -10 226
l-2 215 -6 -250 c-4 -137 -8 -258 -9 -267 -1 -14 -10 -18 -36 -18 -34 0 -35 1
-35 40 0 30 -4 40 -16 40 -11 0 -14 -4 -7 -12 5 -7 10 -25 12 -40 l2 -28 -140
0 -141 0 0 34 c0 19 6 37 13 39 7 3 5 6 -5 6 -14 1 -18 -7 -18 -39 l0 -40
-162 1 c-90 0 -158 2 -153 5 6 2 9 23 7 47 -4 43 -4 43 -43 43 -38 0 -39 -1
-39 -38 0 -38 0 -38 -42 -40 l-43 -1 45 -7 45 -7 -51 -1 -51 -2 2 38 c3 51 4
52 16 52 7 0 9 -10 5 -25 -4 -14 -2 -25 4 -25 5 0 10 7 10 15 0 8 5 15 10 15
6 0 10 -7 10 -15 0 -8 7 -15 16 -15 11 0 14 8 12 32 -3 32 -28 53 -28 24 0 -9
-4 -16 -10 -16 -5 0 -10 5 -10 11 0 8 -14 10 -44 6 -52 -7 -67 2 -29 19 l28
12 -28 1 c-21 1 -30 -5 -37 -24 -5 -14 -12 -25 -15 -25 -4 0 -4 4 -1 9 3 5 -1
11 -9 15 -8 3 -19 -3 -24 -12 -6 -10 -11 -12 -11 -4 0 6 -7 12 -15 12 -10 0
-15 -10 -15 -30 0 -33 14 -39 29 -12 10 16 10 16 11 -2 0 -15 5 -17 26 -12 19
5 25 3 22 -6 -3 -7 -18 -16 -34 -19 l-29 -6 30 -5 c22 -4 17 -5 -21 -7 l-50
-1 1 50 c1 28 -2 56 -7 63 -4 7 -8 -11 -8 -41 0 -52 -1 -53 -27 -52 -45 3 -51
-2 -13 -10 25 -5 10 -8 -55 -8 -59 0 -83 2 -70 8 15 7 10 9 -23 9 -30 1 -42 5
-39 14 2 6 11 11 21 9 10 -2 16 4 16 18 0 11 7 20 15 20 19 0 19 7 1 26 -19
18 -26 18 -26 -2 0 -11 -5 -14 -17 -10 -9 4 -20 1 -25 -6 -6 -10 -10 -7 -14 8
-3 12 -23 32 -44 45 -41 25 -50 39 -25 39 8 0 15 5 15 11 0 5 -4 7 -10 4 -5
-3 -10 1 -10 10 0 9 5 13 10 10 6 -3 10 3 10 14 0 24 -13 33 -34 25 -10 -4
-16 -18 -16 -36 0 -23 -4 -29 -15 -24 -11 4 -15 -1 -15 -17 0 -15 16 -32 53
-57 l52 -35 -30 -3 c-16 -2 -34 -8 -40 -14 -7 -8 -6 -9 4 -3 9 5 12 3 9 -5 -8
-25 -26 -21 -35 7 l-10 28 -7 -32 c-4 -18 -14 -33 -21 -33 -7 0 -20 -3 -29 -6
-13 -5 -16 2 -16 38 0 32 -6 50 -20 63 -20 18 -21 18 -40 -1 -13 -13 -20 -35
-21 -71 -2 -37 -7 -53 -16 -53 -8 0 -11 5 -8 10 3 6 1 10 -5 10 -6 0 -10 15
-8 35 1 19 -3 40 -10 47 -19 19 -41 -10 -43 -60 -4 -62 -29 -57 -29 7 0 33 -6
56 -19 72 l-20 24 -21 -21 c-15 -15 -23 -37 -25 -74 -4 -58 -13 -75 -21 -43
-3 12 -14 23 -25 26 -15 4 -19 15 -21 49 -1 35 -2 37 -5 11 -4 -33 -28 -61
-41 -48 -4 4 -1 10 6 12 21 8 2 23 -29 23 -16 0 -29 3 -29 8 1 13 80 63 90 57
6 -4 10 7 10 25 0 25 -4 31 -15 26 -11 -4 -15 2 -15 23 0 17 -6 31 -16 35 -22
9 -24 8 -24 -11 0 -15 -2 -16 -10 -3 -7 11 -10 5 -10 -22 0 -31 4 -38 20 -38
30 0 24 -12 -20 -39 -21 -13 -41 -33 -44 -45 -5 -21 -5 -21 -20 -1 -10 13 -15
15 -16 7 0 -16 -25 -10 -25 6 0 5 -3 14 -8 18 -4 4 -7 0 -7 -9 0 -10 -4 -17
-9 -17 -5 0 -11 -20 -13 -45 -2 -33 1 -46 12 -49 8 -2 -61 -4 -155 -4 -99 0
-160 3 -145 8 27 9 19 13 -19 10 -13 -1 -28 4 -32 12 -7 10 -9 10 -9 1 0 -7
-8 -14 -17 -14 -10 -1 -2 -5 17 -9 25 -5 8 -7 -55 -7 -67 0 -80 2 -50 7 41 7
27 12 -37 12 -24 1 -28 5 -28 29 0 18 5 28 13 26 6 -1 11 6 11 15 -1 10 0 18
2 18 8 0 54 -48 54 -57 0 -5 16 -9 35 -10 30 -1 35 2 35 22 0 27 -37 95 -51
95 -5 0 -9 5 -9 11 0 7 18 8 55 4 l55 -7 -6 33 c-10 57 -10 57 -57 52 -26 -2
-48 0 -52 6 -4 8 -12 8 -26 1 -29 -16 -27 -78 4 -89 31 -12 55 -41 57 -71 3
-38 1 -42 -14 -28 -10 10 -11 15 -2 21 6 5 2 7 -11 4 -16 -3 -29 4 -47 25 -23
28 -26 29 -40 15 -9 -9 -16 -20 -16 -26 0 -13 -59 -81 -71 -81 -5 0 -9 15 -9
34 0 39 54 115 83 115 9 1 17 6 17 12 0 5 -5 7 -10 4 -6 -3 -10 1 -10 9 0 22
24 15 32 -9 4 -14 6 -9 7 17 1 40 25 72 49 63 8 -3 22 0 30 7 12 10 14 10 8 1
-4 -7 -3 -13 3 -13 5 0 12 4 16 9 10 17 -14 22 -52 12 -26 -8 -39 -7 -44 1
-11 18 -28 0 -21 -24 5 -22 5 -22 -21 -5 -14 9 -41 17 -59 17 -23 0 -37 7 -46
21 -18 29 -12 32 38 14 52 -19 50 -19 50 3 0 19 -45 72 -60 72 -19 0 -10 18
13 24 l22 6 -25 20 c-31 24 -77 26 -102 4 -16 -16 -18 -15 -24 0 -6 16 -53 46
-73 46 -8 0 5 -33 26 -69 2 -2 6 -2 9 1 3 4 1 16 -6 27 -6 12 -7 21 -2 21 13
0 42 -34 42 -49 0 -8 10 -5 26 8 31 24 43 26 80 9 l26 -12 -48 -17 -49 -16 45
-8 c47 -8 80 -29 80 -51 0 -10 -6 -11 -22 -5 -13 4 -41 11 -63 15 l-40 8 25
-26 c16 -18 26 -43 30 -74 5 -43 7 -46 34 -47 39 0 47 -35 8 -36 -15 0 -36 -5
-47 -10 -15 -7 -11 -8 19 -5 l39 5 -21 -22 c-15 -16 -23 -39 -25 -75 -3 -51
-2 -52 26 -52 15 0 26 4 23 8 -3 5 5 20 17 33 20 22 22 22 26 4 2 -10 -4 -24
-13 -31 -13 -9 -14 -13 -4 -16 7 -3 -20 -7 -61 -11 -41 -3 -78 -4 -83 -1 -5 4
-8 69 -7 145 2 76 0 142 -4 145 -4 4 -7 -59 -7 -139 0 -129 -2 -147 -16 -147
-13 0 -15 7 -11 33 3 17 9 97 13 177 l6 145 -22 -28 c-12 -15 -39 -36 -61 -47
-66 -34 -74 -25 -34 34 27 40 31 51 15 41 -14 -9 -50 -80 -50 -99 0 -13 5 -13
41 -1 22 8 54 24 71 36 l30 22 -6 -109 c-4 -60 -9 -133 -12 -161 l-5 -53 -300
0 c-259 0 -299 -2 -299 -15 0 -13 572 -15 5085 -15 4513 0 5085 2 5085 15 0
12 -17 15 -93 15 -87 0 -95 2 -115 25 -12 14 -28 25 -34 25 -7 0 -24 9 -38 20
-28 22 -99 27 -117 9 -8 -8 -17 -8 -31 0 -26 14 -78 14 -104 0 -14 -8 -23 -8
-31 0 -21 21 -92 13 -121 -14 -14 -13 -26 -28 -26 -34 0 -5 14 4 30 21 27 27
35 29 73 24 23 -3 50 -6 60 -5 9 0 40 0 67 0 28 0 58 0 68 0 9 -1 35 2 57 5
32 4 46 1 65 -14 l24 -19 -61 3 c-55 3 -64 1 -81 -20 l-18 -24 -492 -1 c-374
-1 -492 2 -492 11 0 6 10 22 22 35 12 13 16 23 9 23 -6 0 -21 -16 -32 -35
l-21 -35 -237 0 -237 1 -26 33 -27 34 -128 -2 c-70 -1 -134 -5 -141 -10 -7 -4
-18 -19 -23 -33 -9 -24 -13 -25 -56 -19 -25 3 -159 6 -298 6 l-253 0 -5 28
c-6 33 -2 39 18 22 12 -10 19 -10 27 -2 15 15 138 16 138 2 0 -5 7 -10 15 -10
8 0 15 5 15 10 0 14 27 12 33 -2 3 -10 9 -10 28 1 16 10 24 10 27 2 4 -13 32
-15 32 -2 0 5 10 12 23 14 l22 4 -22 2 c-21 1 -23 6 -23 66 0 51 -3 65 -15 65
-12 0 -15 -14 -15 -65 0 -51 -3 -65 -15 -65 -12 0 -15 14 -15 65 0 50 -3 65
-15 65 -10 0 -15 -16 -17 -62 -2 -38 -8 -63 -15 -66 -10 -3 -13 14 -13 62 0
52 -3 66 -15 66 -12 0 -15 -14 -15 -66 l0 -65 -65 3 c-69 3 -72 5 -66 63 3 33
-9 65 -24 65 -12 0 -15 -14 -15 -66 0 -44 -4 -63 -11 -59 -6 4 -10 23 -9 44 3
57 1 61 -23 61 -20 0 -23 4 -19 30 3 21 10 30 23 30 15 0 19 7 19 38 0 20 3
48 7 62 6 22 5 24 -10 11 -11 -9 -17 -10 -17 -2 0 6 -9 11 -21 11 -18 0 -20
-5 -16 -43 3 -34 8 -43 25 -45 12 -2 22 -7 22 -12 0 -5 -10 -7 -23 -4 -21 3
-23 1 -19 -26 4 -29 3 -30 -37 -30 -40 0 -41 0 -42 -37 -2 -32 -3 -33 -6 -10
-3 20 -9 27 -21 25 -11 -2 -16 -11 -14 -25 2 -12 -2 -24 -8 -28 -6 -4 -10 9
-10 34 0 39 -2 41 -29 41 -16 0 -35 2 -43 3 -7 2 -10 2 -5 0 19 -11 5 -30 -19
-25 -14 2 -23 10 -21 16 3 7 -11 11 -39 11 -29 0 -44 -4 -44 -12 0 -7 -9 -13
-20 -13 -17 0 -20 -7 -20 -51 0 -28 -4 -48 -9 -45 -5 4 -9 23 -9 44 0 65 -2
72 -19 72 -15 0 -18 -9 -18 -57 0 -54 -2 -58 -28 -67 -22 -8 -30 -7 -37 4 -7
10 -10 11 -10 3 0 -7 -9 -13 -20 -13 -18 0 -20 7 -20 70 0 58 -3 68 -15 64
-11 -5 -15 -22 -15 -70 0 -50 -3 -64 -15 -64 -12 0 -15 14 -15 65 0 51 -3 65
-15 65 -12 0 -15 -14 -15 -65 0 -52 -3 -65 -16 -65 -9 0 -14 8 -13 18 6 58 -2
112 -16 112 -12 0 -15 -14 -15 -62 l0 -62 -34 35 c-54 56 -128 72 -204 45 -32
-12 -43 -12 -49 -3 -5 7 -10 211 -13 455 -6 465 -7 471 -49 454 -13 -5 -11 -8
7 -10 19 -3 22 -9 22 -52 0 -40 -3 -48 -15 -44 -9 4 -15 0 -16 -7 -1 -8 -3
-34 -4 -59 -4 -62 -4 -62 -16 -55 -6 4 -8 9 -6 11 6 6 -45 64 -55 64 -5 0 -8
-7 -8 -15 0 -8 -4 -15 -8 -15 -5 0 -18 -9 -30 -20 l-22 -21 -1 53 c-1 29 -2
79 -2 110 1 39 -3 58 -13 62 -7 3 -16 1 -19 -4 -4 -6 -1 -10 4 -10 16 0 14
-87 -3 -93 -7 -3 -16 -15 -19 -27 -4 -17 -1 -20 16 -18 21 3 22 -1 25 -82 2
-68 0 -87 -13 -96 -14 -11 -14 -12 0 -18 14 -5 16 -45 14 -361 -2 -268 -5
-355 -14 -355 -9 0 -13 27 -13 88 -1 48 -1 91 -1 96 -1 4 -8 6 -16 2 -9 -3
-15 0 -15 8 0 17 -28 74 -41 82 -5 3 -17 -12 -27 -34 l-18 -39 -17 41 c-17 39
-19 40 -33 22 -7 -11 -14 -24 -14 -30 0 -5 6 -1 14 9 13 18 14 18 24 -2 12
-21 19 -194 8 -211 -7 -12 41 -22 77 -15 17 3 27 1 27 -7 0 -17 -332 -10 -338
8 -2 8 -30 13 -85 14 -45 1 -64 3 -42 5 48 4 85 22 85 40 0 7 5 13 11 13 5 0
7 -5 4 -10 -4 -6 3 -9 15 -7 30 5 39 24 29 61 -13 44 -12 44 24 54 17 5 31 14
30 21 -2 6 -4 17 -5 24 -2 6 -7 15 -12 18 -4 4 -3 9 2 13 15 9 30 -23 27 -59
-1 -16 -3 -42 -3 -56 -2 -23 -6 -26 -28 -21 -19 3 -25 1 -20 -7 4 -6 11 -9 16
-6 4 3 16 2 25 -1 12 -5 16 -16 13 -40 -2 -19 0 -34 4 -34 16 0 14 226 -3 246
-8 10 -8 14 0 14 6 0 11 9 11 20 0 11 -4 20 -10 20 -5 0 -7 -6 -4 -14 4 -10
-1 -14 -15 -13 -19 1 -31 17 -13 17 4 0 8 9 8 20 0 11 -6 20 -12 20 -18 0 -24
38 -7 44 34 13 45 7 41 -24 -3 -17 -1 -30 3 -30 4 0 9 12 11 28 2 21 9 28 31
30 24 3 27 0 28 -30 l1 -33 7 30 6 30 88 1 c49 1 91 5 94 8 7 6 0 7 -121 7
-68 1 -79 3 -83 19 -3 12 -16 20 -37 22 -23 2 -30 8 -28 20 2 12 -4 16 -18 15
-12 -1 -19 -6 -16 -14 3 -8 -2 -13 -13 -13 -13 0 -20 10 -25 31 -7 37 -1 49
25 49 10 0 19 6 19 13 0 8 -11 12 -27 11 l-28 -2 -3 86 c-2 48 -6 89 -10 92
-8 6 -16 106 -17 195 l0 60 43 -1 c28 -1 42 4 42 12 0 9 -8 10 -27 5 -35 -9
-65 -3 -60 12 2 7 24 12 48 13 36 0 44 4 44 19 0 17 -7 19 -47 16 -42 -2 -49
0 -57 21 -4 13 -14 124 -20 248 -7 124 -14 248 -17 275 -2 28 -7 232 -11 455
-5 320 -9 407 -19 415 -8 6 -13 25 -11 46 2 20 0 45 -4 55 -6 14 -8 8 -8 -18
-1 -24 -5 -37 -13 -35 -8 1 -12 -11 -12 -35 0 -24 -4 -38 -12 -38 -7 0 -15 -6
-17 -12 -3 -7 -6 -2 -7 12 l-2 25 -8 -25 c-6 -17 -8 -2 -9 53 -1 82 1 85 57
78 7 -1 11 4 10 11 -2 7 3 12 10 11 6 -2 12 6 12 17 0 11 -4 20 -10 20 -5 0
-10 -7 -10 -16 0 -11 -6 -14 -20 -9 -11 4 -20 2 -20 -4 0 -6 -9 -11 -20 -11
-17 0 -20 8 -23 93 l-3 92 -2 -96z m-12 -184 c6 24 8 20 9 -25 0 -35 -2 -50
-8 -41 -7 11 -10 10 -14 -5 -2 -10 -4 10 -4 46 0 42 2 52 5 30 l5 -35 7 30z
m-30 -15 c0 -22 -4 -40 -10 -40 -5 0 -10 18 -10 40 0 22 5 40 10 40 6 0 10
-18 10 -40z m-59 -19 c7 11 9 9 9 -8 0 -16 -4 -21 -15 -17 -9 4 -14 17 -14 33
2 25 2 25 6 2 4 -19 7 -21 14 -10z m-44 -13 c-3 -8 -6 -5 -6 6 -1 11 2 17 5
13 3 -3 4 -12 1 -19z m-77 -28 c0 -5 -4 -10 -10 -10 -5 0 -10 5 -10 10 0 6 5
10 10 10 6 0 10 -4 10 -10z m-33 -52 c-3 -8 -6 -5 -6 6 -1 11 2 17 5 13 3 -3
4 -12 1 -19z m70 0 c-3 -8 -6 -5 -6 6 -1 11 2 17 5 13 3 -3 4 -12 1 -19z m28
13 c3 -5 1 -12 -5 -16 -5 -3 -10 1 -10 9 0 18 6 21 15 7z m65 -7 c0 -6 -10
-10 -22 -9 -30 3 -30 3 -23 14 8 13 45 9 45 -5z m25 6 c3 -5 1 -10 -4 -10 -6
0 -11 5 -11 10 0 6 2 10 4 10 3 0 8 -4 11 -10z m-258 -22 c-3 -8 -6 -5 -6 6
-1 11 2 17 5 13 3 -3 4 -12 1 -19z m46 -12 c3 -8 -1 -17 -9 -20 -23 -9 -24 -8
-24 14 0 23 25 27 33 6z m24 -28 c-3 -7 -5 -2 -5 12 0 14 2 19 5 13 2 -7 2
-19 0 -25z m99 20 c3 -4 -4 -11 -15 -18 -18 -9 -21 -8 -21 9 0 18 21 23 36 9z
m-169 -20 c-3 -8 -6 -5 -6 6 -1 11 2 17 5 13 3 -3 4 -12 1 -19z m41 -27 c10
-6 9 -10 -7 -14 -14 -3 -21 0 -21 9 0 16 9 18 28 5z m37 0 c3 -5 1 -12 -5 -16
-5 -3 -10 1 -10 9 0 18 6 21 15 7z m-145 -12 c0 -5 -9 -9 -20 -9 -11 0 -20 4
-20 8 0 4 9 8 20 9 11 1 20 -2 20 -8z m0 -49 c0 -13 -11 -13 -30 0 -12 8 -11
10 8 10 12 0 22 -4 22 -10z m137 -482 c-1 -90 -3 -17 -3 162 0 179 2 252 3
163 2 -90 2 -236 0 -325z m-137 441 c0 -5 -9 -9 -20 -9 -11 0 -20 4 -20 8 0 4
9 8 20 9 11 1 20 -2 20 -8z m157 -31 c-3 -8 -6 -5 -6 6 -1 11 2 17 5 13 3 -3
4 -12 1 -19z m-160 -20 c-3 -8 -6 -5 -6 6 -1 11 2 17 5 13 3 -3 4 -12 1 -19z
m-17 -38 c0 -5 -4 -10 -10 -10 -5 0 -10 5 -10 10 0 6 5 10 10 10 6 0 10 -4 10
-10z m177 -37 c-3 -10 -5 -4 -5 12 0 17 2 24 5 18 2 -7 2 -21 0 -30z m-164
-10 c-7 -2 -19 -2 -25 0 -7 3 -2 5 12 5 14 0 19 -2 13 -5z m164 -35 c-3 -8 -6
-5 -6 6 -1 11 2 17 5 13 3 -3 4 -12 1 -19z m-57 2 c0 -5 -5 -10 -11 -10 -5 0
-7 5 -4 10 3 6 8 10 11 10 2 0 4 -4 4 -10z m417 -32 c-3 -8 -6 -5 -6 6 -1 11
2 17 5 13 3 -3 4 -12 1 -19z m-360 -95 c-2 -21 -4 -4 -4 37 0 41 2 58 4 38 2
-21 2 -55 0 -75z m360 45 c-3 -7 -5 -2 -5 12 0 14 2 19 5 13 2 -7 2 -19 0 -25z
m-400 -40 c-3 -8 -6 -5 -6 6 -1 11 2 17 5 13 3 -3 4 -12 1 -19z m40 -70 c-3
-8 -6 -5 -6 6 -1 11 2 17 5 13 3 -3 4 -12 1 -19z m0 -40 c-3 -8 -6 -5 -6 6 -1
11 2 17 5 13 3 -3 4 -12 1 -19z m0 -65 c-3 -10 -5 -2 -5 17 0 19 2 27 5 18 2
-10 2 -26 0 -35z m360 15 c-3 -7 -5 -2 -5 12 0 14 2 19 5 13 2 -7 2 -19 0 -25z
m0 -85 c-3 -10 -5 -2 -5 17 0 19 2 27 5 18 2 -10 2 -26 0 -35z m-400 -15 c-3
-8 -6 -5 -6 6 -1 11 2 17 5 13 3 -3 4 -12 1 -19z m40 -40 c-3 -8 -6 -5 -6 6
-1 11 2 17 5 13 3 -3 4 -12 1 -19z m368 -87 c1 -56 -1 -101 -6 -101 -5 0 -9
48 -9 107 0 58 3 104 6 101 3 -3 7 -51 9 -107z m-525 69 c0 -5 -4 -10 -10 -10
-5 0 -10 5 -10 10 0 6 5 10 10 10 6 0 10 -4 10 -10z m137 -97 c-2 -21 -4 -6
-4 32 0 39 2 55 4 38 2 -18 2 -50 0 -70z m-20 65 c-3 -8 -6 -5 -6 6 -1 11 2
17 5 13 3 -3 4 -12 1 -19z m-117 -18 c0 -5 -4 -10 -10 -10 -5 0 -10 5 -10 10
0 6 5 10 10 10 6 0 10 -4 10 -10z m447 -92 c-2 -18 -4 -6 -4 27 0 33 2 48 4
33 2 -15 2 -42 0 -60z m-330 20 c-3 -8 -6 -5 -6 6 -1 11 2 17 5 13 3 -3 4 -12
1 -19z m280 0 c-3 -8 -6 -5 -6 6 -1 11 2 17 5 13 3 -3 4 -12 1 -19z m28 13 c3
-5 1 -12 -5 -16 -5 -3 -10 1 -10 9 0 18 6 21 15 7z m42 -13 c-3 -8 -6 -5 -6 6
-1 11 2 17 5 13 3 -3 4 -12 1 -19z m-350 -40 c-3 -8 -6 -5 -6 6 -1 11 2 17 5
13 3 -3 4 -12 1 -19z m20 0 c-3 -8 -6 -5 -6 6 -1 11 2 17 5 13 3 -3 4 -12 1
-19z m240 -40 c-2 -13 -4 -3 -4 22 0 25 2 35 4 23 2 -13 2 -33 0 -45z m20 30
c-3 -7 -5 -2 -5 12 0 14 2 19 5 13 2 -7 2 -19 0 -25z m33 17 c0 -8 -4 -15 -10
-15 -5 0 -10 7 -10 15 0 8 5 15 10 15 6 0 10 -7 10 -15z m-313 -57 c-3 -8 -6
-5 -6 6 -1 11 2 17 5 13 3 -3 4 -12 1 -19z m20 0 c-3 -8 -6 -5 -6 6 -1 11 2
17 5 13 3 -3 4 -12 1 -19z m220 0 c-3 -8 -6 -5 -6 6 -1 11 2 17 5 13 3 -3 4
-12 1 -19z m40 0 c-3 -8 -6 -5 -6 6 -1 11 2 17 5 13 3 -3 4 -12 1 -19z m30 0
c-3 -8 -6 -5 -6 6 -1 11 2 17 5 13 3 -3 4 -12 1 -19z m-310 -40 c-3 -8 -6 -5
-6 6 -1 11 2 17 5 13 3 -3 4 -12 1 -19z m240 -40 c-2 -13 -4 -3 -4 22 0 25 2
35 4 23 2 -13 2 -33 0 -45z m20 40 c-3 -8 -6 -5 -6 6 -1 11 2 17 5 13 3 -3 4
-12 1 -19z m27 7 c3 -8 1 -15 -4 -15 -6 0 -10 7 -10 15 0 8 2 15 4 15 2 0 6
-7 10 -15z m29 -52 c2 -29 0 -53 -4 -53 -5 0 -9 28 -8 63 1 71 5 67 12 -10z
m-93 47 c0 -5 -4 -10 -10 -10 -5 0 -10 5 -10 10 0 6 5 10 10 10 6 0 10 -4 10
-10z m193 -67 c3 -40 1 -73 -3 -73 -8 0 -18 138 -11 146 8 7 9 0 14 -73z
m-416 15 c-3 -8 -6 -5 -6 6 -1 11 2 17 5 13 3 -3 4 -12 1 -19z m170 0 c-3 -8
-6 -5 -6 6 -1 11 2 17 5 13 3 -3 4 -12 1 -19z m30 0 c-3 -8 -6 -5 -6 6 -1 11
2 17 5 13 3 -3 4 -12 1 -19z m20 0 c-3 -8 -6 -5 -6 6 -1 11 2 17 5 13 3 -3 4
-12 1 -19z m73 -40 c0 -35 3 -74 7 -87 4 -17 3 -22 -5 -17 -7 4 -12 35 -12 76
0 58 -3 68 -15 64 -9 -4 -15 0 -15 10 0 9 8 16 20 16 18 0 20 -7 20 -62z m67
40 c-3 -8 -6 -5 -6 6 -1 11 2 17 5 13 3 -3 4 -12 1 -19z m-90 -115 c-2 -21 -4
-6 -4 32 0 39 2 55 4 38 2 -18 2 -50 0 -70z m-17 83 c0 -3 -4 -8 -10 -11 -5
-3 -10 -1 -10 4 0 6 5 11 10 11 6 0 10 -2 10 -4z m-33 -58 c-3 -7 -5 -2 -5 12
0 14 2 19 5 13 2 -7 2 -19 0 -25z m-220 0 c-3 -8 -6 -5 -6 6 -1 11 2 17 5 13
3 -3 4 -12 1 -19z m180 0 c-3 -8 -6 -5 -6 6 -1 11 2 17 5 13 3 -3 4 -12 1 -19z
m20 0 c-3 -8 -6 -5 -6 6 -1 11 2 17 5 13 3 -3 4 -12 1 -19z m53 6 c0 -8 -4
-12 -10 -9 -5 3 -10 10 -10 16 0 5 5 9 10 9 6 0 10 -7 10 -16z m70 7 c0 -6 -4
-13 -10 -16 -5 -3 -10 1 -10 9 0 9 5 16 10 16 6 0 10 -4 10 -9z m-323 -53 c-3
-8 -6 -5 -6 6 -1 11 2 17 5 13 3 -3 4 -12 1 -19z m163 1 c0 -5 -4 -9 -10 -9
-5 0 -10 7 -10 16 0 8 5 12 10 9 6 -3 10 -10 10 -16z m17 -11 c-3 -7 -5 -2 -5
12 0 14 2 19 5 13 2 -7 2 -19 0 -25z m20 10 c-3 -8 -6 -5 -6 6 -1 11 2 17 5
13 3 -3 4 -12 1 -19z m33 1 c0 -5 -4 -9 -10 -9 -5 0 -10 7 -10 16 0 8 5 12 10
9 6 -3 10 -10 10 -16z m17 -41 c-2 -13 -4 -3 -4 22 0 25 2 35 4 23 2 -13 2
-33 0 -45z m-250 -10 c-3 -8 -6 -5 -6 6 -1 11 2 17 5 13 3 -3 4 -12 1 -19z
m130 0 c-3 -8 -6 -5 -6 6 -1 11 2 17 5 13 3 -3 4 -12 1 -19z m30 0 c-3 -8 -6
-5 -6 6 -1 11 2 17 5 13 3 -3 4 -12 1 -19z m20 0 c-3 -8 -6 -5 -6 6 -1 11 2
17 5 13 3 -3 4 -12 1 -19z m66 -187 c-8 -11 -11 11 -16 109 l-6 105 13 -105
c7 -58 11 -107 9 -109z m37 194 c0 -8 -2 -15 -4 -15 -2 0 -6 7 -10 15 -3 8 -1
15 4 15 6 0 10 -7 10 -15z m17 -47 c-2 -13 -4 -3 -4 22 0 25 2 35 4 23 2 -13
2 -33 0 -45z m50 -35 c-2 -16 -4 -3 -4 27 0 30 2 43 4 28 2 -16 2 -40 0 -55z
m70 35 c-3 -7 -5 -2 -5 12 0 14 2 19 5 13 2 -7 2 -19 0 -25z m-420 0 c-3 -8
-6 -5 -6 6 -1 11 2 17 5 13 3 -3 4 -12 1 -19z m115 -13 c2 -19 0 -35 -4 -35
-4 0 -8 16 -8 35 0 19 2 35 4 35 2 0 6 -16 8 -35z m25 13 c-3 -8 -6 -5 -6 6
-1 11 2 17 5 13 3 -3 4 -12 1 -19z m38 -150 c5 -49 11 -68 21 -68 8 0 14 -5
14 -11 0 -5 -4 -7 -10 -4 -6 4 -10 -15 -10 -51 0 -32 -2 -55 -4 -53 -6 6 -24
178 -30 279 -4 75 -4 78 4 30 5 -30 12 -85 15 -122z m17 114 l1 -47 7 55 7 55
1 -47 c1 -25 5 -53 8 -62 4 -12 0 -16 -15 -16 -18 0 -21 6 -21 44 0 24 -3 52
-7 62 -4 12 -3 15 5 10 7 -4 13 -28 14 -54z m68 -14 c0 -34 -2 -59 -4 -57 -8
10 -13 129 -5 123 5 -3 9 -33 9 -66z m39 -155 c9 -90 14 -163 11 -163 -8 0
-41 312 -39 360 l2 35 4 -35 c3 -19 12 -108 22 -197z m-302 155 c-3 -8 -6 -5
-6 6 -1 11 2 17 5 13 3 -3 4 -12 1 -19z m96 -15 c4 -19 2 -33 -3 -33 -6 0 -10
17 -10 37 0 43 5 41 13 -4z m60 -106 c3 -38 1 -65 -4 -60 -4 4 -10 53 -13 108
-6 110 8 71 17 -48z m157 127 c0 -8 -5 -12 -10 -9 -6 4 -8 11 -5 16 9 14 15
11 15 -7z m95 7 c3 -5 1 -12 -5 -16 -5 -3 -10 1 -10 9 0 18 6 21 15 7z m-98
-93 c-2 -13 -4 -3 -4 22 0 25 2 35 4 23 2 -13 2 -33 0 -45z m-190 5 c-3 -10
-5 -2 -5 17 0 19 2 27 5 18 2 -10 2 -26 0 -35z m80 -45 c-2 -13 -4 -5 -4 17
-1 22 1 32 4 23 2 -10 2 -28 0 -40z m41 -163 c0 -16 -6 8 -14 55 -7 47 -12
103 -12 125 0 22 6 -3 14 -55 7 -52 12 -108 12 -125z m29 193 c-3 -8 -6 -5 -6
6 -1 11 2 17 5 13 3 -3 4 -12 1 -19z m70 0 c-3 -8 -6 -5 -6 6 -1 11 2 17 5 13
3 -3 4 -12 1 -19z m70 0 c-3 -8 -6 -5 -6 6 -1 11 2 17 5 13 3 -3 4 -12 1 -19z
m30 0 c-3 -8 -6 -5 -6 6 -1 11 2 17 5 13 3 -3 4 -12 1 -19z m-337 2 c0 -5 -4
-10 -10 -10 -5 0 -10 5 -10 10 0 6 5 10 10 10 6 0 10 -4 10 -10z m-1 -62 l-2
-43 -6 35 c-7 33 -5 50 5 50 2 0 3 -19 3 -42z m148 -20 c-2 -13 -4 -3 -4 22 0
25 2 35 4 23 2 -13 2 -33 0 -45z m20 30 c-3 -7 -5 -2 -5 12 0 14 2 19 5 13 2
-7 2 -19 0 -25z m70 10 c-3 -8 -6 -5 -6 6 -1 11 2 17 5 13 3 -3 4 -12 1 -19z
m-207 -30 c0 -17 -3 -28 -7 -24 -11 11 -12 67 -2 60 5 -3 9 -19 9 -36z m187
-5 c-3 -10 -5 -2 -5 17 0 19 2 27 5 18 2 -10 2 -26 0 -35z m778 -58 c0 -62 -4
-90 -12 -92 -10 -4 -13 19 -13 92 0 73 3 96 13 93 8 -3 12 -31 12 -93z m-648
53 c-3 -8 -6 -5 -6 6 -1 11 2 17 5 13 3 -3 4 -12 1 -19z m-80 -10 c-3 -8 -6
-5 -6 6 -1 11 2 17 5 13 3 -3 4 -12 1 -19z m-20 -40 c-3 -7 -5 -2 -5 12 0 14
2 19 5 13 2 -7 2 -19 0 -25z m-65 -13 c2 -19 0 -35 -4 -35 -4 0 -8 16 -8 35 0
19 2 35 4 35 2 0 6 -16 8 -35z m663 26 c3 -5 2 -12 -3 -15 -5 -3 -9 1 -9 9 0
17 3 19 12 6z m-733 -31 c3 -16 1 -30 -4 -30 -4 0 -8 14 -8 30 0 17 2 30 4 30
2 0 6 -13 8 -30z m45 -32 c-2 -13 -4 -3 -4 22 0 25 2 35 4 23 2 -13 2 -33 0
-45z m-474 32 c-3 -11 -7 -20 -9 -20 -2 0 -4 9 -4 20 0 11 4 20 9 20 5 0 7 -9
4 -20z m374 -2 c-3 -8 -6 -5 -6 6 -1 11 2 17 5 13 3 -3 4 -12 1 -19z m816 7
c-3 -9 -8 -14 -10 -11 -3 3 -2 9 2 15 9 16 15 13 8 -4z m-849 -185 c4 -53 3
-70 -4 -58 -6 9 -12 61 -15 115 -4 113 10 70 19 -57z m846 127 c10 16 10 16 5
-4 -9 -31 13 -30 47 2 15 14 29 25 32 25 5 0 4 -607 -2 -707 l-4 -73 -63 0
-63 0 -5 37 c-2 21 -5 198 -6 393 l-2 354 25 -23 c23 -22 25 -22 36 -4z m-683
-39 c-3 -7 -5 -2 -5 12 0 14 2 19 5 13 2 -7 2 -19 0 -25z m-133 -88 c7 -70 1
-93 -9 -39 -10 53 -15 154 -7 134 5 -11 12 -54 16 -95z m30 -15 c3 -35 2 -54
-3 -45 -4 8 -11 51 -14 95 -6 88 6 51 17 -50z m29 1 c3 -28 1 -43 -3 -35 -4 7
-11 46 -14 84 -6 79 8 37 17 -49z m34 72 c-3 -7 -5 -2 -5 12 0 14 2 19 5 13 2
-7 2 -19 0 -25z m848 -281 c0 -231 -3 -309 -13 -319 -9 -9 -12 53 -12 311 0
254 3 322 13 318 9 -3 12 -74 12 -310z m-868 236 c-3 -10 -5 -4 -5 12 0 17 2
24 5 18 2 -7 2 -21 0 -30z m70 15 c-3 -8 -6 -5 -6 6 -1 11 2 17 5 13 3 -3 4
-12 1 -19z m150 -30 c-3 -8 -6 -5 -6 6 -1 11 2 17 5 13 3 -3 4 -12 1 -19z
m-170 -20 c-3 -7 -5 -2 -5 12 0 14 2 19 5 13 2 -7 2 -19 0 -25z m-40 -20 c-3
-7 -5 -2 -5 12 0 14 2 19 5 13 2 -7 2 -19 0 -25z m-137 2 c0 -5 -4 -10 -10
-10 -5 0 -10 5 -10 10 0 6 5 10 10 10 6 0 10 -4 10 -10z m-360 -72 c0 -16 -3
-19 -11 -11 -6 6 -8 16 -5 22 11 17 16 13 16 -11z m50 2 c0 -5 -4 -10 -10 -10
-5 0 -10 5 -10 10 0 6 5 10 10 10 6 0 10 -4 10 -10z m217 -67 c-3 -10 -5 -4
-5 12 0 17 2 24 5 18 2 -7 2 -21 0 -30z m43 6 c0 -10 -4 -19 -10 -19 -5 0 -10
12 -10 26 0 14 4 23 10 19 6 -3 10 -15 10 -26z m62 -23 c-8 -14 -20 27 -14 44
4 11 8 8 12 -10 4 -14 5 -29 2 -34z m38 11 c0 -10 -4 -15 -10 -12 -5 3 -10 18
-10 33 0 21 2 24 10 12 5 -8 10 -23 10 -33z m30 6 c0 -7 -4 -13 -10 -13 -5 0
-10 12 -10 28 0 21 2 24 10 12 5 -8 10 -21 10 -27z m30 0 c0 -7 -4 -13 -10
-13 -5 0 -10 12 -10 28 0 21 2 24 10 12 5 -8 10 -21 10 -27z m29 -6 c1 -5 -3
-5 -9 -2 -5 3 -10 16 -9 28 0 21 1 21 9 2 5 -11 9 -24 9 -28z m-353 -4 c-11
-11 -19 6 -11 24 8 17 8 17 12 0 3 -10 2 -21 -1 -24z m194 11 c0 -14 -4 -23
-9 -20 -7 5 -8 23 -2 44 4 12 11 -3 11 -24z m543 -11 c-13 -2 -33 -2 -45 0
-13 2 -3 4 22 4 25 0 35 -2 23 -4z m-733 -43 c0 -11 -4 -20 -10 -20 -5 0 -10
9 -10 20 0 11 5 20 10 20 6 0 10 -9 10 -20z m33 -5 c-7 -21 -13 -19 -13 6 0
11 4 18 10 14 5 -3 7 -12 3 -20z m55 -83 c16 -13 16 -13 0 -8 -12 3 -18 -2
-21 -17 -2 -12 -5 -3 -6 21 -1 30 -5 42 -16 42 -8 0 -15 -7 -15 -16 0 -8 5
-12 10 -9 6 3 10 -1 10 -9 0 -10 -6 -13 -15 -10 -13 5 -17 18 -15 52 1 4 10 5
22 4 17 -3 20 0 14 21 -3 13 -2 27 2 31 4 5 8 -14 10 -40 2 -29 10 -53 20 -62z
m40 28 c2 -45 -1 -70 -7 -70 -10 0 -13 25 -13 110 0 41 1 44 9 36 4 -4 9 -38
11 -76z m41 18 c0 -29 3 -66 7 -83 5 -27 4 -28 -9 -15 -15 15 -31 142 -20 154
13 13 20 -7 22 -56z m31 26 c0 -13 4 -24 10 -24 5 0 7 13 4 30 -4 18 -2 30 4
30 12 0 26 -94 20 -131 -4 -19 -6 -15 -13 19 -9 52 -22 56 -18 5 6 -77 25
-173 33 -168 4 2 3 28 -2 56 -9 52 -4 75 12 50 4 -8 11 -34 15 -59 4 -24 9
-50 12 -57 3 -9 -6 -13 -31 -12 l-36 1 0 49 c0 26 -4 56 -9 65 -13 25 -23 184
-11 177 6 -3 10 -17 10 -31z m73 -27 c4 -29 10 -69 13 -88 5 -27 4 -32 -6 -22
-13 12 -41 152 -33 166 10 17 21 -5 26 -56z m36 -30 c14 -103 12 -137 -4 -63
-20 92 -28 163 -16 151 5 -5 14 -45 20 -88z m51 67 c0 -8 -4 -12 -10 -9 -5 3
-10 10 -10 16 0 5 5 9 10 9 6 0 10 -7 10 -16z m-364 -59 c1 -13 -2 -27 -7 -30
-5 -4 -9 11 -9 31 0 40 12 40 16 -1z m337 18 c0 -4 6 -35 13 -68 7 -33 9 -64
5 -68 -8 -8 -16 29 -27 118 -3 22 -2 37 1 33 4 -3 7 -10 8 -15z m37 -3 c0 -5
-4 -10 -10 -10 -5 0 -10 5 -10 10 0 6 5 10 10 10 6 0 10 -4 10 -10z m-403 -42
c-3 -8 -6 -5 -6 6 -1 11 2 17 5 13 3 -3 4 -12 1 -19z m400 0 c-3 -8 -6 -5 -6
6 -1 11 2 17 5 13 3 -3 4 -12 1 -19z m230 0 c-3 -8 -6 -5 -6 6 -1 11 2 17 5
13 3 -3 4 -12 1 -19z m-547 -71 c0 -19 -4 -24 -18 -20 -16 4 -18 13 -13 66 2
20 31 -24 31 -46z m42 21 c-9 -9 -12 -7 -12 12 0 19 3 21 12 12 9 -9 9 -15 0
-24z m-97 -10 c-5 -53 -4 -53 -14 -42 -10 10 -3 74 9 74 4 0 6 -15 5 -32z
m-4215 16 c0 -14 -34 -31 -52 -26 -33 8 -21 32 17 32 19 0 35 -3 35 -6z m4129
-22 c5 -10 12 -62 15 -115 l5 -97 -40 0 c-44 0 -41 -8 -41 113 -1 61 3 82 17
97 22 25 32 25 44 2z m1021 -114 c0 -59 -4 -98 -10 -98 -5 0 -10 6 -10 13 0 9
-3 8 -9 -2 -5 -7 -13 -11 -19 -7 -14 8 -6 179 9 208 11 21 12 21 25 3 10 -13
14 -50 14 -117z m-791 45 c0 -44 -3 -63 -9 -57 -12 12 -21 99 -13 120 11 29
21 2 22 -63z m-72 45 c-3 -8 -6 -5 -6 6 -1 11 2 17 5 13 3 -3 4 -12 1 -19z
m105 10 c10 -28 8 -108 -2 -108 -5 0 -10 17 -10 38 0 20 -3 47 -6 60 -7 23 10
32 18 10z m-4237 -8 c4 -6 11 -8 16 -5 5 4 9 0 9 -7 0 -8 -13 -15 -30 -16 -24
-2 -30 2 -30 18 0 21 24 28 35 10z m4455 0 c0 -5 -2 -10 -4 -10 -3 0 -8 5 -11
10 -3 6 -1 10 4 10 6 0 11 -4 11 -10z m-4500 -16 c0 -10 -11 -11 -38 -5 -2 1
-1 5 2 9 8 13 36 10 36 -4z m587 -6 c-3 -8 -6 -5 -6 6 -1 11 2 17 5 13 3 -3 4
-12 1 -19z m33 7 c0 -8 -4 -15 -10 -15 -5 0 -10 7 -10 15 0 8 5 15 10 15 6 0
10 -7 10 -15z m507 -7 c-3 -8 -6 -5 -6 6 -1 11 2 17 5 13 3 -3 4 -12 1 -19z
m2970 -30 c-3 -8 -6 -5 -6 6 -1 11 2 17 5 13 3 -3 4 -12 1 -19z m56 13 c4 -1
7 -6 7 -12 0 -5 -4 -7 -10 -4 -5 3 -10 -1 -10 -10 0 -9 5 -13 10 -10 6 3 10
-1 10 -9 0 -10 -9 -16 -25 -16 -16 0 -25 6 -25 16 0 8 5 12 10 9 6 -3 10 1 10
10 0 9 -4 13 -10 10 -5 -3 -10 0 -10 9 0 8 7 13 18 11 9 -2 20 -4 25 -4z m24
-13 c-3 -8 -6 -5 -6 6 -1 11 2 17 5 13 3 -3 4 -12 1 -19z m273 1 c0 -5 -4 -9
-10 -9 -5 0 -10 7 -10 16 0 8 5 12 10 9 6 -3 10 -10 10 -16z m55 11 c3 -5 1
-10 -4 -10 -6 0 -11 5 -11 10 0 6 2 10 4 10 3 0 8 -4 11 -10z m-85 -10 c0 -5
-4 -10 -10 -10 -5 0 -10 5 -10 10 0 6 5 10 10 10 6 0 10 -4 10 -10z m57 -37
c-3 -10 -5 -2 -5 17 0 19 2 27 5 18 2 -10 2 -26 0 -35z m223 -1 c0 -21 -2 -24
-10 -12 -13 20 -13 53 0 45 6 -3 10 -18 10 -33z m-33 -9 c-3 -10 -5 -4 -5 12
0 17 2 24 5 18 2 -7 2 -21 0 -30z m785 -15 c5 -88 0 -108 -28 -108 -18 0 -24
6 -25 23 l-2 22 -4 -22 c-3 -16 -11 -23 -27 -23 -21 0 -23 5 -25 54 -1 40 4
57 18 70 16 14 57 32 83 35 3 1 8 -23 10 -51z m115 5 c31 -28 35 -36 23 -43
-12 -8 -10 -10 8 -10 12 0 22 -3 22 -7 0 -5 3 -18 6 -31 6 -23 6 -23 -77 -20
l-83 3 -1 70 c-1 39 0 73 1 76 8 15 68 -7 101 -38z m550 15 c-3 -7 -5 -2 -5
12 0 14 2 19 5 13 2 -7 2 -19 0 -25z m-2020 0 c-3 -8 -6 -5 -6 6 -1 11 2 17 5
13 3 -3 4 -12 1 -19z m350 0 c-3 -8 -6 -5 -6 6 -1 11 2 17 5 13 3 -3 4 -12 1
-19z m153 2 c0 -5 -8 -10 -17 -10 -15 0 -16 2 -3 10 19 12 20 12 20 0z m-3815
-21 c4 -6 9 -33 11 -60 3 -48 2 -49 -27 -49 -28 0 -29 1 -29 53 0 30 3 57 7
60 10 11 31 8 38 -4z m205 -15 c6 -14 10 -41 10 -60 0 -31 -2 -34 -30 -34 -30
0 -30 1 -30 53 0 30 3 57 7 60 14 15 34 6 43 -19z m3501 4 c0 -10 2 -10 6 0 4
10 8 9 18 -5 7 -10 11 -22 8 -26 -3 -5 -9 -3 -14 4 -6 10 -9 5 -9 -16 0 -37
-17 -22 -26 23 -4 21 -3 32 5 32 6 0 11 -6 12 -12z m99 1 c0 -5 5 -7 10 -4 6
3 10 0 10 -8 0 -8 -11 -17 -25 -19 -17 -4 -25 -1 -25 8 0 8 5 14 11 14 5 0 7
5 4 10 -3 6 -1 10 4 10 6 0 11 -5 11 -11z m1620 2 c0 -6 -4 -13 -10 -16 -5 -3
-10 1 -10 9 0 9 5 16 10 16 6 0 10 -4 10 -9z m-1940 -47 c0 -14 -6 -24 -14
-24 -21 0 -29 17 -22 46 6 21 9 24 21 14 8 -7 15 -23 15 -36z m162 9 c1 -12
-1 -23 -7 -25 -5 -2 -11 13 -13 32 -4 38 14 32 20 -7z m28 5 c0 -25 -3 -29
-10 -18 -13 20 -13 50 0 50 6 0 10 -15 10 -32z m-3580 12 c0 -5 -7 -10 -15
-10 -8 0 -15 5 -15 10 0 6 7 10 15 10 8 0 15 -4 15 -10z m3260 -12 l9 -23 7
22 c8 28 24 20 24 -11 0 -21 -4 -23 -57 -22 -50 1 -58 4 -58 20 0 11 6 21 13
24 6 2 12 -3 12 -12 0 -9 5 -16 10 -16 6 0 10 9 10 20 0 27 18 25 30 -2z m255
-8 c0 -22 -4 -25 -35 -25 -31 0 -35 3 -38 27 -3 26 -1 27 35 25 33 -2 38 -5
38 -27z m-3948 -27 c-3 -10 -5 -2 -5 17 0 19 2 27 5 18 2 -10 2 -26 0 -35z
m1201 14 c3 -23 0 -27 -22 -27 -21 0 -26 5 -26 23 0 29 6 36 28 33 10 -2 18
-14 20 -29z m177 2 c0 -19 -6 -25 -27 -27 -24 -3 -28 0 -28 21 0 30 7 37 34
33 15 -2 21 -10 21 -27z m2395 5 c0 -14 -4 -23 -9 -20 -5 3 -7 15 -4 26 7 28
13 25 13 -6z m67 -6 c-3 -7 -5 -2 -5 12 0 14 2 19 5 13 2 -7 2 -19 0 -25z
m1023 -13 c0 -19 -4 -35 -10 -35 -11 0 -13 30 -4 54 10 25 14 19 14 -19z
m-4430 16 c0 -6 -4 -13 -10 -16 -5 -3 -10 1 -10 9 0 9 5 16 10 16 6 0 10 -4
10 -9z m4810 -1 c0 -5 7 -10 15 -10 8 0 15 5 15 10 0 15 20 12 38 -7 15 -15
17 -15 20 -1 4 20 84 23 121 5 19 -9 25 -9 28 1 7 19 23 14 23 -7 0 -15 5 -18
21 -14 15 4 20 2 17 -7 -3 -11 -42 -15 -170 -17 -144 -3 -166 -2 -172 12 -6
18 12 44 32 45 6 0 12 -4 12 -10z m340 -15 c0 -14 -4 -25 -10 -25 -5 0 -10 11
-10 25 0 14 5 25 10 25 6 0 10 -11 10 -25z m17 -22 c-3 -10 -5 -2 -5 17 0 19
2 27 5 18 2 -10 2 -26 0 -35z m71 22 c-2 -25 -22 -40 -39 -29 -16 10 -10 24
11 24 11 0 20 7 20 15 0 8 2 15 5 15 3 0 4 -11 3 -25z m29 3 c-3 -8 -6 -5 -6
6 -1 11 2 17 5 13 3 -3 4 -12 1 -19z m33 -3 c0 -14 -4 -25 -10 -25 -5 0 -10
11 -10 25 0 14 5 25 10 25 6 0 10 -11 10 -25z m38 -8 c9 4 20 11 24 17 5 6 8
2 8 -10 0 -22 -23 -35 -47 -27 -7 3 -12 17 -12 31 2 23 2 24 6 5 3 -16 9 -20
21 -16z m92 5 c0 -21 -5 -28 -20 -28 -15 0 -20 7 -20 28 0 21 5 28 20 28 15 0
20 -7 20 -28z m-5084 -8 c-3 -7 3 -15 12 -17 9 -3 -21 -4 -68 -4 -74 0 -78 1
-35 7 28 4 42 8 33 8 -26 3 -22 20 5 24 33 5 59 -3 53 -18z m5970 15 c3 -5 14
-4 25 2 30 15 70 7 87 -18 l14 -23 -156 0 c-86 0 -156 3 -156 7 0 3 7 14 15
23 12 13 33 17 90 17 41 0 78 -3 81 -8z m-6686 -9 c0 -5 -11 -10 -25 -10 -14
0 -25 5 -25 10 0 6 11 10 25 10 14 0 25 -4 25 -10z m100 0 l25 -8 -25 -2 c-21
-2 -19 -4 10 -10 24 -5 5 -7 -60 -7 -52 0 -83 2 -67 4 15 2 27 11 27 19 0 16
47 18 90 4z m5765 -9 c3 -5 1 -13 -5 -16 -15 -9 -43 3 -35 15 8 13 32 13 40 1z
m2603 0 c6 0 12 -5 12 -11 0 -6 -32 -10 -77 -10 -65 1 -75 3 -62 13 14 10 71
14 127 8z m52 -6 c10 -13 9 -15 -9 -15 -12 0 -21 6 -21 15 0 8 4 15 9 15 5 0
14 -7 21 -15z m-8147 -12 c-7 -2 -19 -2 -25 0 -7 3 -2 5 12 5 14 0 19 -2 13
-5z m154 1 c-3 -3 -12 -4 -19 -1 -8 3 -5 6 6 6 11 1 17 -2 13 -5z"/>
<path d="M6128 763 c7 -3 16 -2 19 1 4 3 -2 6 -13 5 -11 0 -14 -3 -6 -6z"/>
<path d="M6101 724 c0 -11 3 -14 6 -6 3 7 2 16 -1 19 -3 4 -6 -2 -5 -13z"/>
<path d="M6131 685 l2 -60 7 50 c4 28 3 54 -1 60 -5 5 -8 -16 -8 -50z"/>
<path d="M6160 725 c0 -8 5 -15 10 -15 6 0 10 7 10 15 0 8 -4 15 -10 15 -5 0
-10 -7 -10 -15z"/>
<path d="M6167 693 c-2 -5 -1 -19 4 -33 7 -23 7 -23 8 8 1 31 -3 40 -12 25z"/>
<path d="M6133 545 c0 -22 2 -30 4 -17 2 12 2 30 0 40 -3 9 -5 -1 -4 -23z"/>
<path d="M6169 548 c4 -28 6 -29 9 -9 2 13 0 27 -5 32 -6 6 -7 -3 -4 -23z"/>
<path d="M6133 425 c0 -22 2 -30 4 -17 2 12 2 30 0 40 -3 9 -5 -1 -4 -23z"/>
<path d="M6168 420 c2 -16 6 -30 8 -30 2 0 4 14 4 30 0 17 -4 30 -8 30 -5 0
-7 -13 -4 -30z"/>
<path d="M6131 298 c-1 -27 3 -48 7 -48 4 0 6 17 4 38 -5 58 -10 62 -11 10z"/>
<path d="M6168 275 c-3 -14 -1 -25 3 -25 5 0 9 11 9 25 0 14 -2 25 -4 25 -2 0
-6 -11 -8 -25z"/>
<path d="M5091 344 c0 -11 3 -14 6 -6 3 7 2 16 -1 19 -3 4 -6 -2 -5 -13z"/>
<path d="M5291 2834 c0 -11 3 -14 6 -6 3 7 2 16 -1 19 -3 4 -6 -2 -5 -13z"/>
<path d="M5240 2785 c0 -19 5 -35 10 -35 6 0 10 16 10 35 0 19 -4 35 -10 35
-5 0 -10 -16 -10 -35z"/>
<path d="M5288 2775 c-2 -21 0 -35 7 -35 7 0 9 14 7 35 -2 19 -5 35 -7 35 -2
0 -5 -16 -7 -35z"/>
<path d="M2521 2685 c-1 -20 5 -20 340 -18 188 1 344 5 347 8 3 3 -148 5 -336
5 -263 0 -341 3 -345 13 -3 6 -6 3 -6 -8z"/>
<path d="M5510 2691 c0 -6 5 -13 10 -16 6 -3 10 1 10 9 0 9 -4 16 -10 16 -5 0
-10 -4 -10 -9z"/>
<path d="M5166 2670 c-19 -6 -19 -7 2 -12 12 -4 24 -2 27 2 8 13 -8 18 -29 10z"/>
<path d="M5210 2664 c0 -8 5 -12 10 -9 6 4 8 11 5 16 -9 14 -15 11 -15 -7z"/>
<path d="M2653 2615 c0 -22 2 -30 4 -17 2 12 2 30 0 40 -3 9 -5 -1 -4 -23z"/>
<path d="M2891 2634 c0 -11 3 -14 6 -6 3 7 2 16 -1 19 -3 4 -6 -2 -5 -13z"/>
<path d="M2921 2634 c0 -11 3 -14 6 -6 3 7 2 16 -1 19 -3 4 -6 -2 -5 -13z"/>
<path d="M5472 2630 c0 -14 2 -19 5 -12 2 6 2 18 0 25 -3 6 -5 1 -5 -13z"/>
<path d="M2799 2618 c-6 -21 -5 -38 2 -38 5 0 9 9 9 20 0 16 -7 28 -11 18z"/>
<path d="M2972 2600 c0 -14 2 -19 5 -12 2 6 2 18 0 25 -3 6 -5 1 -5 -13z"/>
<path d="M3010 2600 c0 -19 3 -21 12 -12 9 9 9 15 0 24 -9 9 -12 7 -12 -12z"/>
<path d="M2561 2594 c0 -11 3 -14 6 -6 3 7 2 16 -1 19 -3 4 -6 -2 -5 -13z"/>
<path d="M2610 2595 c0 -8 2 -15 4 -15 2 0 6 7 10 15 3 8 1 15 -4 15 -6 0 -10
-7 -10 -15z"/>
<path d="M2700 2594 c0 -8 5 -12 10 -9 6 3 10 10 10 16 0 5 -4 9 -10 9 -5 0
-10 -7 -10 -16z"/>
<path d="M2740 2596 c0 -8 5 -18 10 -21 6 -3 10 3 10 14 0 12 -4 21 -10 21 -5
0 -10 -6 -10 -14z"/>
<path d="M2833 2595 c0 -8 4 -15 9 -15 4 0 8 7 8 15 0 8 -4 15 -8 15 -5 0 -9
-7 -9 -15z"/>
<path d="M2886 2595 c4 -8 8 -15 10 -15 2 0 4 7 4 15 0 8 -4 15 -10 15 -5 0
-7 -7 -4 -15z"/>
<path d="M2916 2595 c4 -8 8 -15 10 -15 2 0 4 7 4 15 0 8 -4 15 -10 15 -5 0
-7 -7 -4 -15z"/>
<path d="M3060 2595 c0 -8 5 -15 10 -15 6 0 10 7 10 15 0 8 -4 15 -10 15 -5 0
-10 -7 -10 -15z"/>
<path d="M3100 2601 c0 -6 5 -13 10 -16 6 -3 10 1 10 9 0 9 -4 16 -10 16 -5 0
-10 -4 -10 -9z"/>
<path d="M3161 2594 c0 -11 3 -14 6 -6 3 7 2 16 -1 19 -3 4 -6 -2 -5 -13z"/>
<path d="M4985 2570 c3 -5 10 -10 16 -10 5 0 9 5 9 10 0 6 -7 10 -16 10 -8 0
-12 -4 -9 -10z"/>
<path d="M2732 2538 c-2 -35 0 -38 26 -37 22 1 23 2 5 6 -16 3 -23 13 -26 36
-4 31 -4 31 -5 -5z"/>
<path d="M2868 2563 c7 -3 16 -2 19 1 4 3 -2 6 -13 5 -11 0 -14 -3 -6 -6z"/>
<path d="M2819 2533 c-5 -28 -3 -33 15 -33 13 0 17 3 10 8 -7 4 -14 18 -16 32
-3 23 -4 22 -9 -7z"/>
<path d="M2901 2534 c0 -11 3 -14 6 -6 3 7 2 16 -1 19 -3 4 -6 -2 -5 -13z"/>
<path d="M4990 2531 c0 -6 5 -13 10 -16 6 -3 10 1 10 9 0 9 -4 16 -10 16 -5 0
-10 -4 -10 -9z"/>
<path d="M2954 2509 c-3 -5 6 -9 20 -9 31 0 34 6 6 13 -11 3 -23 1 -26 -4z"/>
<path d="M2658 2503 c6 -2 18 -2 25 0 6 3 1 5 -13 5 -14 0 -19 -2 -12 -5z"/>
<path d="M2883 2503 c9 -2 23 -2 30 0 6 3 -1 5 -18 5 -16 0 -22 -2 -12 -5z"/>
<path d="M3048 2503 c6 -2 18 -2 25 0 6 3 1 5 -13 5 -14 0 -19 -2 -12 -5z"/>
<path d="M2600 2463 c0 -5 14 -8 30 -8 17 0 30 3 30 8 0 4 -13 7 -30 7 -16 0
-30 -3 -30 -7z"/>
<path d="M2702 2463 c23 -4 27 -10 31 -41 l4 -37 1 43 c2 41 2 42 -30 41 -30
-2 -30 -2 -6 -6z"/>
<path d="M2778 2463 c6 -2 18 -2 25 0 6 3 1 5 -13 5 -14 0 -19 -2 -12 -5z"/>
<path d="M2840 2466 c0 -2 11 -6 25 -8 14 -3 25 -1 25 3 0 5 -11 9 -25 9 -14
0 -25 -2 -25 -4z"/>
<path d="M2918 2463 c7 -3 16 -2 19 1 4 3 -2 6 -13 5 -11 0 -14 -3 -6 -6z"/>
<path d="M3070 2466 c0 -2 13 -6 29 -8 17 -2 28 -1 25 4 -5 8 -54 12 -54 4z"/>
<path d="M2821 2438 c0 -15 -9 -32 -18 -37 -13 -8 12 -10 90 -11 59 0 107 4
107 9 0 4 -33 7 -74 6 -83 -3 -92 0 -99 35 -4 25 -4 25 -6 -2z"/>
<path d="M2596 2411 c-4 -7 -5 -15 -2 -18 9 -9 19 4 14 18 -4 11 -6 11 -12 0z"/>
<path d="M2520 2399 c0 -5 5 -7 10 -4 6 3 10 8 10 11 0 2 -4 4 -10 4 -5 0 -10
-5 -10 -11z"/>
<path d="M2650 2400 c0 -5 9 -10 20 -10 11 0 20 5 20 10 0 6 -9 10 -20 10 -11
0 -20 -4 -20 -10z"/>
<path d="M2750 2400 c0 -5 7 -10 15 -10 8 0 15 5 15 10 0 6 -7 10 -15 10 -8 0
-15 -4 -15 -10z"/>
<path d="M3040 2400 c0 -5 7 -10 15 -10 8 0 15 5 15 10 0 6 -7 10 -15 10 -8 0
-15 -4 -15 -10z"/>
<path d="M3115 2400 c-3 -5 -1 -10 4 -10 6 0 11 5 11 10 0 6 -2 10 -4 10 -3 0
-8 -4 -11 -10z"/>
<path d="M3190 2399 c0 -5 5 -7 10 -4 6 3 10 8 10 11 0 2 -4 4 -10 4 -5 0 -10
-5 -10 -11z"/>
<path d="M2600 2367 c0 -9 10 -12 30 -9 17 2 30 8 30 13 0 5 -13 9 -30 9 -18
0 -30 -5 -30 -13z"/>
<path d="M2680 2369 c0 -5 11 -9 24 -9 18 0 26 -7 29 -22 4 -21 4 -21 6 3 l1
25 107 -2 c59 -2 114 1 122 6 10 6 -38 9 -136 9 -86 0 -153 -5 -153 -10z"/>
<path d="M2990 2370 c0 -5 14 -10 30 -10 17 0 30 4 30 8 0 4 -13 9 -30 10 -16
1 -30 -2 -30 -8z"/>
<path d="M3070 2370 c0 -5 11 -10 24 -10 14 0 28 5 31 10 4 6 -7 10 -24 10
-17 0 -31 -4 -31 -10z"/>
<path d="M2821 2334 c0 -11 3 -14 6 -6 3 7 2 16 -1 19 -3 4 -6 -2 -5 -13z"/>
<path d="M2961 2334 c0 -11 3 -14 6 -6 3 7 2 16 -1 19 -3 4 -6 -2 -5 -13z"/>
<path d="M2595 2300 c3 -5 8 -10 11 -10 2 0 4 5 4 10 0 6 -5 10 -11 10 -5 0
-7 -4 -4 -10z"/>
<path d="M2650 2301 c0 -10 26 -9 36 2 4 4 -2 7 -14 7 -12 0 -22 -4 -22 -9z"/>
<path d="M2755 2300 c3 -5 10 -10 16 -10 5 0 9 5 9 10 0 6 -7 10 -16 10 -8 0
-12 -4 -9 -10z"/>
<path d="M2810 2300 c0 -5 9 -10 20 -10 11 0 20 5 20 10 0 6 -9 10 -20 10 -11
0 -20 -4 -20 -10z"/>
<path d="M2880 2300 c0 -5 9 -10 20 -10 11 0 20 5 20 10 0 6 -9 10 -20 10 -11
0 -20 -4 -20 -10z"/>
<path d="M2950 2301 c0 -5 11 -8 25 -7 33 1 33 16 0 16 -14 0 -25 -4 -25 -9z"/>
<path d="M3040 2300 c0 -5 7 -10 15 -10 8 0 15 5 15 10 0 6 -7 10 -15 10 -8 0
-15 -4 -15 -10z"/>
<path d="M2601 2244 c0 -11 3 -14 6 -6 3 7 2 16 -1 19 -3 4 -6 -2 -5 -13z"/>
<path d="M2732 2240 c0 -14 2 -19 5 -12 2 6 2 18 0 25 -3 6 -5 1 -5 -13z"/>
<path d="M2822 2240 c0 -14 2 -19 5 -12 2 6 2 18 0 25 -3 6 -5 1 -5 -13z"/>
<path d="M2595 2200 c3 -5 8 -10 11 -10 2 0 4 5 4 10 0 6 -5 10 -11 10 -5 0
-7 -4 -4 -10z"/>
<path d="M2650 2200 c0 -5 9 -10 20 -10 11 0 20 5 20 10 0 6 -9 10 -20 10 -11
0 -20 -4 -20 -10z"/>
<path d="M2755 2200 c3 -5 10 -10 16 -10 5 0 9 5 9 10 0 6 -7 10 -16 10 -8 0
-12 -4 -9 -10z"/>
<path d="M2815 2200 c3 -5 13 -10 21 -10 8 0 14 5 14 10 0 6 -9 10 -21 10 -11
0 -17 -4 -14 -10z"/>
<path d="M2880 2200 c0 -5 9 -10 20 -10 11 0 20 5 20 10 0 6 -9 10 -20 10 -11
0 -20 -4 -20 -10z"/>
<path d="M2950 2201 c0 -5 11 -8 25 -8 14 0 25 3 25 8 0 5 -11 9 -25 9 -14 0
-25 -4 -25 -9z"/>
<path d="M3040 2200 c0 -5 7 -10 15 -10 8 0 15 5 15 10 0 6 -7 10 -15 10 -8 0
-15 -4 -15 -10z"/>
<path d="M2528 2173 c7 -3 16 -2 19 1 4 3 -2 6 -13 5 -11 0 -14 -3 -6 -6z"/>
<path d="M2793 2173 c37 -2 97 -2 135 0 37 2 6 3 -68 3 -74 0 -105 -1 -67 -3z"/>
<path d="M2733 2125 c0 -22 2 -30 4 -17 2 12 2 30 0 40 -3 9 -5 -1 -4 -23z"/>
<path d="M2821 2133 c-1 -21 -7 -33 -18 -36 -10 -3 15 -5 56 -6 41 0 71 2 67
7 -4 4 -26 7 -49 7 -38 0 -42 3 -48 30 l-7 30 -1 -32z"/>
<path d="M2951 2106 c-12 -14 -10 -16 18 -16 17 0 31 5 31 11 0 6 -6 9 -14 6
-8 -3 -16 -1 -18 5 -2 6 -9 3 -17 -6z"/>
<path d="M2595 2100 c-3 -5 -1 -10 4 -10 6 0 11 5 11 10 0 6 -2 10 -4 10 -3 0
-8 -4 -11 -10z"/>
<path d="M2650 2098 c0 -4 9 -8 20 -8 11 0 20 4 20 9 0 6 -9 9 -20 8 -11 -1
-20 -5 -20 -9z"/>
<path d="M2750 2100 c0 -5 7 -10 16 -10 8 0 12 5 9 10 -3 6 -10 10 -16 10 -5
0 -9 -4 -9 -10z"/>
<path d="M3040 2100 c0 -5 7 -10 15 -10 8 0 15 5 15 10 0 6 -7 10 -15 10 -8 0
-15 -4 -15 -10z"/>
<path d="M2651 2064 c0 -11 3 -14 6 -6 3 7 2 16 -1 19 -3 4 -6 -2 -5 -13z"/>
<path d="M2681 2064 c0 -11 3 -14 6 -6 3 7 2 16 -1 19 -3 4 -6 -2 -5 -13z"/>
<path d="M2753 2073 c9 -2 17 -9 17 -13 0 -6 10 -6 24 0 14 5 51 8 83 6 32 -1
69 1 83 5 14 4 -31 7 -100 7 -69 0 -117 -2 -107 -5z"/>
<path d="M3085 2070 c-3 -5 -1 -10 4 -10 6 0 11 5 11 10 0 6 -2 10 -4 10 -3 0
-8 -4 -11 -10z"/>
<path d="M2606 2061 c-4 -5 3 -7 14 -4 23 6 26 13 6 13 -8 0 -17 -4 -20 -9z"/>
<path d="M2727 2049 c4 -13 8 -18 11 -10 2 7 -1 18 -6 23 -8 8 -9 4 -5 -13z"/>
<path d="M4668 2016 c-3 -16 0 -27 10 -31 21 -8 24 -2 13 29 -13 32 -17 33
-23 2z"/>
<path d="M2594 2009 c-3 -6 -1 -16 5 -22 8 -8 11 -5 11 11 0 24 -5 28 -16 11z"/>
<path d="M2730 1996 c0 -17 2 -18 10 -6 6 10 10 11 10 3 0 -7 7 -13 15 -13 8
0 15 5 15 11 0 5 5 7 12 3 6 -4 8 -3 5 3 -4 6 -20 13 -37 15 -25 4 -30 1 -30
-16z"/>
<path d="M2816 2013 c-13 -14 -5 -33 14 -33 11 0 20 6 20 14 0 15 -24 28 -34
19z"/>
<path d="M2888 2011 c-11 -4 -14 -11 -9 -19 10 -16 42 -13 48 4 5 15 -17 23
-39 15z"/>
<path d="M2950 2006 c-13 -16 -3 -26 27 -26 13 0 23 6 23 14 0 18 -37 27 -50
12z"/>
<path d="M3053 2013 c-18 -7 -16 -30 2 -30 8 0 15 9 15 19 0 10 -1 18 -2 17
-2 0 -9 -3 -15 -6z"/>
<path d="M2520 1995 c0 -8 2 -15 4 -15 2 0 6 7 10 15 3 8 1 15 -4 15 -6 0 -10
-7 -10 -15z"/>
<path d="M2650 1997 c0 -7 9 -13 20 -14 11 -1 20 4 20 13 0 8 -9 14 -20 14
-11 0 -20 -6 -20 -13z"/>
<path d="M3116 1995 c4 -8 7 -15 9 -15 2 0 5 7 9 15 3 9 0 15 -9 15 -9 0 -12
-6 -9 -15z"/>
<path d="M2731 1933 c-1 -36 -4 -43 -21 -43 -11 0 -20 6 -20 14 0 9 -9 14 -20
13 -11 -1 -20 -7 -20 -14 0 -7 -9 -13 -20 -13 -14 0 -20 7 -20 23 0 17 -2 19
-9 8 -5 -8 -7 -20 -4 -27 6 -16 61 -24 68 -10 3 8 7 8 10 0 3 -6 17 -9 31 -6
24 4 25 3 22 -34 -2 -27 -8 -40 -20 -42 -11 -2 -18 3 -18 12 0 9 -8 16 -20 16
-11 0 -20 -7 -20 -15 0 -8 -9 -15 -20 -15 -12 0 -20 7 -20 17 0 12 -3 14 -11
6 -17 -17 2 -38 34 -38 15 -1 27 3 27 8 0 4 6 5 13 0 6 -4 22 -6 35 -4 19 2
22 -2 22 -33 0 -32 -3 -36 -26 -36 -14 0 -23 4 -19 10 3 6 1 10 -4 10 -6 0
-11 -6 -11 -12 0 -9 -4 -8 -10 2 -6 10 -10 11 -10 3 0 -20 -38 -15 -43 5 -4
16 -5 16 -6 0 -1 -14 -10 -18 -35 -18 -19 0 -37 6 -39 13 -3 6 -6 3 -6 -8 -1
-18 5 -20 77 -18 42 0 90 -1 105 -4 27 -5 29 -8 25 -44 -3 -37 -2 -39 24 -39
18 0 28 5 28 15 0 8 -8 15 -19 15 -13 0 -20 9 -23 29 -3 24 -1 29 14 28 10 -1
18 -5 18 -10 0 -4 5 -5 11 -1 6 3 101 8 211 9 187 3 239 11 207 30 -8 5 -10 4
-5 -3 5 -8 -4 -12 -28 -12 -24 0 -36 5 -39 18 -4 16 -5 16 -6 0 -1 -19 -51
-27 -51 -8 0 6 -7 10 -15 10 -8 0 -15 -4 -15 -10 0 -5 -15 -10 -32 -10 -25 0
-29 3 -18 10 13 8 13 10 -2 10 -9 0 -19 8 -21 18 -3 10 -5 6 -6 -10 -1 -23 -6
-28 -25 -28 -15 0 -26 7 -28 17 -3 16 -4 16 -20 0 -25 -26 -44 -20 -56 16
l-10 32 -1 -32 c-1 -32 -2 -33 -41 -31 -39 1 -40 2 -40 40 0 35 8 47 22 32 9
-9 208 -10 208 -1 0 5 5 5 12 1 7 -4 25 -7 40 -7 15 1 46 2 68 2 35 1 40 4 40
24 -1 20 -2 20 -11 5 -12 -22 -38 -23 -45 -3 -4 8 -12 15 -20 15 -8 0 -14 -7
-14 -15 0 -8 -9 -15 -20 -15 -12 0 -20 7 -20 16 0 10 -6 14 -15 10 -8 -3 -15
0 -15 6 0 7 -4 7 -12 1 -7 -6 -35 -10 -63 -10 -27 0 -56 4 -62 10 -9 6 -13 6
-13 -2 0 -7 -15 -10 -40 -9 -37 3 -40 5 -40 34 0 21 5 31 15 31 8 0 15 -4 15
-9 0 -5 5 -6 10 -3 6 4 45 7 87 7 63 0 79 -3 91 -18 13 -18 13 -18 10 1 -3 18
2 19 62 18 36 -1 72 -3 80 -5 10 -2 16 6 18 27 2 22 0 26 -7 15 -5 -8 -7 -18
-5 -22 3 -4 -6 -8 -20 -8 -15 0 -25 5 -23 12 1 6 -6 14 -15 16 -11 2 -18 -2
-18 -12 0 -9 -8 -16 -20 -16 -11 0 -20 6 -20 14 0 7 -9 16 -20 19 -11 3 -20 1
-20 -4 0 -5 -11 -9 -25 -9 -14 0 -25 4 -25 10 0 6 -9 5 -24 -2 -32 -14 -53 -5
-59 24 -4 20 -4 19 -6 -5 -1 -27 -3 -28 -38 -25 -33 3 -39 7 -44 33 -6 27 -7
25 -8 -12z"/>
<path d="M2990 1959 c0 -5 5 -7 10 -4 6 3 10 8 10 11 0 2 -4 4 -10 4 -5 0 -10
-5 -10 -11z"/>
<path d="M2520 1910 c0 -5 5 -10 11 -10 5 0 7 5 4 10 -3 6 -8 10 -11 10 -2 0
-4 -4 -4 -10z"/>
<path d="M3190 1900 c0 -11 2 -20 4 -20 2 0 6 9 9 20 3 11 1 20 -4 20 -5 0 -9
-9 -9 -20z"/>
<path d="M4537 1840 c-10 -36 -9 -82 2 -76 5 4 12 0 14 -6 8 -19 7 22 -1 67
-7 36 -8 38 -15 15z"/>
<path d="M5677 1831 c-4 -18 -7 -48 -6 -65 1 -30 1 -30 9 -6 6 23 8 21 12 -15
l5 -40 1 40 c0 22 -2 58 -7 80 l-7 40 -7 -34z"/>
<path d="M2520 1809 c0 -11 4 -18 10 -14 5 3 7 12 3 20 -7 21 -13 19 -13 -6z"/>
<path d="M3192 1810 c0 -14 2 -19 5 -12 2 6 2 18 0 25 -3 6 -5 1 -5 -13z"/>
<path d="M4640 1768 c0 -5 16 -8 35 -8 19 0 37 0 40 0 3 0 5 3 5 6 0 4 -18 7
-40 8 -22 1 -40 -2 -40 -6z"/>
<path d="M4521 1734 c0 -11 3 -14 6 -6 3 7 2 16 -1 19 -3 4 -6 -2 -5 -13z"/>
<path d="M4562 1710 c0 -14 2 -19 5 -12 2 6 2 18 0 25 -3 6 -5 1 -5 -13z"/>
<path d="M2812 1654 c-7 -8 -9 -14 -5 -14 4 0 1 -5 -7 -10 -12 -8 -9 -10 13
-10 16 0 35 7 43 15 14 13 13 15 -4 15 -11 0 -22 4 -24 9 -1 5 -9 3 -16 -5z"/>
<path d="M2593 1635 c0 -8 6 -15 13 -15 8 0 11 6 8 15 -4 8 -9 15 -13 15 -4 0
-8 -7 -8 -15z"/>
<path d="M2650 1635 c0 -8 9 -15 20 -15 11 0 20 7 20 15 0 8 -9 15 -20 15 -11
0 -20 -7 -20 -15z"/>
<path d="M2872 1635 c-11 -13 -8 -15 21 -15 23 0 34 5 34 15 0 19 -38 19 -55
0z"/>
<path d="M2946 1635 c-4 -11 2 -15 24 -15 20 0 30 5 30 15 0 9 -9 15 -24 15
-13 0 -26 -7 -30 -15z"/>
<path d="M3040 1635 c0 -8 8 -15 18 -15 10 0 19 7 19 15 0 8 -9 15 -19 15 -10
0 -18 -7 -18 -15z"/>
<path d="M3113 1635 c0 -8 6 -15 12 -15 6 0 12 7 12 15 0 8 -6 15 -12 15 -6 0
-12 -7 -12 -15z"/>
<path d="M2732 1568 c-2 -43 -4 -47 -29 -51 l-28 -4 28 -2 c24 -1 27 -5 27
-35 0 -39 14 -48 48 -33 16 8 26 8 30 0 8 -12 42 -13 42 -1 0 4 7 8 15 8 8 0
15 -4 15 -8 0 -4 9 -8 20 -9 11 -1 20 2 20 8 0 5 7 9 15 9 8 0 15 -4 15 -10 0
-5 7 -10 16 -10 8 0 12 4 9 10 -3 6 1 7 9 4 9 -3 16 -1 16 5 0 13 -12 14 -102
12 -66 -2 -67 -1 -71 26 l-4 28 -2 -27 c-1 -26 -4 -28 -41 -28 l-39 0 -4 78
c-2 44 -4 57 -5 30z"/>
<path d="M2905 1599 c-4 -6 -5 -12 -2 -15 2 -3 7 2 10 11 7 17 1 20 -8 4z"/>
<path d="M2819 1575 c-4 -27 -7 -30 -36 -27 -23 1 -33 -2 -33 -12 0 -17 33
-30 58 -22 9 3 32 2 50 -3 20 -6 32 -6 32 0 0 5 11 7 25 3 31 -8 85 13 85 32
0 14 -25 14 -48 0 -8 -5 -24 -3 -39 5 -20 11 -26 11 -33 -1 -13 -20 -42 -2
-51 31 -6 23 -6 23 -10 -6z"/>
<path d="M4504 1589 c-2 -4 14 -9 36 -11 23 -2 40 1 40 7 0 11 -69 14 -76 4z"/>
<path d="M5675 1591 l-40 -7 43 -5 c30 -3 42 -1 42 8 0 7 -1 12 -2 12 -2 -1
-21 -5 -43 -8z"/>
<path d="M3116 1553 c-5 -22 -14 -33 -29 -36 -18 -4 -17 -5 6 -6 27 -1 31 -9
27 -58 -1 -17 4 -23 19 -23 16 0 21 -6 21 -26 0 -16 -5 -24 -12 -21 -7 2 -12
11 -10 21 2 9 -3 16 -10 16 -9 0 -13 -15 -13 -44 0 -24 3 -42 7 -40 15 9 38
-10 38 -32 0 -25 -25 -34 -33 -11 -2 6 -6 0 -9 -15 -3 -16 -1 -28 3 -28 5 0 9
-5 9 -11 0 -5 -3 -8 -7 -6 -5 3 -8 -35 -8 -85 l0 -90 31 5 c17 3 36 2 43 -3
21 -12 -4 -22 -42 -16 -32 5 -32 4 -31 -30 2 -40 -21 -58 -41 -31 -23 32 -34
18 -33 -43 1 -52 3 -60 20 -60 11 0 17 -4 14 -9 -3 -5 5 -12 18 -15 22 -5 23
-10 21 -73 -1 -38 -3 -71 -4 -75 -2 -14 -32 -8 -37 7 -8 20 -24 19 -40 -2 -13
-16 -15 -17 -26 -2 -19 23 -42 28 -54 10 -10 -13 -16 -14 -37 -2 -14 7 -30 10
-36 7 -6 -4 -22 4 -35 17 -16 16 -26 21 -29 13 -3 -7 -19 -11 -36 -10 -25 2
-31 -2 -32 -19 -1 -14 -5 -8 -9 13 -4 19 -8 27 -9 17 -1 -14 -7 -16 -31 -12
-20 4 -30 1 -30 -7 0 -9 -3 -8 -10 2 -7 11 -10 11 -10 2 0 -10 -5 -10 -21 -2
-28 15 -49 -3 -46 -40 2 -24 27 -64 27 -42 0 5 27 9 60 9 52 0 60 -3 60 -19 0
-16 -10 -18 -111 -18 -69 0 -108 -4 -104 -10 4 -6 -82 -9 -241 -9 -135 0 -249
-2 -252 -5 -3 -4 187 -6 422 -6 261 0 425 -4 421 -9 -3 -5 -1 -12 5 -16 6 -4
10 5 10 19 l0 26 130 0 c77 0 130 -4 130 -10 0 -5 -6 -7 -13 -4 -10 4 -14 -11
-15 -58 l-2 -63 65 0 c45 1 65 -3 65 -11 0 -7 -5 -16 -12 -20 -7 -4 -8 -3 -4
4 4 7 1 12 -8 12 -8 0 -18 -5 -22 -11 -3 -6 -24 -9 -45 -7 -36 3 -39 2 -38
-22 0 -14 3 -19 6 -12 6 15 27 15 70 0 49 -18 40 -27 -22 -25 -39 1 -55 -2
-55 -11 0 -8 8 -10 25 -6 14 3 32 3 41 0 13 -5 14 -9 4 -21 -9 -10 -9 -15 -1
-15 6 0 11 -7 11 -15 0 -8 -5 -15 -12 -15 -9 0 -9 -3 0 -12 20 -20 13 -29 -20
-26 -25 2 -34 8 -36 26 -3 19 1 22 30 23 27 1 28 3 8 6 -14 2 -31 12 -37 21
-11 13 -13 7 -13 -39 l0 -54 32 0 c24 0 34 -5 36 -19 3 -16 -1 -18 -32 -14
-22 2 -36 0 -36 -7 0 -6 16 -9 40 -7 32 3 40 1 40 -12 0 -9 -4 -16 -10 -16 -5
0 -10 -5 -10 -11 0 -7 29 -9 91 -6 86 5 138 17 71 17 -18 0 -32 4 -32 10 0 10
57 23 79 18 7 -2 15 2 18 9 3 8 -8 10 -35 7 -33 -3 -41 0 -45 16 -4 17 0 20
27 20 18 0 38 -6 45 -13 10 -10 12 -8 9 8 -2 16 -11 20 -41 20 -20 0 -37 3
-37 8 0 4 0 14 0 22 0 21 50 19 65 -2 12 -15 13 -13 12 20 -1 34 -17 56 -17
23 0 -23 -57 -17 -63 5 -7 24 0 27 46 24 20 -2 37 1 37 6 0 5 -29 9 -65 9 -37
0 -65 4 -65 10 0 6 5 11 10 11 6 1 14 2 19 3 5 0 13 4 17 8 11 12 64 10 64 -2
0 -5 4 -10 8 -10 5 0 9 14 10 31 0 22 -3 28 -11 21 -18 -14 -67 -21 -73 -10
-3 5 -14 6 -25 3 -14 -5 -19 -1 -19 14 0 19 5 20 65 17 l65 -3 0 33 c0 21 -7
37 -17 44 -13 8 -14 13 -5 16 17 8 15 24 -3 24 -10 0 -15 10 -15 30 0 27 -3
30 -30 30 -20 0 -30 5 -30 15 0 18 46 21 53 3 5 -11 7 11 7 59 0 4 -21 8 -47
9 -77 2 -80 3 -64 13 7 5 35 9 62 8 83 0 54 14 -33 17 -122 4 -128 5 -128 17
0 6 10 10 23 9 12 -1 31 -2 42 -1 16 1 17 3 5 10 -8 6 -27 7 -42 4 -23 -4 -28
-2 -28 14 0 18 8 19 103 19 56 0 103 4 104 8 2 5 -31 8 -72 7 -48 -2 -75 2
-75 8 0 11 10 12 115 15 33 0 63 5 67 10 4 6 13 4 22 -4 22 -17 30 -7 32 39 2
38 2 38 -35 35 -20 -1 -35 -7 -33 -13 1 -6 -3 -11 -9 -11 -6 0 -9 12 -7 27 3
27 1 27 -39 24 -35 -2 -43 1 -43 14 0 14 8 16 40 13 l40 -4 0 60 c0 33 -3 56
-7 52 -5 -4 -8 -18 -8 -29 0 -17 -7 -23 -27 -25 -25 -3 -33 4 -30 29 1 8 -100
20 -107 13 -3 -2 6 -8 19 -11 22 -6 23 -7 4 -14 -40 -16 -52 -11 -50 23 l2 33
104 2 c142 3 138 3 115 12 -11 5 -33 6 -50 4 -16 -3 -63 -2 -105 2 -101 10
-64 23 57 20 51 -2 93 1 93 6 0 5 -7 9 -15 9 -12 0 -15 14 -15 67 0 36 3 63 7
60 6 -7 32 21 33 36 0 4 -9 7 -20 7 -17 0 -20 7 -20 50 0 36 4 50 14 50 19 0
30 32 14 41 -10 7 -10 11 0 21 14 14 16 28 3 28 -5 0 -11 -9 -14 -21 -6 -23
-27 -17 -27 7 0 23 -37 16 -44 -8 l-7 -23 -11 23 c-13 26 -33 29 -46 5 -9 -14
-10 -14 -17 6 -6 21 -8 21 -32 6 -23 -15 -26 -15 -38 1 -11 16 -13 15 -19 -13z
m144 -25 c0 -5 -7 -8 -15 -8 -17 0 -18 2 -9 25 5 13 8 14 15 3 5 -7 9 -16 9
-20z m63 12 c3 -13 0 -20 -9 -20 -8 0 -14 9 -14 20 0 11 4 20 9 20 5 0 11 -9
14 -20z m-138 0 c3 -5 1 -10 -4 -10 -6 0 -11 5 -11 10 0 6 2 10 4 10 3 0 8 -4
11 -10z m-10 -40 c18 -8 17 -9 -7 -9 -16 -1 -28 4 -28 9 0 12 8 12 35 0z m183
-5 c3 -3 -32 -5 -77 -5 -45 0 -80 3 -77 8 5 8 146 6 154 -3z m-173 -24 c-3 -5
-2 -12 3 -15 13 -8 8 -69 -6 -74 -10 -3 -13 7 -10 39 2 37 0 44 -14 41 -10 -2
-18 2 -18 8 0 5 12 10 26 10 14 0 23 -4 19 -9z m145 -41 c0 -38 -4 -50 -15
-50 -10 0 -15 10 -15 28 0 41 -20 60 -65 65 -26 2 -17 4 28 5 l67 2 0 -50z
m-97 -99 c4 0 7 -8 7 -17 0 -8 -4 -12 -10 -9 -5 3 -10 -1 -10 -10 0 -9 -5 -13
-11 -9 -8 4 -8 9 0 17 14 14 14 27 1 27 -5 0 -12 -11 -16 -25 -9 -34 -24 -31
-24 4 0 30 2 31 63 22z m97 -56 c0 -64 -1 -65 -26 -65 -26 0 -53 24 -53 45 0
6 6 2 14 -9 7 -10 18 -15 24 -11 15 9 14 26 -1 23 -7 -2 -12 3 -10 11 2 7 -4
21 -13 31 -11 12 -13 20 -6 25 6 3 11 -1 11 -9 0 -9 6 -15 13 -13 6 1 11 -6 9
-15 -2 -10 2 -18 8 -18 15 0 12 17 -6 45 -16 24 -16 25 10 25 25 0 26 -2 26
-65z m-70 5 c0 -5 -4 -10 -10 -10 -5 0 -10 5 -10 10 0 6 5 10 10 10 6 0 10 -4
10 -10z m-32 -52 c-19 -19 -52 -16 -56 5 -4 20 9 22 27 5 10 -11 14 -9 23 7 7
12 13 15 16 7 2 -6 -2 -17 -10 -24z m-68 2 c0 -11 -4 -20 -10 -20 -5 0 -10 9
-10 20 0 11 5 20 10 20 6 0 10 -9 10 -20z m-20 -90 c0 -5 -2 -10 -4 -10 -3 0
-8 5 -11 10 -3 6 -1 10 4 10 6 0 11 -4 11 -10z m210 -85 c0 -9 -9 -15 -25 -15
-14 0 -25 4 -25 9 0 6 -19 12 -42 14 -31 2 -24 4 25 5 54 2 67 -1 67 -13z
m-213 -47 c-3 -8 -6 -5 -6 6 -1 11 2 17 5 13 3 -3 4 -12 1 -19z m83 7 c0 -5
-16 -11 -35 -12 -26 -2 -35 1 -35 12 0 11 9 14 35 12 19 -1 35 -6 35 -12z m40
-5 c0 -5 -4 -10 -10 -10 -5 0 -10 5 -10 10 0 6 5 10 10 10 6 0 10 -4 10 -10z
m87 -63 c1 -26 -2 -37 -12 -37 -18 0 -28 17 -15 25 5 3 7 18 4 32 -5 19 -3 24
7 21 7 -2 14 -21 16 -41z m-177 23 c0 -5 -4 -10 -10 -10 -5 0 -10 5 -10 10 0
6 5 10 10 10 6 0 10 -4 10 -10z m93 3 c-7 -2 -19 -2 -25 0 -7 3 -2 5 12 5 14
0 19 -2 13 -5z m-83 -49 c0 -8 -7 -14 -15 -14 -15 0 -21 21 -9 33 10 9 24 -2
24 -19z m-43 -6 c-3 -8 -6 -5 -6 6 -1 11 2 17 5 13 3 -3 4 -12 1 -19z m237 7
c3 -8 1 -15 -4 -15 -6 0 -10 7 -10 15 0 8 2 15 4 15 2 0 6 -7 10 -15z m-204
-40 c0 -8 -4 -15 -8 -15 -5 0 -9 7 -9 15 0 8 4 15 9 15 4 0 8 -7 8 -15z m-55
-5 c3 -5 2 -10 -4 -10 -5 0 -13 5 -16 10 -3 6 -2 10 4 10 5 0 13 -4 16 -10z
m22 -42 c-3 -8 -6 -5 -6 6 -1 11 2 17 5 13 3 -3 4 -12 1 -19z m93 -83 c0 -8
-4 -15 -10 -15 -5 0 -10 5 -10 11 0 8 -5 8 -15 -1 -15 -13 -65 -6 -65 8 0 5
23 9 50 11 39 2 50 -1 50 -14z m-40 -35 c0 -5 -9 -10 -20 -10 -11 0 -20 5 -20
10 0 6 9 10 20 10 11 0 20 -4 20 -10z m70 -5 c0 -8 -4 -15 -9 -15 -13 0 -22
16 -14 24 11 11 23 6 23 -9z m90 0 c0 -15 -26 -20 -54 -9 -28 11 -17 24 19 24
24 0 35 -5 35 -15z m-597 -41 c-5 -13 0 -14 31 -9 26 5 36 4 36 -5 0 -9 6 -8
18 3 10 10 26 17 35 17 9 0 17 5 17 12 0 9 3 9 12 0 7 -7 17 -8 30 -1 13 7 18
6 18 -2 0 -8 5 -8 16 2 9 7 18 9 22 3 9 -12 55 -12 64 1 5 6 8 6 8 -2 0 -7 12
-11 27 -10 20 2 28 -3 31 -18 2 -11 9 -23 16 -27 6 -4 -80 -7 -191 -6 l-203 1
0 34 c0 19 4 32 10 28 5 -3 6 -13 3 -21z m397 4 c0 6 9 12 20 12 11 0 20 -7
20 -15 0 -10 -10 -15 -30 -15 -22 0 -30 5 -30 18 0 14 2 15 10 2 6 -10 10 -11
10 -2z m40 -38 c0 -5 -9 -10 -20 -10 -11 0 -20 5 -20 10 0 6 9 10 20 10 11 0
20 -4 20 -10z m156 -17 c4 -22 1 -23 -66 -23 -40 0 -70 4 -70 10 0 6 20 10 45
10 34 0 45 4 45 16 0 25 42 13 46 -13z m-758 -10 c-10 -2 -28 -2 -40 0 -13 2
-5 4 17 4 22 1 32 -1 23 -4z m70 0 c-10 -2 -26 -2 -35 0 -10 3 -2 5 17 5 19 0
27 -2 18 -5z m65 0 c-7 -2 -21 -2 -30 0 -10 3 -4 5 12 5 17 0 24 -2 18 -5z
m80 0 c-13 -2 -33 -2 -45 0 -13 2 -3 4 22 4 25 0 35 -2 23 -4z m64 1 c-3 -3
-12 -4 -19 -1 -8 3 -5 6 6 6 11 1 17 -2 13 -5z m323 -4 c0 -5 -9 -10 -20 -10
-11 0 -20 5 -20 10 0 6 9 10 20 10 11 0 20 -4 20 -10z m110 -42 c0 -5 -35 -8
-80 -7 -44 2 -80 6 -80 10 0 4 36 7 80 7 44 0 80 -5 80 -10z m40 2 c0 -5 -7
-10 -15 -10 -8 0 -15 5 -15 10 0 6 7 10 15 10 8 0 15 -4 15 -10z m9 -34 c6 -4
11 -3 11 3 0 6 7 8 15 5 18 -7 20 -30 3 -36 -7 -3 -65 -5 -128 -6 -80 -1 -117
3 -122 11 -12 19 -9 25 15 29 40 6 194 1 206 -6z"/>
<path d="M2597 1553 c-13 -21 5 -43 34 -43 16 0 29 5 29 10 0 6 7 10 15 10 8
0 15 6 15 14 0 9 -9 14 -20 13 -12 -1 -20 -8 -20 -19 0 -25 -29 -22 -39 4 -4
13 -10 17 -14 11z"/>
<path d="M3040 1545 c0 -8 9 -15 20 -15 13 0 18 5 14 15 -4 8 -12 15 -20 15
-8 0 -14 -7 -14 -15z"/>
<path d="M4624 1539 c-12 -20 12 -30 62 -27 37 2 50 7 52 21 3 14 -5 17 -52
17 -30 0 -58 -5 -62 -11z"/>
<path d="M3003 1513 c9 -2 23 -2 30 0 6 3 -1 5 -18 5 -16 0 -22 -2 -12 -5z"/>
<path d="M4678 1493 c-59 -5 -64 -21 -5 -19 42 1 42 1 48 -39 6 -39 6 -39 8
13 0 28 0 51 -1 50 -2 -1 -24 -3 -50 -5z"/>
<path d="M8222 1475 c0 -16 2 -22 5 -12 2 9 2 23 0 30 -3 6 -5 -1 -5 -18z"/>
<path d="M2520 1460 c0 -5 5 -10 11 -10 5 0 7 5 4 10 -3 6 -8 10 -11 10 -2 0
-4 -4 -4 -10z"/>
<path d="M2594 1459 c-3 -6 -1 -16 5 -22 8 -8 11 -5 11 11 0 24 -5 28 -16 11z"/>
<path d="M3053 1463 c-18 -6 -16 -23 1 -23 17 0 30 16 19 23 -5 2 -14 2 -20 0z"/>
<path d="M2650 1447 c0 -7 9 -13 20 -13 11 0 20 6 20 13 0 7 -9 13 -20 13 -11
0 -20 -6 -20 -13z"/>
<path d="M2730 1380 c-3 -25 -4 -64 -2 -87 l3 -43 135 0 c112 0 134 2 134 15
0 8 -7 15 -15 15 -8 0 -15 6 -15 13 0 6 -6 3 -12 -8 -16 -30 -16 -30 -37 -11
-17 15 -20 15 -34 1 -9 -8 -18 -15 -22 -15 -13 0 -35 29 -36 47 0 10 -5 3 -10
-14 -9 -30 -39 -47 -39 -23 0 6 -8 10 -19 10 -13 0 -20 9 -23 29 l-4 30 68 -4
c37 -2 72 -6 78 -10 5 -3 10 -2 10 3 0 5 15 9 33 9 68 0 77 3 77 21 0 21 -41
24 -48 4 -5 -17 -30 -15 -40 4 -8 14 -10 14 -25 0 -8 -9 -18 -16 -22 -16 -11
0 -35 28 -36 42 0 7 -5 1 -11 -14 -9 -26 -38 -40 -38 -18 0 6 -9 10 -19 10
-14 0 -21 8 -23 28 -3 20 -5 15 -8 -18z"/>
<path d="M2818 1413 c6 -2 18 -2 25 0 6 3 1 5 -13 5 -14 0 -19 -2 -12 -5z"/>
<path d="M2956 1407 c3 -10 9 -15 12 -12 3 3 0 11 -7 18 -10 9 -11 8 -5 -6z"/>
<path d="M4524 1392 l-31 -3 5 -93 c3 -58 0 -96 -6 -100 -6 -3 -8 -14 -6 -24
6 -22 100 -26 109 -4 9 23 -2 29 -45 25 l-40 -4 0 69 0 69 40 -1 c39 -2 40 -1
40 30 0 35 -12 41 -66 36z m53 -45 c3 -4 -10 -7 -30 -7 -20 0 -37 3 -37 8 0 9
57 8 67 -1z"/>
<path d="M5639 1395 c-1 0 -3 -16 -4 -36 l-2 -35 48 0 c27 1 49 4 49 9 0 4
-18 7 -40 7 -22 0 -40 3 -40 8 0 4 17 7 37 7 27 0 39 5 41 16 2 13 -7 18 -42
21 -26 2 -47 3 -47 3z"/>
<path d="M2602 1360 c0 -14 2 -19 5 -12 2 6 2 18 0 25 -3 6 -5 1 -5 -13z"/>
<path d="M4721 1364 c0 -11 3 -14 6 -6 3 7 2 16 -1 19 -3 4 -6 -2 -5 -13z"/>
<path d="M2651 1343 c0 -24 2 -25 8 -8 8 19 8 19 19 0 11 -18 11 -18 12 8 0
20 -5 27 -20 27 -15 0 -20 -6 -19 -27z"/>
<path d="M3040 1353 c0 -9 3 -13 7 -10 3 4 13 1 21 -6 13 -10 15 -9 9 6 -4 10
-7 21 -7 23 0 2 -7 4 -15 4 -8 0 -15 -7 -15 -17z"/>
<path d="M4705 1330 c-11 -4 -35 -5 -52 -2 -28 4 -33 2 -33 -16 0 -27 5 -30
65 -33 46 -3 50 -1 53 20 5 30 -7 41 -33 31z"/>
<path d="M3958 1189 l-3 -114 -68 -3 c-51 -2 -67 0 -65 10 2 10 -35 14 -169
16 -95 2 -173 -1 -173 -5 0 -4 71 -8 158 -8 l157 0 5 -305 5 -305 3 229 c2
181 5 226 15 219 6 -6 71 -10 142 -9 127 1 130 2 133 24 3 22 3 22 -136 22
-103 0 -142 -3 -145 -12 -3 -7 -6 15 -6 50 l-1 62 76 0 c69 0 75 -2 69 -17
-18 -44 -18 -53 3 -53 26 0 38 18 23 33 -28 28 -12 37 65 37 l75 0 -1 -62 c-2
-95 3 -94 9 2 l6 85 158 2 c87 1 161 4 165 7 3 4 -75 5 -174 4 -128 -2 -178
-6 -177 -14 2 -8 -19 -12 -65 -10 l-67 1 -1 108 c-1 59 -4 110 -7 114 -4 3 -8
-46 -9 -108z"/>
<path d="M2599 1288 c-6 -21 -5 -38 2 -38 5 0 9 9 9 20 0 16 -7 28 -11 18z"/>
<path d="M2650 1265 c0 -8 9 -15 20 -15 11 0 20 7 20 15 0 8 -9 15 -20 15 -11
0 -20 -7 -20 -15z"/>
<path d="M3040 1265 c0 -8 8 -15 18 -15 10 0 19 7 19 15 0 8 -9 15 -19 15 -10
0 -18 -7 -18 -15z"/>
<path d="M4581 1264 c0 -11 3 -14 6 -6 3 7 2 16 -1 19 -3 4 -6 -2 -5 -13z"/>
<path d="M4000 1250 c0 -11 7 -20 15 -20 8 0 15 9 15 20 0 11 -7 20 -15 20 -8
0 -15 -9 -15 -20z"/>
<path d="M2520 1249 c0 -5 5 -7 10 -4 6 3 10 8 10 11 0 2 -4 4 -10 4 -5 0 -10
-5 -10 -11z"/>
<path d="M4623 1248 c-2 -5 24 -8 58 -8 34 0 60 3 56 6 -9 9 -108 10 -114 2z"/>
<path d="M2601 1224 c0 -11 3 -14 6 -6 3 7 2 16 -1 19 -3 4 -6 -2 -5 -13z"/>
<path d="M2729 1193 c2 -27 6 -42 8 -35 3 6 9 12 14 12 6 0 8 -4 5 -9 -9 -14
21 -16 141 -11 90 4 111 8 104 18 -5 8 -26 14 -52 14 -71 0 -80 -1 -74 -12 3
-5 -1 -10 -10 -10 -9 0 -13 5 -10 10 3 6 -1 10 -9 10 -11 0 -16 10 -17 28 -1
29 -3 24 -13 -20 -7 -30 -30 -38 -40 -13 -3 8 -12 12 -21 9 -11 -5 -15 1 -15
25 0 17 -3 31 -8 31 -4 0 -5 -21 -3 -47z m218 -29 c-3 -3 -12 -4 -19 -1 -8 3
-5 6 6 6 11 1 17 -2 13 -5z"/>
<path d="M4055 1230 c-3 -5 -1 -10 4 -10 6 0 11 5 11 10 0 6 -2 10 -4 10 -3 0
-8 -4 -11 -10z"/>
<path d="M2520 1180 c0 -5 5 -10 11 -10 5 0 7 5 4 10 -3 6 -8 10 -11 10 -2 0
-4 -4 -4 -10z"/>
<path d="M2598 1185 c-11 -11 3 -35 21 -35 10 0 12 3 5 8 -6 4 -13 13 -15 20
-3 7 -7 10 -11 7z"/>
<path d="M2663 1183 c-7 -3 -12 -17 -12 -31 1 -17 3 -21 6 -9 2 9 8 17 13 17
5 0 11 -8 13 -17 3 -12 5 -8 6 9 1 29 -7 38 -26 31z"/>
<path d="M3040 1181 c0 -5 -3 -18 -7 -28 -6 -16 -5 -16 10 -4 9 7 17 10 17 5
0 -5 4 -2 9 6 6 8 7 18 5 22 -7 11 -34 10 -34 -1z"/>
<path d="M8373 1182 c-16 -10 -81 -418 -68 -430 2 -2 7 19 11 47 4 31 11 48
17 44 6 -4 8 2 4 16 -3 12 1 61 9 109 8 48 14 104 14 125 0 20 4 37 9 37 5 0
8 -95 8 -222 -1 -123 1 -271 5 -331 5 -86 4 -110 -8 -121 -8 -8 -14 -21 -14
-28 0 -11 -2 -11 -9 0 -7 11 -9 11 -14 0 -4 -11 -27 -14 -93 -14 -78 1 -89 3
-88 18 1 10 -2 15 -7 12 -5 -3 -9 0 -9 6 0 7 -7 5 -16 -4 -8 -9 -21 -16 -28
-16 -7 0 -21 -7 -32 -15 -17 -13 3 -15 194 -14 l212 2 0 23 c0 14 6 24 14 24
9 0 12 -8 8 -25 -2 -15 0 -25 7 -25 6 0 11 11 11 25 0 14 5 25 10 25 6 0 10
-9 10 -20 0 -25 25 -36 45 -20 8 7 15 8 15 3 0 -5 25 -10 56 -11 30 -1 58 -3
62 -3 4 -1 69 -1 146 0 115 1 137 3 127 14 -6 8 -8 17 -4 21 4 4 0 4 -10 0 -9
-3 -14 -10 -11 -15 7 -12 -9 -12 -22 1 -17 17 -85 20 -91 4 -6 -17 -123 -21
-123 -4 0 6 -8 5 -21 -2 -17 -11 -22 -10 -32 3 -7 9 -22 19 -35 23 -16 5 -22
15 -22 34 0 22 2 24 10 12 7 -10 9 88 7 313 -2 180 0 327 4 327 15 0 10 37 -6
50 -12 10 -16 9 -21 -3 -3 -9 -3 -21 1 -27 4 -7 -30 -10 -105 -10 -61 0 -109
3 -107 8 8 14 -8 41 -20 34z m192 -62 l-40 -7 40 -2 c29 -1 36 -4 28 -12 -6
-6 -9 -18 -6 -25 6 -16 -6 -18 -27 -4 -13 9 -13 10 0 10 13 0 13 1 0 10 -22
14 -31 12 -28 -7 2 -14 -4 -18 -32 -18 -23 0 -35 5 -35 14 0 8 -6 16 -14 19
-10 3 -12 0 -8 -11 8 -21 -8 -31 -30 -18 -17 10 -17 10 1 11 20 0 20 0 0 15
-18 13 -16 14 21 16 l40 2 -40 7 c-28 5 -8 7 65 7 73 0 93 -2 65 -7z m-120
-97 c1 -18 -4 -23 -24 -23 -21 0 -23 2 -11 11 11 8 12 12 3 16 -21 8 -14 25 9
21 14 -2 22 -11 23 -25z m91 2 c-1 -22 -6 -25 -36 -25 -30 0 -35 3 -36 25 -2
23 2 25 36 25 34 0 38 -2 36 -25z m59 15 c3 -5 1 -10 -6 -10 -8 0 -8 -4 1 -15
11 -13 8 -15 -14 -15 -25 0 -38 19 -13 21 10 0 10 2 0 6 -7 2 -13 9 -13 14 0
12 37 12 45 -1z m-150 -70 c4 -6 -5 -10 -19 -10 -14 0 -26 5 -26 10 0 6 9 10
19 10 11 0 23 -4 26 -10z m91 -12 c-2 -18 -10 -24 -38 -26 -32 -3 -35 -1 -35
22 0 23 3 26 38 26 35 0 39 -2 35 -22z m64 12 c0 -5 -6 -10 -12 -11 -10 0 -10
-2 0 -6 17 -7 5 -23 -19 -23 -21 0 -27 19 -6 21 10 0 10 2 0 6 -22 8 -14 23
12 23 14 0 25 -4 25 -10z m-160 -30 c0 -5 -7 -10 -15 -10 -8 0 -15 5 -15 10 0
6 7 10 15 10 8 0 15 -4 15 -10z m5 -48 c1 -17 -4 -22 -24 -22 -18 0 -22 3 -13
9 11 6 10 10 -5 16 -17 7 -17 8 2 15 28 12 38 7 40 -18z m90 3 c1 -26 -9 -32
-44 -27 -22 3 -28 9 -26 25 1 12 3 23 4 25 0 2 16 2 34 0 24 -2 32 -8 32 -23z
m60 16 c3 -5 0 -13 -6 -17 -8 -4 -7 -9 2 -15 10 -6 5 -9 -16 -9 -23 0 -27 3
-15 10 10 6 11 10 3 10 -7 0 -13 7 -13 15 0 16 35 21 45 6z m-145 -86 c0 -21
-5 -25 -27 -25 -23 0 -25 2 -13 11 11 8 12 12 3 16 -22 8 -14 23 12 23 20 0
25 -5 25 -25z m86 0 c-1 -22 -6 -25 -36 -25 -30 0 -35 3 -36 25 -2 23 2 25 36
25 34 0 38 -2 36 -25z m60 0 c-1 -19 -7 -25 -23 -25 -18 0 -23 6 -23 25 0 20
5 25 24 25 19 0 24 -5 22 -25z m-146 -69 c0 -20 -4 -22 -26 -18 -19 3 -22 7
-12 13 10 7 10 9 1 9 -7 0 -13 5 -13 10 0 6 11 10 25 10 20 0 25 -5 25 -24z
m86 9 c-3 -8 -1 -15 4 -15 6 0 10 7 10 15 0 9 9 15 23 15 16 0 23 -6 23 -20 0
-11 -7 -20 -16 -21 -96 -7 -113 -4 -116 19 -4 20 0 22 37 22 32 0 40 -3 35
-15z m-86 -70 c0 -21 -4 -25 -27 -24 -24 2 -25 2 -5 6 19 4 34 25 15 22 -5 -1
-15 -1 -23 0 -13 1 -13 2 0 11 26 17 40 11 40 -15z m138 10 c-2 -5 -9 -9 -15
-7 -7 2 -13 -2 -13 -7 0 -5 10 -12 23 -14 12 -2 -10 -5 -49 -6 -68 -1 -71 0
-68 22 1 12 3 23 3 24 3 8 121 -4 119 -12z m-138 -80 c0 -14 -4 -25 -10 -25
-5 0 -7 7 -3 15 3 9 2 15 -3 14 -19 -3 -34 1 -34 11 0 6 11 10 25 10 20 0 25
-5 25 -25z m86 9 c-3 -9 -6 -20 -6 -25 0 -5 -13 -9 -30 -9 -16 0 -30 4 -30 9
0 5 -3 16 -6 25 -5 13 2 16 36 16 34 0 41 -3 36 -16z m57 9 c3 -5 1 -17 -4
-28 -6 -17 -8 -17 -8 -2 -1 9 -6 17 -12 17 -6 0 -9 -7 -5 -15 3 -8 1 -15 -4
-15 -6 0 -10 11 -10 25 0 18 5 25 19 25 11 0 22 -3 24 -7z m-143 -82 c0 -25
-3 -29 -21 -26 -30 6 -37 15 -11 15 12 0 22 4 22 9 0 5 -9 7 -20 4 -11 -3 -20
-1 -20 5 0 6 10 13 23 15 12 2 23 5 25 6 1 0 2 -12 2 -28z m148 14 c4 -3 -5
-9 -18 -12 l-25 -7 25 -6 25 -6 -27 -6 c-23 -4 -28 -2 -28 15 0 11 -3 17 -7
13 -5 -4 -8 -13 -8 -19 0 -7 -15 -12 -34 -12 -26 0 -35 5 -37 19 -2 11 -1 23
2 27 5 8 124 3 132 -6z m-148 -84 c0 -26 -3 -28 -27 -22 -26 5 -26 6 -5 9 25
4 31 21 6 18 -9 0 -19 5 -21 12 -3 7 5 12 21 12 22 0 26 -5 26 -29z m84 -1 c0
-22 -4 -25 -33 -25 -30 0 -34 3 -37 28 -3 27 -1 28 34 25 32 -3 37 -6 36 -28z
m59 14 c-2 -5 -7 -10 -13 -10 -24 -3 -24 -6 0 -13 l25 -7 -27 -6 c-25 -5 -28
-2 -28 23 0 24 4 28 23 25 12 -1 21 -7 20 -12z m-143 -74 c0 -11 -2 -20 -4
-20 -2 0 -6 9 -9 20 -3 11 -1 20 4 20 5 0 9 -9 9 -20z m107 -12 c-3 -7 -5 -2
-5 12 0 14 2 19 5 13 2 -7 2 -19 0 -25z"/>
<path d="M8530 690 c0 -5 5 -10 10 -10 6 0 10 5 10 10 0 6 -4 10 -10 10 -5 0
-10 -4 -10 -10z"/>
<path d="M1810 1091 c0 -40 -6 -70 -16 -86 l-16 -25 -378 0 -377 0 -134 -61
c-74 -34 -138 -66 -144 -70 -5 -5 183 -9 424 -9 285 0 430 -3 426 -10 -4 -7
72 -10 219 -10 144 0 226 4 226 10 0 6 108 10 305 10 l305 0 0 -30 c0 -23 4
-30 20 -30 11 0 19 3 19 8 -5 32 3 52 21 52 26 0 28 -46 3 -53 -10 -3 19 -5
65 -6 47 -1 82 -5 82 -11 0 -5 7 -10 16 -10 8 0 12 5 9 10 -4 6 19 10 62 11
37 0 63 3 56 5 -7 3 -10 11 -7 18 4 10 -9 12 -51 10 -42 -2 -54 0 -47 9 5 7
12 21 16 31 5 16 4 17 -9 6 -11 -9 -15 -9 -15 -1 0 7 -4 10 -8 7 -4 -2 -14 -1
-22 5 -10 6 13 9 67 9 69 0 81 2 77 15 -4 8 -12 15 -20 15 -8 0 -14 9 -14 19
0 11 -5 23 -12 27 -7 4 -8 3 -4 -5 12 -18 -2 -61 -19 -61 -8 0 -15 5 -15 10 0
6 -9 10 -20 10 -11 0 -20 -4 -20 -10 0 -26 -49 5 -51 32 0 7 -5 2 -10 -11 -7
-17 -14 -21 -27 -16 -9 4 -25 10 -34 12 -10 3 -19 15 -19 27 -1 17 -2 17 -6 4
-5 -21 -17 -23 -35 -5 -7 8 -20 16 -28 20 -12 4 -11 6 3 6 24 1 22 31 -3 31
-11 0 -20 -7 -20 -15 0 -18 -14 -19 -28 -2 -11 13 -97 15 -109 3 -4 -3 -152
-6 -329 -6 l-323 0 -20 26 c-13 17 -21 41 -21 65 0 35 3 39 25 39 16 0 25 6
25 15 0 8 -6 15 -14 15 -8 0 -21 3 -30 6 -14 5 -16 -3 -16 -55z m30 -101 c0
-5 -9 -10 -20 -10 -11 0 -20 5 -20 10 0 6 9 10 20 10 11 0 20 -4 20 -10z m978
-167 c2 -8 -6 -13 -22 -13 -25 0 -33 10 -19 24 10 10 36 3 41 -11z m52 -4 c0
-5 -7 -9 -15 -9 -15 0 -20 12 -9 23 8 8 24 -1 24 -14z m-63 -25 c-3 -3 -12 -4
-19 -1 -8 3 -5 6 6 6 11 1 17 -2 13 -5z m140 0 c-3 -3 -12 -4 -19 -1 -8 3 -5
6 6 6 11 1 17 -2 13 -5z"/>
<path d="M2731 1124 c0 -11 3 -14 6 -6 3 7 2 16 -1 19 -3 4 -6 -2 -5 -13z"/>
<path d="M2819 1115 c-4 -31 -14 -34 -66 -22 -18 5 -23 2 -23 -14 0 -19 7 -20
135 -18 125 1 135 2 135 20 0 19 -22 22 -48 5 -8 -5 -24 -3 -39 5 -20 11 -26
11 -33 -1 -13 -20 -42 -2 -51 31 -6 23 -6 23 -10 -6z"/>
<path d="M4490 886 c0 -138 4 -246 8 -240 4 7 18 12 32 12 48 0 60 2 60 12 0
6 -20 10 -45 10 l-45 0 0 221 c0 190 2 220 15 216 8 -4 17 -2 20 2 2 5 -6 11
-20 13 l-25 5 0 -251z"/>
<path d="M4550 1123 c0 -6 9 -11 20 -10 11 1 20 6 20 12 0 6 -9 11 -20 11 -11
0 -20 -6 -20 -13z"/>
<path d="M8647 998 c7 -68 18 -131 23 -140 5 -10 7 -24 4 -33 -4 -8 -1 -15 6
-15 8 0 10 -11 5 -32 -5 -26 -4 -29 5 -16 8 13 6 49 -9 135 -10 65 -22 142
-26 171 -4 28 -10 52 -14 52 -4 0 -1 -55 6 -122z"/>
<path d="M6222 1090 c0 -14 2 -19 5 -12 2 6 2 18 0 25 -3 6 -5 1 -5 -13z"/>
<path d="M2520 1080 c0 -11 4 -20 9 -20 5 0 7 9 4 20 -3 11 -7 20 -9 20 -2 0
-4 -9 -4 -20z"/>
<path d="M2596 1092 c-2 -4 -1 -14 5 -22 7 -12 9 -10 9 8 0 23 -5 28 -14 14z"/>
<path d="M2650 1080 c0 -9 9 -16 20 -17 13 -1 20 4 20 17 0 13 -7 18 -20 17
-11 -1 -20 -8 -20 -17z"/>
<path d="M3040 1082 c0 -10 7 -19 15 -19 8 0 15 9 15 19 0 10 -7 18 -15 18 -8
0 -15 -8 -15 -18z"/>
<path d="M6140 1080 c0 -5 7 -10 15 -10 8 0 15 5 15 10 0 6 -7 10 -15 10 -8 0
-15 -4 -15 -10z"/>
<path d="M5722 1030 c0 -19 2 -27 5 -17 2 9 2 25 0 35 -3 9 -5 1 -5 -18z"/>
<path d="M2732 1010 c-1 -32 1 -41 8 -30 8 13 10 12 10 -3 0 -10 4 -16 9 -13
5 4 12 0 14 -6 3 -7 6 -1 6 15 1 20 -4 27 -18 27 -14 0 -21 8 -24 28 -3 17 -4
11 -5 -18z"/>
<path d="M2955 1040 c3 -5 8 -10 11 -10 2 0 4 5 4 10 0 6 -5 10 -11 10 -5 0
-7 -4 -4 -10z"/>
<path d="M2816 1005 c-4 -16 -13 -34 -19 -38 -8 -6 -5 -7 6 -3 10 3 25 6 33 6
8 0 14 7 14 15 0 8 -4 15 -9 15 -5 0 -11 8 -13 18 -3 12 -6 8 -12 -13z"/>
<path d="M2956 1002 c-14 -14 -4 -29 19 -29 14 0 25 5 25 12 0 13 -35 27 -44
17z"/>
<path d="M2880 985 c0 -8 9 -15 20 -15 11 0 20 7 20 15 0 8 -9 15 -20 15 -11
0 -20 -7 -20 -15z"/>
<path d="M3599 944 c2 -26 7 -41 11 -35 4 7 5 23 2 37 -4 22 -1 24 31 24 33 0
35 -2 41 -42 8 -52 23 -35 18 20 l-4 39 -51 2 -52 2 4 -47z"/>
<path d="M4227 983 c-4 -3 -7 -24 -7 -45 0 -36 2 -39 23 -32 24 8 64 7 78 -2
5 -3 9 -88 9 -190 0 -121 -3 -183 -10 -179 -6 4 -10 62 -9 143 1 207 1 212
-15 212 -10 0 -16 -13 -19 -37 l-4 -38 -1 38 c-1 20 -6 37 -12 37 -9 0 -17
-510 -10 -629 1 -27 -1 -33 -14 -28 -9 4 -16 2 -16 -3 0 -6 28 -10 63 -10 l62
0 -2 158 c-1 86 -2 259 -2 385 l-1 227 -53 0 c-30 0 -57 -3 -60 -7z m83 -23
c0 -5 -13 -10 -30 -10 -16 0 -30 5 -30 10 0 6 14 10 30 10 17 0 30 -4 30 -10z
m-13 -117 c-3 -10 -5 -4 -5 12 0 17 2 24 5 18 2 -7 2 -21 0 -30z m-20 -140
c-2 -21 -4 -4 -4 37 0 41 2 58 4 38 2 -21 2 -55 0 -75z m20 0 c-2 -21 -4 -6
-4 32 0 39 2 55 4 38 2 -18 2 -50 0 -70z m-20 -150 c-2 -21 -4 -6 -4 32 0 39
2 55 4 38 2 -18 2 -50 0 -70z m20 -5 c-2 -18 -4 -4 -4 32 0 36 2 50 4 33 2
-18 2 -48 0 -65z m30 -250 c-1 -40 -3 -8 -3 72 0 80 2 112 3 73 2 -40 2 -106
0 -145z m-50 135 c-2 -16 -4 -5 -4 22 0 28 2 40 4 28 2 -13 2 -35 0 -50z m20
-5 c-2 -13 -4 -3 -4 22 0 25 2 35 4 23 2 -13 2 -33 0 -45z m-20 -105 c-2 -16
-4 -5 -4 22 0 28 2 40 4 28 2 -13 2 -35 0 -50z m20 5 c-2 -13 -4 -3 -4 22 0
25 2 35 4 23 2 -13 2 -33 0 -45z m-20 -85 c-3 -10 -5 -2 -5 17 0 19 2 27 5 18
2 -10 2 -26 0 -35z m20 5 c-3 -7 -5 -2 -5 12 0 14 2 19 5 13 2 -7 2 -19 0 -25z"/>
<path d="M8198 923 c6 -2 18 -2 25 0 6 3 1 5 -13 5 -14 0 -19 -2 -12 -5z"/>
<path d="M4124 695 c0 -121 2 -169 3 -107 2 62 2 161 0 220 -1 59 -3 8 -3
-113z"/>
<path d="M3619 853 c0 -21 0 -169 -1 -330 0 -235 -3 -291 -13 -287 -7 3 -16 1
-20 -5 -4 -8 16 -11 62 -10 37 1 60 3 51 6 -17 4 -18 29 -18 334 l0 329 -30 0
c-28 0 -30 -3 -31 -37z m18 -20 c-3 -10 -5 -2 -5 17 0 19 2 27 5 18 2 -10 2
-26 0 -35z m30 0 c-3 -10 -5 -2 -5 17 0 19 2 27 5 18 2 -10 2 -26 0 -35z m-30
-130 c-2 -21 -4 -6 -4 32 0 39 2 55 4 38 2 -18 2 -50 0 -70z m30 0 c-2 -21 -4
-6 -4 32 0 39 2 55 4 38 2 -18 2 -50 0 -70z m-30 -150 c-2 -21 -4 -6 -4 32 0
39 2 55 4 38 2 -18 2 -50 0 -70z m30 0 c-2 -21 -4 -6 -4 32 0 39 2 55 4 38 2
-18 2 -50 0 -70z m-30 -125 c-2 -13 -4 -3 -4 22 0 25 2 35 4 23 2 -13 2 -33 0
-45z m30 0 c-2 -13 -4 -3 -4 22 0 25 2 35 4 23 2 -13 2 -33 0 -45z m-30 -100
c-2 -13 -4 -3 -4 22 0 25 2 35 4 23 2 -13 2 -33 0 -45z m30 0 c-2 -13 -4 -3
-4 22 0 25 2 35 4 23 2 -13 2 -33 0 -45z m-30 -85 c-3 -10 -5 -4 -5 12 0 17 2
24 5 18 2 -7 2 -21 0 -30z m30 0 c-3 -10 -5 -4 -5 12 0 17 2 24 5 18 2 -7 2
-21 0 -30z"/>
<path d="M3852 858 c5 -13 78 -18 78 -5 0 4 5 5 11 1 10 -6 45 -7 119 -5 11 1
20 6 20 11 0 6 -45 10 -116 10 -85 0 -115 -3 -112 -12z"/>
<path d="M3380 849 c0 -5 5 -7 10 -4 6 3 10 8 10 11 0 2 -4 4 -10 4 -5 0 -10
-5 -10 -11z"/>
<path d="M3344 829 c-3 -6 -1 -16 5 -22 8 -8 11 -5 11 11 0 24 -5 28 -16 11z"/>
<path d="M2520 815 c0 -8 4 -15 8 -15 5 0 9 7 9 15 0 8 -4 15 -9 15 -4 0 -8
-7 -8 -15z"/>
<path d="M2600 820 c0 -5 0 -13 1 -16 0 -4 -5 -11 -13 -15 -9 -6 -7 -9 8 -9
17 0 20 5 16 25 -4 25 -12 34 -12 15z"/>
<path d="M3041 802 c-9 -17 -7 -19 13 -19 16 0 23 5 22 15 -4 24 -23 26 -35 4z"/>
<path d="M3863 770 c0 -30 2 -43 4 -27 2 15 2 39 0 55 -2 15 -4 2 -4 -28z"/>
<path d="M8198 813 c6 -2 18 -2 25 0 6 3 1 5 -13 5 -14 0 -19 -2 -12 -5z"/>
<path d="M1633 777 c-16 -21 -22 -69 -14 -129 1 -5 88 -8 194 -8 180 0 194 1
210 20 9 11 12 20 7 20 -15 0 -12 50 3 50 7 1 5 6 -5 14 -10 7 -18 17 -18 23
0 5 -5 14 -12 21 -9 9 -16 8 -31 -6 -18 -16 -20 -16 -33 2 -11 16 -16 17 -29
6 -8 -7 -15 -17 -15 -22 0 -6 6 -5 15 2 15 12 35 6 35 -11 0 -20 -50 -8 -66
16 -16 24 -18 25 -35 9 -18 -16 -20 -16 -37 -1 -17 15 -19 15 -35 0 -15 -16
-18 -16 -35 0 -14 13 -21 14 -30 5 -18 -18 -14 -33 4 -17 13 10 17 10 25 -2
17 -27 -32 -23 -56 5 l-23 27 -19 -24z m35 -15 c2 -7 -6 -12 -17 -12 -21 0
-27 11 -14 24 9 9 26 2 31 -12z m132 3 c11 -13 8 -15 -13 -15 -19 0 -25 4 -21
15 4 8 10 15 14 15 4 0 13 -7 20 -15z m68 -3 c2 -7 -6 -12 -17 -12 -21 0 -27
11 -14 24 9 9 26 2 31 -12z m132 3 c0 -8 -9 -15 -20 -15 -20 0 -26 11 -13 23
12 13 33 7 33 -8z m-330 -70 c0 -6 -9 -11 -20 -12 -19 -2 -26 8 -15 19 9 9 35
5 35 -7z m37 -7 c-3 -8 -6 -5 -6 6 -1 11 2 17 5 13 3 -3 4 -12 1 -19z m33 1
c0 -5 -4 -9 -10 -9 -5 0 -10 7 -10 16 0 8 5 12 10 9 6 -3 10 -10 10 -16z m40
5 c0 -8 -5 -12 -10 -9 -6 4 -8 11 -5 16 9 14 15 11 15 -7z m17 -6 c-3 -8 -6
-5 -6 6 -1 11 2 17 5 13 3 -3 4 -12 1 -19z m53 7 c0 -8 -4 -15 -10 -15 -5 0
-10 7 -10 15 0 8 5 15 10 15 6 0 10 -7 10 -15z m17 -7 c-3 -8 -6 -5 -6 6 -1
11 2 17 5 13 3 -3 4 -12 1 -19z m40 0 c-3 -8 -6 -5 -6 6 -1 11 2 17 5 13 3 -3
4 -12 1 -19z m29 -5 c-10 -10 -19 5 -10 18 6 11 8 11 12 0 2 -7 1 -15 -2 -18z
m61 5 c-3 -8 -6 -5 -6 6 -1 11 2 17 5 13 3 -3 4 -12 1 -19z m-17 2 c0 -5 -2
-10 -4 -10 -3 0 -8 5 -11 10 -3 6 -1 10 4 10 6 0 11 -4 11 -10z m-317 -37 c-7
-2 -19 -2 -25 0 -7 3 -2 5 12 5 14 0 19 -2 13 -5z m70 0 c-7 -2 -21 -2 -30 0
-10 3 -4 5 12 5 17 0 24 -2 18 -5z m70 0 c-7 -2 -21 -2 -30 0 -10 3 -4 5 12 5
17 0 24 -2 18 -5z m60 0 c-7 -2 -19 -2 -25 0 -7 3 -2 5 12 5 14 0 19 -2 13 -5z
m70 0 c-7 -2 -19 -2 -25 0 -7 3 -2 5 12 5 14 0 19 -2 13 -5z m60 0 c-7 -2 -19
-2 -25 0 -7 3 -2 5 12 5 14 0 19 -2 13 -5z"/>
<path d="M3911 784 c0 -11 3 -14 6 -6 3 7 2 16 -1 19 -3 4 -6 -2 -5 -13z"/>
<path d="M3931 784 c0 -11 3 -14 6 -6 3 7 2 16 -1 19 -3 4 -6 -2 -5 -13z"/>
<path d="M3990 785 c0 -8 5 -15 10 -15 6 0 10 7 10 15 0 8 -4 15 -10 15 -5 0
-10 -7 -10 -15z"/>
<path d="M4050 780 c0 -5 5 -10 10 -10 6 0 10 5 10 10 0 6 -4 10 -10 10 -5 0
-10 -4 -10 -10z"/>
<path d="M2955 760 c3 -5 8 -10 11 -10 2 0 4 5 4 10 0 6 -5 10 -11 10 -5 0 -7
-4 -4 -10z"/>
<path d="M4730 762 c0 -8 -20 -12 -56 -12 -72 0 -69 -23 3 -24 44 -2 53 1 57
18 3 11 3 22 1 25 -3 2 -5 -1 -5 -7z"/>
<path d="M5722 745 c0 -16 2 -22 5 -12 2 9 2 23 0 30 -3 6 -5 -1 -5 -18z"/>
<path d="M9235 753 c5 -10 11 -36 14 -58 5 -32 8 -35 13 -18 6 24 -12 93 -26
93 -4 0 -5 -8 -1 -17z"/>
<path d="M820 724 c0 -14 4 -23 10 -19 6 3 10 -1 10 -9 0 -9 -7 -16 -16 -16
-8 0 -13 -4 -10 -9 3 -5 17 -8 31 -8 14 0 28 3 31 8 3 5 -2 9 -10 9 -9 0 -16
7 -16 16 0 8 4 13 9 10 10 -6 22 30 13 38 -3 3 -16 6 -29 6 -18 0 -23 -5 -23
-26z"/>
<path d="M908 711 c-2 -23 0 -42 4 -42 40 -7 43 -4 43 36 0 33 -4 41 -21 43
-19 3 -22 -3 -26 -37z m19 -23 c-3 -8 -6 -5 -6 6 -1 11 2 17 5 13 3 -3 4 -12
1 -19z m20 0 c-3 -8 -6 -5 -6 6 -1 11 2 17 5 13 3 -3 4 -12 1 -19z"/>
<path d="M997 744 c-4 -4 -7 -15 -7 -24 0 -13 8 -17 30 -16 25 1 30 5 28 21
-3 20 -37 33 -51 19z"/>
<path d="M1087 744 c-4 -4 -7 -22 -7 -40 0 -24 5 -34 21 -39 29 -9 41 6 37 46
-2 25 -8 35 -23 37 -12 2 -24 0 -28 -4z m41 -52 c2 -6 -6 -10 -17 -9 -12 1
-21 7 -21 13 0 15 33 11 38 -4z"/>
<path d="M1175 744 c-5 -2 -10 -21 -9 -41 1 -34 4 -38 28 -38 16 0 26 5 24 10
-1 6 -6 9 -10 8 -5 -2 -8 4 -8 13 0 8 4 13 9 10 10 -6 22 30 13 38 -6 7 -32 7
-47 0z m12 -56 c-3 -8 -6 -5 -6 6 -1 11 2 17 5 13 3 -3 4 -12 1 -19z"/>
<path d="M1258 745 c-9 -9 3 -46 13 -39 5 3 9 -2 9 -10 0 -9 -3 -15 -7 -13 -5
1 -9 -2 -11 -7 -3 -11 24 -17 42 -10 9 3 11 17 7 42 -5 27 -12 38 -27 40 -11
2 -23 0 -26 -3z m39 -57 c-3 -8 -6 -5 -6 6 -1 11 2 17 5 13 3 -3 4 -12 1 -19z"/>
<path d="M1348 745 c-3 -3 -4 -14 -1 -24 7 -27 55 -23 51 4 -3 19 -37 33 -50
20z"/>
<path d="M1434 737 c-3 -9 -4 -28 -2 -44 2 -22 8 -28 27 -28 14 0 26 6 29 13
2 7 -2 10 -12 6 -11 -4 -16 -1 -16 10 0 9 7 16 16 16 9 0 14 7 12 18 -4 22
-46 29 -54 9z m13 -49 c-3 -8 -6 -5 -6 6 -1 11 2 17 5 13 3 -3 4 -12 1 -19z"/>
<path d="M1518 710 c-4 -44 16 -61 49 -41 17 10 17 10 1 11 -10 0 -18 7 -18
16 0 8 4 13 9 10 5 -3 12 2 15 11 7 18 -9 33 -35 33 -12 0 -18 -11 -21 -40z
m19 -22 c-3 -8 -6 -5 -6 6 -1 11 2 17 5 13 3 -3 4 -12 1 -19z"/>
<path d="M2073 743 c-7 -2 -13 -13 -13 -23 0 -14 6 -18 25 -15 15 1 25 -3 25
-10 0 -8 -9 -10 -25 -7 -15 2 -25 0 -25 -7 0 -6 14 -11 30 -11 27 0 30 3 30
34 0 22 -6 36 -16 40 -9 3 -16 6 -17 5 -1 0 -8 -3 -14 -6z"/>
<path d="M2163 743 c-7 -2 -13 -20 -13 -39 0 -31 3 -34 30 -34 27 0 30 3 30
34 0 22 -6 36 -16 40 -9 3 -16 6 -17 5 -1 0 -8 -3 -14 -6z m37 -45 c0 -4 -9
-8 -20 -8 -11 0 -20 4 -20 8 0 4 9 8 20 8 11 0 20 -4 20 -8z"/>
<path d="M2253 743 c-7 -2 -13 -20 -13 -39 0 -32 2 -34 33 -34 29 1 30 2 15
14 -19 14 -25 31 -7 20 7 -4 9 2 7 17 -3 24 -15 31 -35 22z"/>
<path d="M2343 743 c-7 -3 -13 -11 -13 -18 0 -7 6 -15 13 -18 8 -3 6 -10 -8
-21 -19 -15 -19 -15 15 -16 35 0 36 1 32 34 -4 35 -16 47 -39 39z m24 -55 c-3
-8 -6 -5 -6 6 -1 11 2 17 5 13 3 -3 4 -12 1 -19z"/>
<path d="M2422 741 c-11 -6 -10 -11 3 -25 16 -16 16 -18 -1 -31 -18 -13 -17
-14 14 -15 30 0 32 2 32 34 0 22 -6 36 -16 40 -19 7 -16 7 -32 -3z m35 -53
c-3 -8 -6 -5 -6 6 -1 11 2 17 5 13 3 -3 4 -12 1 -19z"/>
<path d="M2513 743 c-7 -2 -13 -20 -13 -38 0 -34 12 -45 43 -37 24 6 27 60 4
74 -13 9 -17 9 -34 1z"/>
<path d="M8697 743 c-4 -3 -7 -16 -6 -27 0 -19 1 -19 10 3 10 24 8 36 -4 24z"/>
<path d="M8276 695 c-10 -25 -21 -45 -25 -45 -12 0 -31 -48 -31 -75 0 -13 -5
-27 -11 -30 -17 -11 -23 3 -9 20 11 13 10 14 -4 9 -9 -3 -17 -9 -17 -13 -1 -3
-3 -19 -5 -35 -2 -16 -7 -33 -13 -39 -6 -6 -5 -14 4 -23 17 -18 25 -18 25 -1
0 8 10 22 22 33 21 19 21 19 14 0 -5 -16 -4 -17 9 -6 9 7 14 19 11 26 -3 7 10
36 29 64 31 47 38 82 19 111 -2 4 0 9 5 11 4 1 6 11 2 20 -4 13 -11 6 -25 -27z
m7 -55 c-3 -10 -12 -25 -21 -32 -13 -11 -12 -8 2 20 19 36 27 41 19 12z"/>
<path d="M9213 689 c5 -42 3 -56 -13 -77 -11 -13 -20 -32 -20 -41 0 -10 -4
-21 -9 -26 -5 -6 -12 -25 -16 -44 -6 -26 -4 -32 6 -29 8 3 15 15 15 27 2 30
14 39 24 20 6 -11 18 -15 35 -11 16 3 25 0 25 -9 0 -8 6 -5 15 7 13 16 16 17
25 4 6 -8 8 -23 6 -32 -2 -11 2 -18 10 -18 8 0 15 -7 15 -15 2 -16 5 -30 9
-42 4 -12 8 -26 9 -40 0 -7 6 -13 11 -13 6 0 10 6 10 13 0 13 -44 128 -63 162
-6 11 -13 33 -17 50 -5 28 -8 30 -45 27 -36 -3 -38 -2 -25 12 17 18 15 126 -2
126 -7 0 -9 -18 -5 -51z m66 -131 c9 -27 8 -30 -2 -17 -7 9 -27 20 -46 24 -25
5 -30 10 -20 16 30 19 57 10 68 -23z m-19 -24 c0 -11 -5 -14 -16 -10 -9 3 -21
6 -27 7 -7 0 -3 4 8 9 29 13 35 12 35 -6z"/>
<path d="M8700 675 c-9 -31 -10 -49 -3 -53 5 -4 21 -25 35 -47 14 -22 43 -58
64 -81 22 -22 32 -31 24 -21 -14 19 -13 20 4 13 22 -7 23 -10 -56 87 -27 32
-48 66 -48 75 1 11 7 6 17 -13 26 -48 25 -15 -1 38 l-23 49 -13 -47z"/>
<path d="M3850 701 c0 -5 5 -13 10 -16 6 -3 10 -2 10 4 0 5 -4 13 -10 16 -5 3
-10 2 -10 -4z"/>
<path d="M4065 700 c-4 -7 -38 -10 -91 -9 -47 1 -87 -1 -90 -3 -3 -3 38 -6 90
-7 60 -1 97 2 101 9 4 6 5 14 2 16 -3 3 -8 0 -12 -6z"/>
<path d="M8208 703 c7 -3 16 -2 19 1 4 3 -2 6 -13 5 -11 0 -14 -3 -6 -6z"/>
<path d="M990 679 c0 -13 15 -18 38 -12 31 8 27 18 -8 19 -16 1 -30 -2 -30 -7z"/>
<path d="M1346 681 c-8 -12 5 -21 27 -17 19 2 35 16 19 16 -5 0 -17 3 -25 6
-8 3 -18 1 -21 -5z"/>
<path d="M8198 643 c6 -2 18 -2 25 0 6 3 1 5 -13 5 -14 0 -19 -2 -12 -5z"/>
<path d="M6923 633 c71 -2 183 -2 250 0 67 1 10 3 -128 3 -137 0 -192 -2 -122
-3z"/>
<path d="M9250 630 c0 -5 5 -10 11 -10 5 0 7 5 4 10 -3 6 -8 10 -11 10 -2 0
-4 -4 -4 -10z"/>
<path d="M760 608 c0 -5 195 -8 433 -8 l432 0 -2 -77 c-1 -43 0 -70 3 -61 6
19 44 20 44 1 0 -7 5 -13 10 -13 6 0 10 4 10 9 0 18 34 22 47 5 11 -15 13 -15
28 0 20 20 34 20 41 1 8 -19 24 -20 24 -1 0 8 9 13 23 12 12 -1 21 -7 20 -14
-2 -7 4 -12 12 -12 8 0 14 5 12 11 -3 18 32 19 42 1 8 -14 10 -14 26 1 21 21
35 22 35 1 0 -8 5 -12 10 -9 15 9 13 96 -2 94 -30 -4 -48 2 -48 15 0 20 18 30
33 17 9 -7 13 -5 13 10 0 15 -7 19 -31 19 -20 0 -26 -3 -16 -9 9 -6 10 -11 2
-15 -14 -9 -33 2 -26 15 4 5 -9 9 -27 8 -18 0 -27 -3 -20 -6 17 -7 15 -23 -3
-23 -8 0 -15 7 -15 15 0 10 -10 15 -32 15 -24 0 -29 -3 -18 -10 8 -5 11 -13 6
-17 -4 -4 -13 0 -20 10 -18 24 -94 24 -112 0 -7 -10 -16 -14 -20 -10 -5 4 -2
12 6 18 11 7 6 9 -20 8 -19 0 -230 1 -468 3 -237 2 -432 0 -432 -4z m1028 -24
c28 -19 24 -37 -7 -39 -19 -1 -21 2 -17 21 5 18 3 22 -9 18 -8 -4 -15 -1 -15
5 0 16 22 14 48 -5z m-118 -14 c6 -11 9 -20 8 -21 -18 -5 -48 -4 -48 2 0 15
12 39 21 39 4 0 13 -9 19 -20z m64 4 c10 -25 7 -31 -14 -29 -28 2 -35 12 -20
30 16 19 26 19 34 -1z m136 -4 c6 -11 9 -20 8 -21 -27 -8 -48 -3 -48 11 0 34
24 40 40 10z m68 -7 c2 -15 -2 -19 -20 -17 -13 1 -24 3 -26 3 -1 1 2 10 8 22
14 24 34 20 38 -8z m-268 -57 c0 -12 -13 -14 -40 -6 -4 1 24 16 38 19 1 1 2
-5 2 -13z m37 -8 c-3 -8 -6 -5 -6 6 -1 11 2 17 5 13 3 -3 4 -12 1 -19z m33 1
c0 -5 -4 -9 -10 -9 -5 0 -10 7 -10 16 0 8 5 12 10 9 6 -3 10 -10 10 -16z m37
-1 c-3 -8 -6 -5 -6 6 -1 11 2 17 5 13 3 -3 4 -12 1 -19z m20 0 c-3 -8 -6 -5
-6 6 -1 11 2 17 5 13 3 -3 4 -12 1 -19z m70 0 c-3 -8 -6 -5 -6 6 -1 11 2 17 5
13 3 -3 4 -12 1 -19z m40 0 c-3 -8 -6 -5 -6 6 -1 11 2 17 5 13 3 -3 4 -12 1
-19z m90 0 c-3 -8 -6 -5 -6 6 -1 11 2 17 5 13 3 -3 4 -12 1 -19z m-147 2 c0
-5 -4 -10 -10 -10 -5 0 -10 5 -10 10 0 6 5 10 10 10 6 0 10 -4 10 -10z m90 0
c0 -5 -2 -10 -4 -10 -3 0 -8 5 -11 10 -3 6 -1 10 4 10 6 0 11 -4 11 -10z m40
0 c0 -5 -2 -10 -4 -10 -3 0 -8 5 -11 10 -3 6 -1 10 4 10 6 0 11 -4 11 -10z"/>
<path d="M5775 600 c3 -5 8 -10 11 -10 2 0 4 5 4 10 0 6 -5 10 -11 10 -5 0 -7
-4 -4 -10z"/>
<path d="M6773 603 c9 -2 25 -2 35 0 9 3 1 5 -18 5 -19 0 -27 -2 -17 -5z"/>
<path d="M6838 603 c7 -3 16 -2 19 1 4 3 -2 6 -13 5 -11 0 -14 -3 -6 -6z"/>
<path d="M6948 603 c7 -3 16 -2 19 1 4 3 -2 6 -13 5 -11 0 -14 -3 -6 -6z"/>
<path d="M6988 603 c6 -2 18 -2 25 0 6 3 1 5 -13 5 -14 0 -19 -2 -12 -5z"/>
<path d="M7058 603 c7 -3 16 -2 19 1 4 3 -2 6 -13 5 -11 0 -14 -3 -6 -6z"/>
<path d="M7168 603 c7 -3 16 -2 19 1 4 3 -2 6 -13 5 -11 0 -14 -3 -6 -6z"/>
<path d="M7238 603 c7 -3 16 -2 19 1 4 3 -2 6 -13 5 -11 0 -14 -3 -6 -6z"/>
<path d="M7200 570 c0 -6 -78 -10 -215 -10 -137 0 -215 -4 -215 -10 0 -5 -7
-10 -15 -10 -9 0 -12 -6 -9 -17 5 -15 3 -15 -11 2 -12 14 -19 16 -22 8 -3 -9
-31 -13 -89 -13 -54 0 -83 4 -79 10 3 6 -4 10 -17 10 -18 0 -20 -2 -8 -10 12
-8 11 -10 -7 -10 -28 0 -35 -11 -17 -28 10 -9 14 -9 14 -1 0 8 4 8 15 -1 10
-9 15 -9 15 -1 0 15 167 15 172 0 3 -8 11 -8 27 2 19 11 25 11 28 1 4 -10 8
-10 19 -1 11 9 14 9 14 0 0 -7 5 -9 12 -5 23 15 131 16 139 2 5 -8 9 -8 9 -2
0 6 22 12 50 13 30 1 50 -3 50 -9 0 -6 5 -8 10 -5 20 12 130 13 130 1 0 -6 4
-5 9 3 6 10 20 12 43 8 19 -3 41 -1 48 3 9 6 18 3 27 -8 7 -9 13 -12 13 -6 0
6 19 11 45 10 36 -1 45 -5 48 -21 4 -17 4 -16 6 4 1 20 3 21 16 11 9 -8 15 -8
15 -2 0 7 43 11 115 11 79 1 115 -2 115 -10 0 -8 5 -8 15 1 12 10 15 10 15 -1
0 -10 3 -10 12 -1 7 7 21 12 32 13 12 1 5 5 -16 11 -21 6 -38 14 -38 19 0 5
-4 9 -10 9 -5 0 -10 -6 -10 -12 0 -10 -28 -12 -117 -9 -65 2 -112 5 -106 8 10
4 9 8 -1 19 -11 11 -45 14 -141 14 -82 0 -124 4 -120 10 3 6 1 10 -4 10 -6 0
-11 -4 -11 -10z m213 -27 c-13 -2 -35 -2 -50 0 -16 2 -5 4 22 4 28 0 40 -2 28
-4z m3 -22 c-18 -7 -66 -3 -66 5 0 2 19 4 43 3 30 0 36 -3 23 -8z"/>
<path d="M8361 528 c-1 -27 3 -48 7 -48 4 0 6 17 4 38 -5 58 -10 62 -11 10z"/>
<path d="M840 543 c0 -15 -2 -16 -10 -3 -8 12 -10 10 -10 -8 0 -13 4 -20 10
-17 6 3 10 -1 10 -10 0 -9 -5 -13 -11 -9 -7 4 -10 1 -7 -7 7 -21 48 -24 48 -4
0 9 -4 13 -10 10 -5 -3 -10 0 -10 9 0 8 5 16 12 18 14 5 4 38 -12 38 -5 0 -10
-8 -10 -17z"/>
<path d="M917 554 c-11 -11 -8 -46 3 -39 6 3 10 -1 10 -10 0 -9 -4 -13 -10
-10 -5 3 -10 -1 -10 -9 0 -10 9 -16 26 -16 23 0 25 3 22 42 -3 41 -22 60 -41
42z m30 -56 c-3 -8 -6 -5 -6 6 -1 11 2 17 5 13 3 -3 4 -12 1 -19z"/>
<path d="M996 545 c-8 -23 1 -34 24 -30 12 2 20 -2 20 -10 0 -9 -8 -12 -26 -9
-18 3 -25 1 -22 -8 3 -7 16 -13 29 -13 21 0 24 4 24 40 0 33 -4 41 -21 43 -13
2 -24 -4 -28 -13z"/>
<path d="M1084 546 c-3 -8 -4 -27 -2 -43 2 -22 8 -28 28 -28 22 0 25 5 27 35
1 34 -9 50 -35 50 -7 0 -15 -6 -18 -14z m13 -48 c-3 -8 -6 -5 -6 6 -1 11 2 17
5 13 3 -3 4 -12 1 -19z m28 13 c3 -5 1 -12 -5 -16 -5 -3 -10 1 -10 9 0 18 6
21 15 7z"/>
<path d="M1177 554 c-4 -4 -7 -24 -7 -43 0 -31 3 -37 24 -39 14 -1 27 5 30 14
4 12 2 15 -9 10 -9 -3 -15 0 -15 10 0 8 5 12 11 8 7 -4 9 2 7 17 -3 23 -27 36
-41 23z m10 -56 c-3 -8 -6 -5 -6 6 -1 11 2 17 5 13 3 -3 4 -12 1 -19z"/>
<path d="M1267 554 c-4 -4 -7 -25 -7 -46 0 -35 2 -39 23 -36 19 3 22 9 22 43
0 28 -5 41 -15 43 -9 1 -19 0 -23 -4z m10 -56 c-3 -8 -6 -5 -6 6 -1 11 2 17 5
13 3 -3 4 -12 1 -19z m20 0 c-3 -8 -6 -5 -6 6 -1 11 2 17 5 13 3 -3 4 -12 1
-19z"/>
<path d="M1357 553 c-17 -16 -6 -38 18 -38 27 0 32 14 13 33 -14 14 -22 15
-31 5z"/>
<path d="M1434 546 c-3 -8 -4 -27 -2 -43 2 -22 8 -28 27 -28 13 0 26 6 29 13
2 7 -2 10 -12 6 -10 -4 -16 -1 -16 9 0 8 5 17 12 19 16 6 2 38 -17 38 -9 0
-18 -6 -21 -14z m13 -48 c-3 -8 -6 -5 -6 6 -1 11 2 17 5 13 3 -3 4 -12 1 -19z"/>
<path d="M1527 553 c-4 -3 -7 -24 -7 -45 0 -34 3 -38 25 -38 14 0 25 5 25 10
0 6 -4 10 -10 10 -5 0 -10 7 -10 16 0 8 4 13 9 10 5 -3 12 1 15 10 9 23 8 27
-10 20 -8 -3 -12 -2 -9 4 7 11 -18 14 -28 3z m10 -55 c-3 -8 -6 -5 -6 6 -1 11
2 17 5 13 3 -3 4 -12 1 -19z"/>
<path d="M2514 552 c-7 -4 -14 -20 -15 -37 -4 -27 -1 -30 29 -33 31 -3 32 -2
32 31 0 23 -6 37 -16 41 -19 7 -16 7 -30 -2z"/>
<path d="M2765 552 c-3 -3 -5 -20 -5 -39 0 -30 3 -33 28 -33 36 0 39 4 34 39
-3 21 -11 30 -28 34 -13 2 -26 2 -29 -1z m45 -44 c0 -4 -7 -8 -15 -8 -8 0 -15
4 -15 8 0 5 7 9 15 9 8 0 15 -4 15 -9z"/>
<path d="M3894 525 c-19 -20 -34 -40 -34 -46 0 -6 12 4 27 23 16 18 35 38 43
45 8 7 11 13 7 13 -5 0 -24 -16 -43 -35z"/>
<path d="M2067 543 c-16 -15 -6 -30 18 -28 14 2 25 -1 25 -6 0 -5 -12 -9 -26
-9 -14 0 -23 -4 -19 -10 3 -5 17 -10 31 -10 21 0 24 5 24 35 0 30 -3 35 -23
35 -13 0 -27 -3 -30 -7z"/>
<path d="M2150 515 c0 -32 2 -35 30 -35 28 0 30 3 30 35 0 32 -2 35 -30 35
-28 0 -30 -3 -30 -35z m50 -6 c0 -5 -9 -9 -20 -9 -11 0 -20 4 -20 8 0 4 9 8
20 9 11 1 20 -2 20 -8z"/>
<path d="M2240 515 c0 -31 3 -35 25 -35 22 0 25 4 25 35 0 31 -3 35 -25 35
-22 0 -25 -4 -25 -35z m40 -7 c0 -4 -7 -8 -15 -8 -8 0 -15 4 -15 8 0 5 7 9 15
9 8 0 15 -4 15 -9z"/>
<path d="M2330 531 c0 -14 6 -19 20 -16 11 2 20 0 20 -6 0 -5 -9 -9 -20 -9
-11 0 -20 -4 -20 -10 0 -5 11 -10 25 -10 22 0 25 4 25 35 0 31 -3 35 -25 35
-18 0 -25 -5 -25 -19z"/>
<path d="M2416 535 c-3 -9 0 -15 9 -15 8 0 15 -4 15 -10 0 -5 -7 -10 -16 -10
-8 0 -12 -4 -9 -10 3 -5 17 -10 31 -10 21 0 24 5 24 35 0 30 -3 35 -24 35 -13
0 -26 -7 -30 -15z"/>
<path d="M2589 545 c-1 -3 -1 -17 -2 -32 -1 -24 3 -28 26 -28 15 0 27 3 27 8
0 4 0 18 0 32 0 20 -5 25 -25 25 -14 0 -25 -2 -26 -5z"/>
<path d="M2673 515 c1 -31 4 -35 27 -35 34 0 37 4 32 40 -4 25 -9 30 -32 30
-26 0 -28 -3 -27 -35z"/>
<path d="M502 524 c-37 -26 -28 -44 22 -44 25 0 48 -4 51 -10 3 -5 16 -10 28
-10 44 0 -1 21 -57 27 -54 6 -56 7 -40 24 9 10 34 20 58 22 l41 4 -40 1 c-23
1 -50 -5 -63 -14z"/>
<path d="M4361 524 c0 -11 3 -14 6 -6 3 7 2 16 -1 19 -3 4 -6 -2 -5 -13z"/>
<path d="M4438 534 c-2 -2 -2 -19 0 -39 3 -25 9 -35 21 -34 10 0 11 2 4 6 -21
8 -15 40 10 47 44 12 67 7 77 -16 8 -22 9 -22 9 5 1 25 -2 27 -41 28 -24 0
-51 2 -60 4 -9 2 -18 1 -20 -1z"/>
<path d="M6578 533 c12 -2 32 -2 45 0 12 2 2 4 -23 4 -25 0 -35 -2 -22 -4z"/>
<path d="M7598 533 c17 -2 47 -2 65 0 17 2 3 4 -33 4 -36 0 -50 -2 -32 -4z"/>
<path d="M6404 509 c-3 -6 -1 -16 5 -22 8 -8 11 -5 11 11 0 24 -5 28 -16 11z"/>
<path d="M7827 513 c-3 -5 -2 -15 2 -22 7 -10 10 -10 16 -1 4 6 3 16 -3 22 -5
5 -12 6 -15 1z"/>
<path d="M6377 503 c-4 -3 -7 -11 -7 -17 0 -6 5 -5 12 2 6 6 9 14 7 17 -3 3
-9 2 -12 -2z"/>
<path d="M7860 501 c0 -6 5 -13 10 -16 6 -3 10 1 10 9 0 9 -4 16 -10 16 -5 0
-10 -4 -10 -9z"/>
<path d="M1350 483 c0 -9 8 -13 22 -11 30 4 33 23 3 24 -16 1 -25 -3 -25 -13z"/>
<path d="M9196 476 c9 -23 33 -28 27 -5 -3 10 -11 19 -19 19 -7 0 -11 -6 -8
-14z"/>
<path d="M4221 464 c0 -11 3 -14 6 -6 3 7 2 16 -1 19 -3 4 -6 -2 -5 -13z"/>
<path d="M3802 328 c-2 -130 -4 -147 -19 -151 -12 -3 -10 -5 7 -6 l25 -1 -3
117 c-4 184 -8 202 -10 41z"/>
<path d="M4124 355 c0 -66 1 -92 3 -57 2 34 2 88 0 120 -2 31 -3 3 -3 -63z"/>
<path d="M7200 455 c0 -8 -5 -15 -11 -15 -5 0 -7 5 -4 10 3 6 1 10 -4 10 -6 0
-11 -5 -11 -11 0 -8 -6 -7 -17 2 -15 13 -16 11 -10 -11 4 -14 7 -35 7 -47 0
-19 6 -23 28 -23 28 0 29 2 31 50 1 28 -1 50 -4 50 -3 0 -5 -7 -5 -15z"/>
<path d="M9276 461 c-4 -7 -5 -15 -2 -18 9 -9 19 4 14 18 -4 11 -6 11 -12 0z"/>
<path d="M2865 450 c-3 -5 -18 -10 -33 -10 -31 0 -19 -15 21 -24 24 -6 27 -4
27 19 0 27 -5 31 -15 15z"/>
<path d="M6894 415 c1 -43 2 -45 32 -45 30 0 31 2 32 45 2 35 -1 45 -14 45 -8
0 -12 -4 -9 -10 3 -5 -1 -10 -9 -10 -9 0 -16 5 -16 10 0 6 -4 10 -9 10 -5 0
-8 -20 -7 -45z"/>
<path d="M6981 444 c0 -11 3 -14 6 -6 3 7 2 16 -1 19 -3 4 -6 -2 -5 -13z"/>
<path d="M7004 438 c3 -13 6 -33 6 -45 0 -19 6 -23 30 -23 29 0 30 1 29 48 0
26 -3 41 -6 35 -2 -7 -14 -13 -26 -13 -18 0 -19 2 -7 10 12 8 10 10 -9 10 -19
0 -22 -4 -17 -22z"/>
<path d="M9125 448 c-22 -72 -26 -90 -21 -95 3 -4 6 1 6 10 0 9 6 15 13 13 6
-1 9 -1 5 1 -5 3 -8 9 -8 14 0 6 5 7 12 3 8 -5 9 0 6 14 -4 15 -2 22 8 22 8 0
11 6 8 15 -7 18 -23 20 -29 3z"/>
<path d="M2460 438 c0 -12 10 -18 33 -20 57 -5 107 3 107 18 0 12 -4 12 -20 4
-14 -7 -26 -8 -39 0 -14 7 -22 7 -26 0 -8 -12 -37 -9 -47 5 -5 6 -8 3 -8 -7z"/>
<path d="M1595 430 c3 -5 8 -10 11 -10 2 0 4 5 4 10 0 6 -5 10 -11 10 -5 0 -7
-4 -4 -10z"/>
<path d="M2020 430 c0 -5 5 -10 10 -10 6 0 10 5 10 10 0 6 -4 10 -10 10 -5 0
-10 -4 -10 -10z"/>
<path d="M2415 430 c3 -5 8 -10 11 -10 2 0 4 5 4 10 0 6 -5 10 -11 10 -5 0 -7
-4 -4 -10z"/>
<path d="M2636 429 c6 -11 144 -12 144 -1 0 4 -34 8 -75 8 -41 1 -72 -3 -69
-7z"/>
<path d="M4440 421 c0 -13 -9 -40 -21 -60 -21 -36 -21 -36 0 -11 l21 25 0 -87
c0 -78 -11 -119 -23 -86 -8 23 -20 -1 -19 -38 1 -20 4 -39 6 -42 3 -2 38 -6
78 -8 l73 -4 -3 122 c-3 102 -7 124 -23 141 -10 12 -19 24 -19 28 0 4 -12 10
-27 14 -15 3 -31 12 -35 18 -5 7 -8 2 -8 -12z m47 -27 c-3 -3 -12 -4 -19 -1
-8 3 -5 6 6 6 11 1 17 -2 13 -5z m43 -45 c11 -19 13 -160 4 -196 -8 -30 -69
-34 -71 -5 0 9 -4 39 -8 66 -4 36 -3 51 7 57 10 7 10 9 1 9 -8 0 -13 15 -13
40 0 33 4 42 23 49 27 10 44 4 57 -20z m-80 -199 c0 -13 -7 -20 -20 -20 -13 0
-20 7 -20 20 0 13 7 20 20 20 13 0 20 -7 20 -20z"/>
<path d="M4050 416 c0 -8 5 -18 10 -21 6 -4 11 -66 11 -148 2 -172 7 -153 11
41 3 130 2 142 -14 142 -10 0 -18 -6 -18 -14z"/>
<path d="M7980 420 c0 -5 4 -10 9 -10 6 0 13 5 16 10 3 6 -1 10 -9 10 -9 0
-16 -4 -16 -10z"/>
<path d="M8016 415 c-3 -9 0 -15 9 -15 8 0 15 7 15 15 0 8 -4 15 -9 15 -5 0
-11 -7 -15 -15z"/>
<path d="M8995 420 c3 -5 11 -10 16 -10 6 0 7 5 4 10 -3 6 -11 10 -16 10 -6 0
-7 -4 -4 -10z"/>
<path d="M9290 421 c0 -6 -12 -11 -26 -11 -14 0 -23 -4 -19 -10 3 -5 -4 -11
-17 -11 -20 -1 -21 -2 -3 -6 11 -3 22 -9 25 -13 3 -4 14 -4 25 1 17 6 17 8 3
8 -31 2 -19 20 14 23 28 3 30 4 15 17 -11 9 -17 10 -17 2z"/>
<path d="M1637 402 c-12 -13 -17 -36 -17 -80 l0 -62 198 2 197 3 0 61 c0 74
-17 104 -45 79 -15 -14 -21 -14 -39 -3 -18 11 -22 10 -34 -7 -14 -18 -15 -18
-26 4 -12 22 -13 22 -32 5 -18 -16 -20 -16 -37 -1 -17 15 -19 15 -35 0 -15
-16 -18 -15 -36 2 -19 16 -21 16 -27 1 -8 -20 -30 -21 -42 -1 -7 14 -10 13
-25 -3z m33 -22 c6 -11 9 -20 8 -21 -18 -5 -48 -4 -48 2 0 15 12 39 21 39 4 0
13 -9 19 -20z m64 4 c10 -25 7 -34 -9 -28 -9 4 -15 0 -15 -7 -1 -9 -4 -8 -11
4 -8 13 -7 22 1 33 16 18 26 18 34 -2z m70 -7 c8 -12 7 -20 -3 -29 -11 -11
-12 -10 -6 1 6 11 3 13 -13 9 -23 -6 -26 -1 -16 27 8 19 23 16 38 -8z m65 5
c6 -11 6 -24 0 -33 -7 -11 -9 -11 -9 0 0 7 -6 11 -15 7 -10 -3 -15 1 -15 13 0
34 24 42 39 13z m65 2 c10 -27 7 -31 -19 -26 -21 3 -23 7 -14 23 12 23 25 24
33 3z m65 -2 c6 -11 6 -24 0 -33 -6 -10 -9 -10 -9 -1 0 6 -7 12 -15 12 -17 0
-18 2 -9 24 8 21 21 20 33 -2z m-329 -70 c0 -4 -9 -8 -20 -9 -11 -1 -20 2 -20
8 0 5 9 9 20 9 11 0 20 -4 20 -8z m70 -2 c0 -5 -4 -10 -10 -10 -5 0 -10 5 -10
10 0 6 5 10 10 10 6 0 10 -4 10 -10z m110 0 c0 -5 -4 -10 -10 -10 -5 0 -10 5
-10 10 0 6 5 10 10 10 6 0 10 -4 10 -10z m90 0 c0 -5 -5 -10 -11 -10 -5 0 -7
5 -4 10 3 6 8 10 11 10 2 0 4 -4 4 -10z m40 0 c0 -5 -4 -10 -10 -10 -5 0 -10
5 -10 10 0 6 5 10 10 10 6 0 10 -4 10 -10z m-310 -30 c0 -5 -9 -10 -20 -10
-11 0 -20 5 -20 10 0 6 9 10 20 10 11 0 20 -4 20 -10z m70 0 c0 -5 -12 -10
-26 -10 -14 0 -23 4 -19 10 3 6 15 10 26 10 10 0 19 -4 19 -10z m70 0 c0 -5
-11 -10 -25 -10 -14 0 -25 5 -25 10 0 6 11 10 25 10 14 0 25 -4 25 -10z m65 0
c4 -6 -5 -10 -19 -10 -14 0 -26 5 -26 10 0 6 9 10 19 10 11 0 23 -4 26 -10z
m65 0 c0 -5 -12 -10 -26 -10 -14 0 -23 4 -19 10 3 6 15 10 26 10 10 0 19 -4
19 -10z m60 0 c0 -5 -9 -10 -20 -10 -11 0 -20 5 -20 10 0 6 9 10 20 10 11 0
20 -4 20 -10z"/>
<path d="M1057 394 c-8 -8 1 -24 14 -24 5 0 9 7 9 15 0 15 -12 20 -23 9z"/>
<path d="M1140 385 c0 -9 5 -15 11 -13 6 2 11 8 11 13 0 5 -5 11 -11 13 -6 2
-11 -4 -11 -13z"/>
<path d="M1230 385 c0 -9 5 -15 11 -13 6 2 11 8 11 13 0 5 -5 11 -11 13 -6 2
-11 -4 -11 -13z"/>
<path d="M1315 391 c-6 -11 13 -26 22 -17 4 3 0 6 -8 6 -11 0 -11 2 1 10 9 6
10 10 3 10 -6 0 -14 -4 -18 -9z"/>
<path d="M1400 385 c0 -8 7 -15 15 -15 8 0 15 7 15 15 0 8 -7 15 -15 15 -8 0
-15 -7 -15 -15z"/>
<path d="M1490 385 c0 -8 7 -15 15 -15 8 0 15 7 15 15 0 8 -7 15 -15 15 -8 0
-15 -7 -15 -15z"/>
<path d="M2115 391 c-6 -11 13 -26 22 -17 4 3 0 6 -8 6 -11 0 -11 2 1 10 9 6
10 10 3 10 -6 0 -14 -4 -18 -9z"/>
<path d="M2210 385 c0 -9 5 -15 11 -13 6 2 11 8 11 13 0 5 -5 11 -11 13 -6 2
-11 -4 -11 -13z"/>
<path d="M2295 389 c-4 -6 -4 -13 -1 -16 3 -4 6 0 6 8 0 11 2 11 10 -1 8 -13
10 -12 10 3 0 19 -15 23 -25 6z"/>
<path d="M2380 385 c0 -9 5 -15 11 -13 6 2 11 8 11 13 0 5 -5 11 -11 13 -6 2
-11 -4 -11 -13z"/>
<path d="M2465 390 c-3 -6 1 -13 10 -16 19 -8 30 0 20 15 -8 14 -22 14 -30 1z"/>
<path d="M2555 391 c-7 -12 12 -24 25 -16 11 7 4 25 -10 25 -5 0 -11 -4 -15
-9z"/>
<path d="M2645 389 c-10 -15 1 -23 20 -15 9 3 13 10 10 16 -8 13 -22 13 -30
-1z"/>
<path d="M2730 385 c0 -10 7 -15 18 -13 21 4 19 22 -2 26 -10 2 -16 -3 -16
-13z"/>
<path d="M9032 374 c-7 -8 -8 -14 -3 -14 10 0 25 19 20 25 -2 1 -10 -3 -17
-11z"/>
<path d="M8273 368 c-2 -5 35 -7 84 -7 90 2 83 6 -20 11 -33 2 -61 0 -64 -4z"/>
<path d="M8470 370 c-24 -8 -23 -8 8 -9 17 -1 32 4 32 9 0 11 -5 11 -40 0z"/>
<path d="M8650 370 l-65 -7 68 -1 c39 -1 67 2 67 8 0 6 -1 9 -2 8 -2 -1 -32
-4 -68 -8z"/>
<path d="M8028 363 c39 -2 105 -2 145 0 39 1 7 3 -73 3 -80 0 -112 -2 -72 -3z"/>
<path d="M1086 353 c-10 -10 -7 -45 4 -38 6 3 10 -1 10 -10 0 -9 -4 -13 -10
-10 -5 3 -10 1 -10 -4 0 -6 14 -11 31 -11 29 0 30 2 27 37 -2 28 -8 37 -24 39
-12 2 -24 1 -28 -3z m44 -48 c0 -8 -4 -15 -10 -15 -5 0 -10 7 -10 15 0 8 5 15
10 15 6 0 10 -7 10 -15z"/>
<path d="M1176 352 c-3 -3 -6 -20 -6 -39 0 -30 3 -33 31 -33 18 0 28 4 24 10
-4 6 -11 8 -16 5 -5 -4 -9 1 -9 9 0 10 6 13 15 10 18 -7 21 21 3 33 -17 10
-35 12 -42 5z m11 -54 c-3 -8 -6 -5 -6 6 -1 11 2 17 5 13 3 -3 4 -12 1 -19z"/>
<path d="M1267 354 c-4 -4 -7 -22 -7 -41 0 -30 3 -33 31 -33 18 0 28 4 24 10
-4 6 -11 8 -16 5 -5 -4 -9 -1 -9 4 0 6 5 11 11 11 16 0 6 44 -11 48 -9 1 -19
0 -23 -4z m10 -56 c-3 -8 -6 -5 -6 6 -1 11 2 17 5 13 3 -3 4 -12 1 -19z"/>
<path d="M1350 321 c0 -37 2 -41 25 -41 22 0 25 4 25 35 0 19 -4 35 -9 35 -5
0 -16 3 -25 6 -13 5 -16 -2 -16 -35z m37 13 c-3 -3 -12 -4 -19 -1 -8 3 -5 6 6
6 11 1 17 -2 13 -5z m3 -29 c0 -6 -7 -12 -15 -12 -8 0 -15 6 -15 12 0 6 7 12
15 12 8 0 15 -6 15 -12z"/>
<path d="M1457 346 c-8 -8 -17 -12 -21 -9 -3 4 -6 1 -6 -5 0 -7 5 -12 10 -12
6 0 10 -7 10 -16 0 -8 -4 -12 -10 -9 -5 3 -10 1 -10 -4 0 -6 14 -11 30 -11 28
0 30 3 30 34 0 41 -12 52 -33 32z m23 -41 c0 -8 -4 -15 -10 -15 -5 0 -10 7
-10 15 0 8 5 15 10 15 6 0 10 -7 10 -15z"/>
<path d="M2146 343 c-10 -25 -7 -35 9 -29 8 3 15 0 15 -7 0 -7 -9 -13 -19 -14
-15 -1 -21 6 -24 30 -4 31 -4 30 -5 -5 -2 -38 -2 -38 38 -38 39 0 40 1 40 35
0 19 -3 35 -7 36 -5 0 -16 2 -25 4 -9 2 -19 -4 -22 -12z m41 -45 c-3 -8 -6 -5
-6 6 -1 11 2 17 5 13 3 -3 4 -12 1 -19z"/>
<path d="M2253 353 c-7 -2 -13 -14 -13 -24 0 -11 5 -17 10 -14 6 3 10 0 10 -9
0 -8 -6 -17 -12 -19 -7 -3 1 -5 17 -5 17 0 24 2 18 5 -7 2 -13 11 -13 18 0 7
6 16 13 18 9 4 9 6 0 6 -7 1 -10 8 -7 16 6 15 -1 18 -23 8z"/>
<path d="M2333 353 c-7 -3 -13 -20 -13 -39 0 -31 2 -34 31 -34 29 0 30 2 27
37 -3 35 -16 46 -45 36z m37 -50 c0 -6 -9 -11 -20 -10 -11 1 -20 6 -20 12 0 6
9 11 20 11 11 0 20 -6 20 -13z"/>
<path d="M2415 352 c-3 -3 -5 -20 -5 -39 0 -30 3 -33 30 -33 28 0 30 2 30 39
0 34 -3 39 -25 39 -13 0 -27 -3 -30 -6z m45 -47 c0 -8 -4 -15 -10 -15 -5 0
-10 7 -10 15 0 8 5 15 10 15 6 0 10 -7 10 -15z"/>
<path d="M2481 316 c0 -22 3 -35 6 -29 3 10 8 9 20 -2 8 -8 19 -13 23 -10 5 3
52 6 105 7 l95 1 0 37 0 37 -125 0 -125 0 1 -41z m166 2 c-3 -8 -6 -5 -6 6 -1
11 2 17 5 13 3 -3 4 -12 1 -19z m-20 -20 c-3 -8 -6 -5 -6 6 -1 11 2 17 5 13 3
-3 4 -12 1 -19z m90 0 c-3 -8 -6 -5 -6 6 -1 11 2 17 5 13 3 -3 4 -12 1 -19z"/>
<path d="M2740 319 c0 -40 13 -49 58 -41 18 4 22 11 22 43 l0 39 -40 -2 c-39
-1 -40 -2 -40 -39z m70 -15 c0 -8 -5 -12 -10 -9 -6 4 -8 11 -5 16 9 14 15 11
15 -7z"/>
<path d="M6826 344 c-6 -15 -4 -15 11 -3 10 7 20 15 22 16 2 2 -3 3 -11 3 -9
0 -19 -7 -22 -16z"/>
<path d="M6900 348 c0 -11 31 -10 50 2 10 6 5 9 -18 8 -18 -1 -32 -5 -32 -10z"/>
<path d="M7016 348 c7 -11 54 -11 54 0 0 5 -13 9 -30 9 -16 0 -27 -4 -24 -9z"/>
<path d="M7158 348 c8 -8 18 -8 34 -1 21 9 20 10 -11 11 -25 0 -31 -2 -23 -10z"/>
<path d="M1153 315 c0 -22 2 -30 4 -17 2 12 2 30 0 40 -3 9 -5 -1 -4 -23z"/>
<path d="M1331 334 c0 -11 3 -14 6 -6 3 7 2 16 -1 19 -3 4 -6 -2 -5 -13z"/>
<path d="M2393 315 c0 -22 2 -30 4 -17 2 12 2 30 0 40 -3 9 -5 -1 -4 -23z"/>
<path d="M690 333 c0 -6 7 -16 15 -23 11 -9 12 -17 5 -30 -13 -24 -13 -40 1
-40 5 0 7 4 4 10 -3 5 -1 19 6 31 9 18 7 25 -10 42 -12 12 -21 16 -21 10z"/>
<path d="M1241 304 c0 -11 3 -14 6 -6 3 7 2 16 -1 19 -3 4 -6 -2 -5 -13z"/>
<path d="M1502 300 c0 -14 2 -19 5 -12 2 6 2 18 0 25 -3 6 -5 1 -5 -13z"/>
<path d="M4401 304 c0 -11 3 -14 6 -6 3 7 2 16 -1 19 -3 4 -6 -2 -5 -13z"/>
<path d="M8715 304 c-7 -8 -29 -14 -48 -14 -21 0 -41 -7 -52 -20 -18 -20 -17
-20 183 -20 111 0 202 4 202 9 0 4 -9 20 -20 34 -19 24 -24 25 -135 25 -86 0
-119 -4 -130 -14z m253 -7 c6 -5 12 -16 12 -24 0 -20 -204 -17 -221 3 -6 8
-18 14 -26 14 -8 0 -12 4 -9 9 8 12 228 11 244 -2z m-278 -27 c0 -5 -9 -9 -20
-7 -31 5 -36 17 -7 17 15 0 27 -4 27 -10z m50 2 c0 -5 -7 -9 -15 -9 -8 0 -15
4 -15 9 0 4 7 8 15 8 8 0 15 -4 15 -8z"/>
<path d="M6770 299 c0 -5 5 -7 10 -4 6 3 10 8 10 11 0 2 -4 4 -10 4 -5 0 -10
-5 -10 -11z"/>
<path d="M9225 300 c-3 -6 1 -7 9 -4 18 7 21 14 7 14 -6 0 -13 -4 -16 -10z"/>
<path d="M9380 305 c0 -5 5 -17 10 -25 5 -8 10 -10 10 -5 0 6 -5 17 -10 25 -5
8 -10 11 -10 5z"/>
<path d="M9071 234 c0 -11 3 -14 6 -6 3 7 2 16 -1 19 -3 4 -6 -2 -5 -13z"/>
<path d="M9233 242 c-40 -3 -43 -5 -42 -30 1 -17 3 -21 6 -9 3 10 14 17 29 17
19 0 24 -5 24 -24 0 -24 -1 -24 -100 -22 -74 1 -99 -2 -96 -11 3 -8 -1 -10
-12 -6 -14 5 -15 4 -4 -8 10 -11 16 -11 32 -1 34 21 79 15 105 -14 14 -15 25
-23 25 -19 0 5 -7 17 -17 27 -15 17 -13 18 63 19 43 1 71 3 62 6 -13 3 -18 14
-18 38 0 40 -2 41 -57 37z m45 -47 c-1 -14 -6 -25 -10 -25 -4 0 -8 11 -8 25 0
14 4 25 10 25 5 0 9 -11 8 -25z"/>
<path d="M2726 221 c-3 -5 6 -8 19 -8 14 0 25 3 25 8 0 5 -9 9 -19 9 -11 0
-22 -4 -25 -9z"/>
<path d="M4121 218 c0 -9 -4 -23 -7 -32 -4 -12 0 -16 16 -16 17 0 20 3 12 13
-5 6 -12 21 -15 32 -3 15 -5 16 -6 3z"/>
<path d="M1092 185 c0 -16 2 -22 5 -12 2 9 2 23 0 30 -3 6 -5 -1 -5 -18z"/>
<path d="M1210 168 c0 -28 -5 -48 -12 -51 -7 -3 12 -5 42 -5 41 1 46 2 17 5
-37 4 -38 5 -35 43 1 22 -1 43 -5 46 -4 4 -7 -13 -7 -38z"/>
<path d="M1260 193 c0 -7 5 -13 10 -13 6 0 10 -9 10 -20 0 -13 7 -20 20 -20
15 0 20 7 20 29 0 24 -5 29 -30 33 -20 3 -30 0 -30 -9z m47 -35 c-3 -7 -5 -2
-5 12 0 14 2 19 5 13 2 -7 2 -19 0 -25z"/>
<path d="M2366 201 c-4 -7 -5 -15 -2 -18 9 -9 19 4 14 18 -4 11 -6 11 -12 0z"/>
<path d="M1030 184 c0 -8 5 -12 10 -9 6 3 10 10 10 16 0 5 -4 9 -10 9 -5 0
-10 -7 -10 -16z"/>
<path d="M1110 196 c0 -2 7 -6 15 -10 8 -3 15 -1 15 4 0 6 -7 10 -15 10 -8 0
-15 -2 -15 -4z"/>
<path d="M1169 191 c8 -5 11 -16 6 -30 -4 -12 -2 -21 4 -21 6 0 11 14 11 30 0
22 -5 30 -17 30 -14 0 -15 -2 -4 -9z"/>
<path d="M1340 189 c0 -5 5 -7 10 -4 6 3 10 8 10 11 0 2 -4 4 -10 4 -5 0 -10
-5 -10 -11z"/>
<path d="M2270 170 c0 -20 5 -30 15 -30 10 0 15 10 15 30 0 20 -5 30 -15 30
-10 0 -15 -10 -15 -30z m17 -12 c-3 -7 -5 -2 -5 12 0 14 2 19 5 13 2 -7 2 -19
0 -25z"/>
<path d="M2310 190 c0 -5 7 -7 15 -4 8 4 15 8 15 10 0 2 -7 4 -15 4 -8 0 -15
-4 -15 -10z"/>
<path d="M4302 184 c-11 -12 -7 -14 25 -13 21 0 31 3 23 6 -8 3 -19 9 -25 13
-5 5 -16 2 -23 -6z"/>
<path d="M3598 173 c6 -2 18 -2 25 0 6 3 1 5 -13 5 -14 0 -19 -2 -12 -5z"/>
<path d="M3663 173 c15 -2 37 -2 50 0 12 2 0 4 -28 4 -27 0 -38 -2 -22 -4z"/>
<path d="M4168 173 c6 -2 18 -2 25 0 6 3 1 5 -13 5 -14 0 -19 -2 -12 -5z"/>
<path d="M9390 170 c-24 -8 -23 -8 8 -9 17 -1 32 4 32 9 0 11 -5 11 -40 0z"/>
<path d="M1340 155 c0 -8 4 -15 10 -15 5 0 7 7 4 15 -4 8 -8 15 -10 15 -2 0
-4 -7 -4 -15z"/>
<path d="M2310 161 c0 -10 19 -25 25 -20 1 2 -3 10 -11 17 -8 7 -14 8 -14 3z"/>
<path d="M8875 159 c22 -5 47 -10 55 -10 8 0 33 5 55 10 l40 10 -40 -5 c-22
-2 -47 -4 -55 -4 -8 0 -33 2 -55 4 l-40 5 40 -10z"/>
<path d="M1115 150 c3 -5 10 -10 16 -10 5 0 9 5 9 10 0 6 -7 10 -16 10 -8 0
-12 -4 -9 -10z"/>
<path d="M4590 120 c0 -5 7 -7 15 -4 8 4 15 8 15 10 0 2 -7 4 -15 4 -8 0 -15
-4 -15 -10z"/>
<path d="M5728 123 c6 -2 18 -2 25 0 6 3 1 5 -13 5 -14 0 -19 -2 -12 -5z"/>
<path d="M5843 123 c9 -2 25 -2 35 0 9 3 1 5 -18 5 -19 0 -27 -2 -17 -5z"/>
<path d="M1158 113 c7 -3 16 -2 19 1 4 3 -2 6 -13 5 -11 0 -14 -3 -6 -6z"/>
<path d="M1308 113 c7 -3 16 -2 19 1 4 3 -2 6 -13 5 -11 0 -14 -3 -6 -6z"/>
<path d="M2828 113 c12 -2 30 -2 40 0 9 3 -1 5 -23 4 -22 0 -30 -2 -17 -4z"/>
</g>
</svg>
