<?xml version="1.0" standalone="no"?>
<!DOCTYPE svg PUBLIC "-//W3C//DTD SVG 20010904//EN"
 "http://www.w3.org/TR/2001/REC-SVG-20010904/DTD/svg10.dtd">
<svg version="1.0" xmlns="http://www.w3.org/2000/svg"
 width="500.000000pt" height="500.000000pt" viewBox="0 0 500.000000 500.000000"
 preserveAspectRatio="xMidYMid meet">

<g transform="translate(0.000000,500.000000) scale(0.100000,-0.100000)"
fill="#000000" stroke="none">
<path d="M955 4989 c-222 -32 -438 -137 -601 -291 -199 -188 -315 -423 -344
-698 -14 -133 -13 -2869 0 -2998 28 -255 126 -471 295 -650 160 -170 351 -277
585 -328 81 -18 161 -19 1610 -19 1438 0 1530 1 1610 18 312 67 567 246 731
512 57 91 100 198 132 323 l22 87 0 1560 0 1560 -26 96 c-38 136 -81 234 -149
336 -177 268 -432 434 -749 487 -84 14 -266 16 -1575 15 -815 -1 -1508 -5
-1541 -10z m3005 -89 c93 -13 233 -55 317 -95 117 -55 209 -120 308 -218 142
-141 238 -306 292 -502 l28 -100 0 -1485 0 -1485 -28 -100 c-105 -374 -383
-663 -745 -775 -160 -50 -161 -50 -1629 -50 -922 0 -1397 4 -1449 11 -503 70
-891 463 -953 964 -15 126 -15 2744 0 2870 52 422 342 783 735 914 183 61 119
59 1654 60 830 0 1432 -3 1470 -9z"/>
<path d="M1029 4844 c-445 -80 -815 -466 -878 -914 -9 -64 -12 -433 -9 -1480
l3 -1395 22 -81 c115 -426 460 -745 887 -819 130 -22 2754 -23 2891 0 147 24
300 85 435 174 74 48 209 179 269 260 56 75 129 217 160 309 52 155 52 130 49
1643 l-3 1404 -26 95 c-116 417 -456 734 -866 805 -122 21 -2816 21 -2934 -1z
m606 -719 c331 -49 551 -206 632 -449 24 -72 27 -97 27 -221 1 -194 -26 -281
-130 -416 -76 -100 -209 -190 -359 -244 -27 -10 -54 -21 -58 -25 -4 -4 11 -31
35 -61 24 -30 57 -72 73 -93 17 -22 48 -62 70 -91 22 -28 97 -125 167 -216 70
-90 188 -243 262 -338 75 -96 136 -179 136 -183 0 -5 -159 -7 -352 -6 l-353 3
-78 100 c-43 55 -135 174 -206 265 -424 549 -443 571 -468 568 l-24 -3 -2
-465 -2 -465 -317 -3 -318 -2 0 1180 0 1180 583 0 c464 0 602 -3 682 -15z
m2319 -44 c337 -76 538 -251 591 -513 49 -248 -33 -483 -223 -633 -49 -39
-202 -122 -281 -152 -22 -8 -21 -11 51 -98 94 -113 678 -826 691 -842 8 -10
-72 -13 -389 -13 l-399 1 -360 439 c-198 241 -363 439 -367 440 -5 0 -8 -65
-8 -145 l0 -145 -350 0 -350 0 0 846 0 845 648 -4 c626 -3 650 -4 746 -26z
m-794 -1756 l0 -45 -142 0 c-179 0 -192 -6 -196 -77 -4 -70 15 -83 120 -83
l77 0 3 33 3 32 103 3 102 3 0 -35 c0 -32 3 -35 33 -38 31 -3 32 -5 32 -48 0
-44 -1 -45 -34 -48 l-33 -3 3 -123 c3 -85 8 -128 18 -139 12 -16 4 -17 -99
-17 -103 0 -112 1 -117 20 -7 25 -5 25 -56 -2 -36 -20 -57 -23 -152 -23 -95 0
-116 4 -153 23 -59 31 -82 72 -82 147 0 80 25 120 90 148 l49 20 -49 23 c-107
50 -107 179 1 234 61 32 107 38 302 39 l177 1 0 -45z m1385 -925 c0 -13 -239
-15 -2084 -18 -1252 -1 -2089 2 -2094 7 -5 5 -6 14 -3 20 5 8 597 10 2094 9
1847 -3 2087 -5 2087 -18z m-4045 -365 c0 -84 0 -85 -25 -85 -25 0 -25 1 -25
85 0 84 0 85 25 85 25 0 25 -1 25 -85z m142 35 c18 -27 36 -50 41 -50 4 0 7
23 7 50 0 47 2 50 25 50 25 0 25 -1 25 -85 l0 -85 -39 0 c-36 0 -41 4 -72 52
l-34 53 -5 -50 c-5 -46 -7 -50 -32 -53 l-28 -3 0 85 0 86 40 0 c37 0 42 -4 72
-50z m308 25 c0 -21 -5 -25 -30 -25 l-30 0 0 -60 0 -60 -30 0 -30 0 0 60 0 60
-30 0 c-25 0 -30 4 -30 25 0 25 1 25 90 25 89 0 90 0 90 -25z m180 5 c0 -17
-7 -20 -50 -20 -38 0 -50 -4 -50 -15 0 -11 12 -15 51 -15 43 0 50 -3 47 -17
-2 -14 -15 -19 -51 -21 -63 -4 -61 -22 3 -22 43 0 50 -3 50 -20 0 -18 -7 -20
-80 -20 l-80 0 0 85 0 85 80 0 c73 0 80 -2 80 -20z m198 4 c24 -16 28 -44 12
-74 -7 -13 -7 -21 0 -25 5 -3 10 -17 10 -31 0 -19 -5 -24 -25 -24 -18 0 -25 5
-25 20 0 17 -7 20 -40 20 -33 0 -40 -3 -40 -20 0 -16 -7 -20 -30 -20 l-30 0 0
78 c0 43 3 82 7 85 13 14 138 7 161 -9z m168 -40 l39 -57 3 57 c3 52 5 56 27
56 25 0 25 -1 25 -86 l0 -85 -42 3 c-39 3 -46 8 -80 57 l-38 54 0 -57 c0 -57
0 -57 -27 -54 -27 3 -28 5 -31 72 -4 90 -1 96 46 96 37 0 42 -4 78 -56z m271
44 c4 -7 22 -44 39 -83 l32 -70 -26 -3 c-15 -2 -29 3 -34 12 -12 22 -93 22
-102 1 -6 -16 -56 -21 -56 -6 0 5 16 43 35 85 33 73 36 76 69 76 19 0 38 -6
43 -12z m241 -15 c3 -20 -1 -23 -32 -23 l-36 0 0 -60 c0 -57 -1 -60 -25 -60
-24 0 -25 3 -25 60 l0 60 -35 0 c-31 0 -35 3 -35 25 l0 26 93 -3 c87 -3 92 -4
95 -25z m82 -58 l0 -85 -30 0 -30 0 0 85 0 85 30 0 30 0 0 -85z m179 67 c68
-34 61 -113 -11 -140 -72 -27 -148 7 -148 67 0 45 10 62 44 77 42 18 75 17
115 -4z m183 -40 l38 -57 0 58 c0 58 0 58 28 55 27 -3 27 -3 27 -83 l0 -80
-40 -3 c-39 -2 -41 -1 -77 55 l-38 58 0 -57 c0 -55 -1 -58 -24 -58 -31 0 -32
4 -28 95 l4 75 36 0 c34 0 40 -5 74 -58z m298 -14 c18 -40 35 -79 37 -85 4 -9
-5 -13 -26 -13 -21 0 -31 5 -31 15 0 11 -12 15 -49 15 -34 0 -51 -4 -55 -15
-6 -16 -56 -21 -56 -6 0 5 16 43 36 85 36 75 37 76 74 76 37 0 38 -1 70 -72z
m118 10 l3 -58 49 0 c47 0 50 -2 50 -25 0 -25 -1 -25 -80 -25 l-80 0 0 86 0
85 28 -3 c26 -3 27 -6 30 -60z m402 37 c0 -21 -5 -25 -30 -25 -32 0 -30 5 -34
-85 -1 -25 -6 -31 -28 -33 -28 -3 -28 -3 -28 57 0 61 0 61 -29 61 -33 0 -46
13 -37 35 4 12 26 15 96 15 89 0 90 0 90 -25z m177 10 c18 -13 21 -24 21 -85
-1 -63 -3 -70 -20 -70 -11 0 -22 9 -25 20 -4 16 -14 20 -44 20 -32 0 -39 -3
-39 -20 0 -15 -7 -20 -25 -20 -25 0 -25 1 -25 85 l0 85 68 0 c44 0 75 -5 89
-15z m238 -61 c19 -42 35 -80 35 -85 0 -15 -50 -10 -56 6 -4 10 -20 15 -50 15
-30 0 -46 -5 -50 -15 -4 -9 -19 -15 -36 -15 -16 0 -28 4 -26 8 2 5 18 43 37
85 34 77 35 77 73 77 38 0 39 0 73 -76z m220 51 c17 -16 25 -35 25 -60 0 -25
-8 -44 -25 -60 -21 -22 -33 -25 -90 -25 l-65 0 0 85 0 85 65 0 c57 0 69 -3 90
-25z m95 -60 c0 -84 0 -85 -25 -85 -25 0 -25 1 -25 85 0 84 0 85 25 85 25 0
25 -1 25 -85z m147 34 l38 -50 5 48 c5 43 8 48 33 51 l27 3 0 -86 0 -86 -42 3
c-37 3 -47 9 -76 48 -19 25 -38 47 -43 48 -5 2 -9 -19 -9 -47 0 -48 -2 -51
-25 -51 -25 0 -25 1 -25 85 l0 85 40 0 c36 0 43 -5 77 -51z m262 40 c27 -10
51 -34 51 -53 0 -10 -59 -6 -65 4 -9 14 -48 13 -63 -2 -34 -34 17 -82 63 -59
19 9 19 10 -2 10 -14 1 -23 7 -23 16 0 11 12 15 45 15 45 0 45 0 45 -35 0 -32
-3 -35 -42 -45 -80 -22 -148 8 -148 65 0 49 9 66 44 81 38 16 54 17 95 3z
m-2461 -315 c12 -8 22 -21 22 -29 0 -17 -31 -19 -97 -6 -23 4 -47 4 -55 0 -16
-10 -1 -16 73 -24 70 -8 98 -32 83 -73 -23 -65 -190 -68 -232 -4 -14 21 -13
22 19 22 18 0 47 -5 64 -11 33 -12 90 -5 81 10 -3 4 -31 11 -61 14 -90 9 -126
45 -92 91 25 34 147 40 195 10z m388 -67 c24 -50 44 -97 44 -104 0 -22 -58
-16 -70 7 -9 16 -21 20 -63 20 -41 0 -55 -4 -65 -20 -13 -21 -72 -29 -72 -10
0 6 20 53 44 104 l44 94 47 0 46 0 45 -91z m374 80 c31 -11 35 -17 38 -50 2
-21 -2 -44 -8 -52 -8 -9 -8 -15 0 -20 5 -3 10 -22 10 -41 0 -34 -1 -35 -32
-32 -28 2 -34 8 -36 31 -3 25 -7 27 -47 27 -40 0 -44 -2 -47 -27 -2 -23 -8
-29 -35 -31 l-33 -3 0 99 c0 54 3 102 7 105 11 11 146 7 183 -6z m238 -65 l3
-72 65 0 65 0 -3 -27 -3 -28 -95 0 -95 0 -3 89 c-2 49 -1 94 1 101 3 6 18 10
33 10 29 -2 29 -2 32 -73z m-878 -107 c0 -21 -5 -25 -30 -25 -25 0 -30 4 -30
25 0 21 5 25 30 25 25 0 30 -4 30 -25z m410 0 c0 -21 -5 -25 -30 -25 -25 0
-30 4 -30 25 0 21 5 25 30 25 25 0 30 -4 30 -25z m370 -1 c0 -23 -3 -25 -32
-22 -25 2 -34 8 -36 26 -3 19 1 22 32 22 32 0 36 -3 36 -26z m320 0 c0 -23 -3
-25 -32 -22 -25 2 -34 8 -36 26 -3 19 1 22 32 22 32 0 36 -3 36 -26z"/>
<path d="M1010 3636 c-1 -14 -1 -117 -1 -228 l-1 -203 189 0 c171 0 195 2 261
24 158 52 228 170 171 287 -24 52 -72 89 -147 117 -50 18 -84 22 -264 25
l-208 4 0 -26z"/>
<path d="M2600 3275 l0 -795 310 0 310 0 0 135 0 135 38 0 c33 0 42 -6 87 -62
49 -61 158 -194 273 -332 31 -38 80 -96 108 -130 28 -33 106 -127 173 -208
l122 -148 340 0 c186 0 339 3 339 6 0 3 -42 56 -93 117 -130 156 -319 386
-467 567 -69 85 -140 170 -157 189 -18 20 -32 40 -30 44 1 5 36 19 77 33 230
78 393 224 456 409 24 69 27 96 27 195 0 97 -4 128 -27 197 -47 143 -145 252
-298 329 -202 102 -313 114 -1035 114 l-553 0 0 -795z m1119 334 c169 -64 218
-208 107 -315 -47 -45 -112 -78 -183 -95 -37 -8 -247 -13 -410 -9 -10 0 -13
50 -13 218 0 120 3 222 8 226 4 4 102 6 217 4 192 -4 215 -7 274 -29z"/>
<path d="M3260 3410 l0 -182 188 4 c220 4 273 19 349 94 38 38 43 49 43 87 0
61 -32 105 -105 142 l-58 30 -209 3 -208 3 0 -181z"/>
<path d="M2860 2013 c-40 -15 -50 -35 -50 -100 l0 -64 37 -16 c44 -18 111 -13
148 11 23 15 25 22 25 96 l0 80 -72 -1 c-40 0 -80 -3 -88 -6z"/>
<path d="M1220 1049 c0 -17 5 -20 32 -17 22 2 34 9 36 21 3 14 -4 17 -32 17
-30 0 -36 -4 -36 -21z"/>
<path d="M1712 1045 c-11 -23 -9 -25 12 -25 19 0 23 4 19 20 -8 31 -19 32 -31
5z"/>
<path d="M2169 1054 c-20 -24 1 -49 41 -49 40 0 61 25 41 49 -8 9 -26 16 -41
16 -15 0 -33 -7 -41 -16z"/>
<path d="M2667 1056 c-11 -28 -8 -36 13 -36 23 0 25 9 7 34 -13 18 -14 18 -20
2z"/>
<path d="M3342 1053 c4 -22 44 -29 63 -13 22 18 9 30 -31 30 -28 0 -35 -4 -32
-17z"/>
<path d="M3601 1052 c-15 -28 -14 -32 9 -32 21 0 26 16 11 39 -7 11 -11 10
-20 -7z"/>
<path d="M3800 1035 c0 -35 1 -36 33 -33 28 3 32 6 32 33 0 27 -4 30 -32 33
-32 3 -33 2 -33 -33z"/>
<path d="M2232 735 c-16 -35 -16 -35 14 -35 22 0 24 3 19 23 -11 36 -21 39
-33 12z"/>
<path d="M2590 739 c0 -18 5 -20 42 -17 31 2 44 8 46 21 3 14 -4 17 -42 17
-40 0 -46 -3 -46 -21z"/>
</g>
</svg>
